<?xml version="1.0" encoding="utf-8"?>
<!-- Generator: Adobe Illustrator 24.1.3, SVG Export Plug-In . SVG Version: 6.00 Build 0)  -->
<svg version="1.1" id="Capa_1" xmlns="http://www.w3.org/2000/svg" xmlns:xlink="http://www.w3.org/1999/xlink" x="0px" y="0px"
	 viewBox="0 0 512 512" style="enable-background:new 0 0 512 512;" xml:space="preserve">
<style type="text/css">
	.st0{fill:#6600CC;}
</style>
<g>
	<path class="st0" d="M162.5,434.4c-23.4,23.4-61.4,23.4-84.9,0c-23.1-23.1-23.4-60.2-1.1-83.8L203,224.2
		c-39.1-10.5-82.5-0.8-113.7,28.9L33,309.3c-44.7,47-44,121.4,2.2,167.5c46.9,46.9,122.9,46.9,169.7,0l51.8-51.8
		c31.4-31.4,41.8-75.9,31.1-115.9L162.5,434.4z"/>
	<path class="st0" d="M476.8,35.2C430.7-11,356.3-11.7,309.3,33l-56.2,56.2c-29.7,31.3-39.4,74.6-28.9,113.7L350.7,76.5
		c23.5-22.4,60.7-22,83.8,1.1c23.4,23.4,23.4,61.4,0,84.9L309,287.8c40,10.7,84.5,0.3,115.9-31.1l51.8-51.8
		C523.7,158,523.7,82,476.8,35.2L476.8,35.2z"/>
	<path class="st0" d="M164.8,347.2c11.7,11.7,30.7,11.7,42.4,0l140-140c11.7-11.7,11.7-30.7,0-42.4c-11.5-11.5-30.1-11.7-41.9-0.5
		L164.2,305.4C153.1,317.1,153.2,335.7,164.8,347.2L164.8,347.2z"/>
</g>
</svg>
