<?xml version="1.0" encoding="utf-8"?>
<!-- Generator: Adobe Illustrator 24.1.2, SVG Export Plug-In . SVG Version: 6.00 Build 0)  -->
<svg version="1.1" id="Layer_1" xmlns="http://www.w3.org/2000/svg" xmlns:xlink="http://www.w3.org/1999/xlink" x="0px" y="0px"
	 viewBox="0 0 2236 640" style="enable-background:new 0 0 2236 640;" xml:space="preserve">
<style type="text/css">
	.st0{fill-rule:evenodd;clip-rule:evenodd;fill:#FFFFFF;}
	.st1{fill:#FFFFFF;}
</style>
<desc>Created with Sketch.</desc>
<g id="logo-exchangily-purple">
	<g id="Combined-Shape-Copy">
		<image style="overflow:visible;" width="479" height="293" xlink:href="2C6C60D5.png"  transform="matrix(1 0 0 1 160 173)">
		</image>
	</g>
	<g id="Group" transform="translate(717.000000, 185.000000)">
		<path id="exchangily-copy-2" class="st0" d="M70.5,207.9c-9.8,0-18.9-1.7-27.4-5s-15.8-8.2-22.2-14.5
			c-6.3-6.3-11.3-14.1-14.8-23.2s-5.3-19.5-5.3-31.2c0-11.5,1.8-21.9,5.5-31.1s8.5-17,14.5-23.3s13-11.2,20.9-14.7
			c7.9-3.5,15.9-5.2,24.2-5.2c9.6,0,18,1.6,25.3,4.9c7.3,3.3,13.4,7.9,18.3,13.8c4.9,6,8.6,13.1,11.1,21.3
			c2.5,8.3,3.7,17.3,3.7,27.1c0,3.3-0.1,6.3-0.4,9.2c-0.3,2.9-0.6,5.2-1,6.9H33.1c1.5,12.7,6,22.4,13.4,29.2
			c7.4,6.8,16.8,10.2,28.4,10.2c6.1,0,11.9-0.9,17.1-2.7c5.3-1.8,10.5-4.4,15.7-7.6l11.2,20.7c-6.7,4.4-14.2,8.1-22.5,10.9
			C88.2,206.4,79.6,207.9,70.5,207.9z M32.8,120.3h62.8c0-10.9-2.4-19.5-7.1-25.8c-4.7-6.2-12-9.4-21.7-9.4c-8.4,0-15.8,3-22.2,8.9
			C38.3,100.1,34.3,108.8,32.8,120.3z M353.6,207.9c-9.6,0-18.6-1.6-26.9-4.9c-8.4-3.3-15.6-8.1-21.7-14.4
			c-6.1-6.3-10.9-14.1-14.4-23.3s-5.2-19.7-5.2-31.4s1.9-22.2,5.8-31.4c3.8-9.2,9-17,15.6-23.3c6.5-6.3,14.1-11.2,22.6-14.5
			s17.5-5,26.9-5c9.2,0,17.1,1.5,23.8,4.6c6.6,3.1,12.5,6.8,17.7,11.2L381.6,97c-3.8-3.3-7.6-5.8-11.4-7.6
			c-3.7-1.8-7.8-2.7-12.2-2.7c-11.5,0-20.8,4.3-27.9,12.8s-10.7,20-10.7,34.4c0,14.2,3.5,25.6,10.5,34.1c7,8.5,16.1,12.8,27.2,12.8
			c5.6,0,10.8-1.2,15.7-3.6c4.9-2.4,9.4-5.2,13.4-8.5l13.5,21.9c-6.7,5.8-14.1,10.1-22,13C369.7,206.4,361.7,207.9,353.6,207.9z
			 M427.7,204.4V1.1h33.1v52.4l-1.2,27.4c6-5.6,12.5-10.5,19.7-14.8s15.7-6.5,25.5-6.5c15.2,0,26.2,4.8,33.1,14.5
			s10.4,23.6,10.4,41.6v88.7h-33.1V120c0-11.7-1.7-20-5.2-24.8c-3.5-4.8-9.1-7.2-17-7.2c-6.1,0-11.6,1.5-16.3,4.5
			c-4.7,3-10,7.3-16,13.1v98.8H427.7z M622.6,207.9c-12.5,0-22.6-3.8-30.2-11.4c-7.7-7.6-11.5-17.6-11.5-30.1c0-7.5,1.6-14.2,4.8-20
			s8.2-10.9,15-15.1c6.8-4.2,15.5-7.8,25.9-10.7c10.5-2.9,23-5.1,37.6-6.6c-0.2-3.6-0.7-7.2-1.6-10.5c-0.9-3.4-2.3-6.3-4.3-8.9
			c-2-2.6-4.7-4.6-7.9-6c-3.3-1.4-7.3-2.2-12.1-2.2c-6.9,0-13.7,1.3-20.3,4s-13.1,6-19.4,9.8L586.3,78c7.9-5,16.7-9.3,26.5-13
			c9.8-3.6,20.4-5.5,31.7-5.5c17.7,0,30.9,5.2,39.6,15.7c8.7,10.5,13.1,25.6,13.1,45.4v83.8h-27.4l-2.3-15.6h-1.2
			c-6.3,5.4-13.1,9.9-20.3,13.5C638.9,206.1,631.1,207.9,622.6,207.9z M633.3,182c5.8,0,11-1.3,15.7-4c4.7-2.7,9.7-6.5,15.1-11.5
			v-31.7c-9.6,1.2-17.7,2.7-24.2,4.6c-6.5,1.9-11.8,4.1-15.8,6.5c-4,2.4-6.9,5.1-8.6,8.2c-1.7,3.1-2.6,6.3-2.6,9.8
			c0,6.3,1.9,10.9,5.8,13.8S627.3,182,633.3,182z M737,204.4V63h27.4l2.3,19h1.2c6.3-6.1,13.2-11.4,20.6-15.8s16-6.6,25.8-6.6
			c15.2,0,26.2,4.8,33.1,14.5s10.4,23.6,10.4,41.6v88.7h-33.1V120c0-11.7-1.7-20-5.2-24.8c-3.5-4.8-9.1-7.2-17-7.2
			c-6.1,0-11.6,1.5-16.3,4.5c-4.7,3-10,7.3-16,13.1v98.8H737z M947.5,266.9c-8.4,0-16.3-0.8-23.5-2.3c-7.2-1.5-13.4-3.8-18.6-6.9
			c-5.2-3.1-9.3-6.9-12.2-11.5c-3-4.6-4.5-10-4.5-16.1c0-6,1.7-11.5,5.2-16.6c3.5-5.1,8.4-9.6,15-13.7v-1.2
			c-3.6-2.3-6.7-5.4-9.1-9.2c-2.4-3.8-3.6-8.6-3.6-14.4c0-5.6,1.6-10.6,4.8-15.1s6.8-8.2,10.8-11.1v-1.2c-4.8-3.6-9.1-8.7-12.8-15.1
			c-3.7-6.4-5.6-13.9-5.6-22.3c0-8.1,1.5-15.3,4.6-21.6c3.1-6.3,7.2-11.7,12.2-16s11-7.6,17.7-9.8c6.7-2.2,13.8-3.3,21.3-3.3
			c3.8,0,7.5,0.3,11.1,1c3.6,0.7,6.8,1.5,9.6,2.4h50.7v24.5h-25.9c2.3,2.7,4.2,6.1,5.8,10.2s2.3,8.7,2.3,13.7
			c0,7.9-1.4,14.8-4.2,20.7c-2.8,6-6.6,10.9-11.4,15c-4.8,4-10.5,7.1-17,9.2c-6.5,2.1-13.5,3.2-21,3.2c-3.1,0-6.2-0.3-9.5-0.9
			c-3.3-0.6-6.5-1.5-9.8-2.9c-2.1,1.9-3.8,3.8-5,5.8c-1.2,1.9-1.9,4.5-1.9,7.8c0,4,1.7,7.2,5,9.5c3.4,2.3,9.4,3.5,18,3.5h25.1
			c17.1,0,30,2.7,38.7,8.2c8.7,5.5,13.1,14.4,13.1,26.6c0,6.9-1.8,13.4-5.3,19.6c-3.6,6.1-8.6,11.4-15.1,15.8s-14.4,7.9-23.8,10.5
			S959,266.9,947.5,266.9z M949.2,138.8c6.7,0,12.5-2.4,17.3-7.3c4.8-4.9,7.2-12,7.2-21.2c0-8.8-2.4-15.7-7.1-20.6
			c-4.7-4.9-10.5-7.3-17.4-7.3c-6.9,0-12.8,2.4-17.6,7.2c-4.8,4.8-7.2,11.7-7.2,20.7c0,9.2,2.4,16.3,7.2,21.2
			C936.5,136.3,942.3,138.8,949.2,138.8z M952.7,245.3c11.5,0,20.8-2.3,27.8-6.8c7-4.5,10.5-9.8,10.5-16c0-5.6-2.2-9.3-6.5-11.2
			s-10.5-2.9-18.6-2.9h-19.3c-7.7,0-14.1-0.7-19.3-2c-7.3,5.6-10.9,11.8-10.9,18.7c0,6.3,3.2,11.3,9.6,14.8
			C932.5,243.5,941.4,245.3,952.7,245.3z M1048,204.4V63h33.1v141.4H1048z M1064.7,38.2c-6,0-10.8-1.7-14.7-5.2
			c-3.8-3.5-5.8-8-5.8-13.5s1.9-10.1,5.8-13.7c3.8-3.6,8.7-5.3,14.7-5.3s10.8,1.8,14.7,5.3c3.8,3.6,5.8,8.1,5.8,13.7
			s-1.9,10.1-5.8,13.5C1075.6,36.5,1070.7,38.2,1064.7,38.2z M1155.7,207.9c-11.9,0-20.3-3.6-25.1-10.7s-7.2-16.8-7.2-29.1V1.1h33.1
			v168.8c0,4,0.8,6.9,2.3,8.5s3.2,2.4,4.9,2.4h2.2c0.7,0,1.7-0.2,3-0.6l4.3,24.8C1168.9,206.9,1163,207.9,1155.7,207.9z M1211,262.6
			c-3.8,0-7.2-0.2-10.1-0.7s-5.7-1.2-8.4-2.2l6-25.9c1.3,0.4,2.9,0.8,4.8,1.3c1.8,0.5,3.6,0.7,5.3,0.7c7.5,0,13.5-2.3,18-6.8
			c4.5-4.5,7.9-10.3,10.2-17.4l2.6-8.9L1183.9,63h33.7l24.5,69.4c2.1,6.1,4.2,12.6,6.2,19.4c2,6.8,4.1,13.6,6.2,20.3h1.2
			c1.7-6.5,3.5-13.2,5.3-20c1.8-6.8,3.6-13.4,5.3-19.7l21.3-69.4h32l-51.3,147.7c-2.9,8.1-6,15.3-9.5,21.6s-7.4,11.8-12,16.3
			c-4.5,4.5-9.7,8-15.6,10.4C1225.5,261.4,1218.7,262.6,1211,262.6z"/>
		<path id="Combined-Shape-Copy-2" class="st1" d="M204.7,109.4l37.6-50h36.3l-55.7,74.1l101.8,135.3h-36.3l-83.6-111.2l-37.7,50.2
			h-36.3l55.9-74.4L98.9,17h36.3L204.7,109.4z"/>
	</g>
</g>
</svg>
