<?xml version="1.0" encoding="utf-8"?>
<!-- Generator: Adobe Illustrator 24.1.3, SVG Export Plug-In . SVG Version: 6.00 Build 0)  -->
<svg version="1.1" id="Capa_1" xmlns="http://www.w3.org/2000/svg" xmlns:xlink="http://www.w3.org/1999/xlink" x="0px" y="0px"
	 viewBox="0 0 490.7 490.7" style="enable-background:new 0 0 490.7 490.7;" xml:space="preserve">
<style type="text/css">
	.st0{fill:#6600CC;}
</style>
<path class="st0" d="M466.2,237.8L231.6,3.1c-2-2-4.7-3.1-7.6-3.1H32c-5.9,0-10.7,4.8-10.7,10.6c0,2.8,1.1,5.6,3.1,7.6l227.1,227.1
	L24.4,472.4c-4.2,4.2-4.2,10.9,0,15.1c2,2,4.7,3.1,7.6,3.1h192c2.8,0,5.5-1.1,7.6-3.1l234.7-234.7
	C470.4,248.7,470.4,242,466.2,237.8C466.2,237.8,466.2,237.8,466.2,237.8z"/>
</svg>
