<svg 
 xmlns="http://www.w3.org/2000/svg"
 xmlns:xlink="http://www.w3.org/1999/xlink"
 width="0.706cm" height="0.706cm">
<defs>
<linearGradient id="PSgrad_0" x1="0%" x2="70.711%" y1="0%" y2="70.711%">
  <stop offset="0%" stop-color="rgb(249,160,56)" stop-opacity="1" />
  <stop offset="100%" stop-color="rgb(244,124,54)" stop-opacity="1" />
</linearGradient>

</defs>
<path fill-rule="evenodd"  fill="url(#PSgrad_0)"
 d="M13.672,20.000 L6.328,20.000 C2.828,20.000 -0.000,17.172 -0.000,13.672 L-0.000,6.328 C-0.000,2.828 2.828,-0.000 6.328,-0.000 L13.672,-0.000 C17.172,-0.000 20.000,2.828 20.000,6.328 L20.000,13.672 C20.000,17.172 17.172,20.000 13.672,20.000 Z"/>
<path fill-rule="evenodd"  fill="rgb(0, 0, 0)"
 d="M14.812,13.187 C14.531,13.890 13.969,14.297 13.266,14.469 C12.734,14.594 12.156,14.640 11.609,14.734 C11.594,14.734 11.562,14.750 11.516,14.750 C11.516,15.328 11.500,16.062 11.500,16.687 L10.344,16.687 C10.344,16.078 10.359,15.359 10.359,14.765 C10.062,14.750 9.766,14.750 9.437,14.734 C9.437,15.328 9.422,16.062 9.422,16.687 L8.266,16.687 C8.281,16.062 8.281,15.297 8.281,14.703 C7.500,14.687 6.719,14.687 5.937,14.672 C6.031,14.203 6.109,13.750 6.187,13.281 C6.453,13.281 6.719,13.281 6.969,13.281 C7.328,13.281 7.484,13.125 7.484,12.766 C7.500,11.109 7.516,9.437 7.531,7.781 C7.531,7.375 7.328,7.156 6.922,7.125 C6.781,7.109 6.625,7.109 6.484,7.109 C6.328,7.109 6.187,7.109 6.016,7.109 C6.031,6.703 6.031,6.297 6.031,5.875 C6.812,5.875 7.578,5.891 8.375,5.891 C8.375,5.344 8.391,4.594 8.391,3.969 L9.547,3.969 C9.531,4.562 9.531,5.312 9.531,5.859 C9.828,5.859 10.125,5.859 10.453,5.859 C10.453,5.328 10.469,4.562 10.469,3.969 L11.641,3.969 C11.641,4.578 11.625,5.359 11.625,5.906 C11.953,5.969 12.250,6.015 12.562,6.078 C13.000,6.172 13.406,6.344 13.766,6.609 C14.656,7.266 14.766,9.172 13.531,9.812 C13.516,9.812 13.500,9.844 13.469,9.859 C13.719,9.969 13.984,10.062 14.203,10.187 C14.687,10.469 14.969,10.906 15.047,11.469 C15.125,12.062 15.078,12.625 14.812,13.187 ZM11.625,7.469 C10.953,7.172 10.250,7.234 9.531,7.234 C9.531,8.031 9.516,8.781 9.516,9.562 C10.203,9.594 10.859,9.594 11.500,9.391 C11.953,9.234 12.219,8.906 12.250,8.453 C12.281,8.016 12.062,7.656 11.625,7.469 ZM12.078,11.047 C11.250,10.687 10.375,10.750 9.500,10.750 C9.484,11.609 9.484,12.453 9.469,13.312 C9.687,13.312 9.875,13.328 10.062,13.328 C10.734,13.312 11.422,13.312 12.062,13.031 C12.500,12.844 12.750,12.531 12.750,12.047 C12.750,11.562 12.500,11.234 12.078,11.047 Z"/>
<path fill-rule="evenodd"  fill="rgb(255, 255, 255)"
 d="M14.500,12.875 C14.219,13.578 13.656,13.984 12.953,14.156 C12.422,14.281 11.844,14.328 11.297,14.422 C11.281,14.422 11.250,14.437 11.203,14.437 C11.203,15.015 11.187,15.750 11.187,16.375 L10.031,16.375 C10.031,15.766 10.047,15.047 10.047,14.453 C9.750,14.437 9.453,14.437 9.125,14.422 C9.125,15.015 9.109,15.750 9.109,16.375 L7.953,16.375 C7.969,15.750 7.969,14.984 7.969,14.391 C7.187,14.375 6.406,14.375 5.625,14.359 C5.719,13.890 5.797,13.437 5.875,12.969 C6.141,12.969 6.406,12.969 6.656,12.969 C7.016,12.969 7.172,12.812 7.172,12.453 C7.187,10.797 7.203,9.125 7.219,7.469 C7.219,7.062 7.016,6.844 6.609,6.812 C6.469,6.797 6.312,6.797 6.172,6.797 C6.016,6.797 5.875,6.797 5.703,6.797 C5.719,6.391 5.719,5.984 5.719,5.562 C6.500,5.562 7.266,5.578 8.062,5.578 C8.062,5.031 8.078,4.281 8.078,3.656 L9.234,3.656 C9.219,4.250 9.219,5.000 9.219,5.547 C9.516,5.547 9.812,5.547 10.141,5.547 C10.141,5.016 10.156,4.250 10.156,3.656 L11.328,3.656 C11.328,4.266 11.312,5.047 11.312,5.594 C11.641,5.656 11.937,5.703 12.250,5.766 C12.687,5.859 13.094,6.031 13.453,6.297 C14.344,6.953 14.453,8.859 13.219,9.500 C13.203,9.500 13.187,9.531 13.156,9.547 C13.406,9.656 13.672,9.750 13.891,9.875 C14.375,10.156 14.656,10.594 14.734,11.156 C14.812,11.750 14.766,12.312 14.500,12.875 ZM11.312,7.156 C10.641,6.859 9.937,6.922 9.219,6.922 C9.219,7.719 9.203,8.469 9.203,9.250 C9.891,9.281 10.547,9.281 11.187,9.078 C11.641,8.922 11.906,8.594 11.937,8.140 C11.969,7.703 11.750,7.344 11.312,7.156 ZM11.766,10.734 C10.937,10.375 10.062,10.437 9.187,10.437 C9.172,11.297 9.172,12.140 9.156,13.000 C9.375,13.000 9.562,13.016 9.750,13.016 C10.422,13.000 11.109,13.000 11.750,12.719 C12.187,12.531 12.437,12.219 12.437,11.734 C12.437,11.250 12.187,10.922 11.766,10.734 Z"/>
</svg>