<svg 
 xmlns="http://www.w3.org/2000/svg"
 xmlns:xlink="http://www.w3.org/1999/xlink"
 width="0.706cm" height="0.706cm">
<defs>
<linearGradient id="PSgrad_0" x1="0%" x2="70.711%" y1="0%" y2="70.711%">
  <stop offset="0%" stop-color="rgb(110,117,184)" stop-opacity="1" />
  <stop offset="100%" stop-color="rgb(73,91,157)" stop-opacity="1" />
</linearGradient>

</defs>
<path fill-rule="evenodd"  fill="url(#PSgrad_0)"
 d="M13.672,20.000 L6.328,20.000 C2.828,20.000 -0.000,17.172 -0.000,13.672 L-0.000,6.328 C-0.000,2.828 2.828,-0.000 6.328,-0.000 L13.672,-0.000 C17.172,-0.000 20.000,2.828 20.000,6.328 L20.000,13.672 C20.000,17.172 17.172,20.000 13.672,20.000 Z"/>
<path fill-rule="evenodd"  fill="rgb(0, 0, 0)"
 d="M10.500,13.937 L10.500,17.484 L14.906,11.312 L10.500,13.937 Z"/>
<path fill-rule="evenodd"  fill="rgb(0, 0, 0)"
 d="M14.734,10.172 L10.500,3.140 L10.500,8.250 L14.734,10.172 Z"/>
<path fill-rule="evenodd"  fill="rgb(0, 0, 0)"
 d="M10.500,8.641 L10.500,13.016 L14.703,10.562 L10.500,8.641 Z"/>
<path fill-rule="evenodd"  fill="rgb(0, 0, 0)"
 d="M5.906,10.172 L10.141,3.140 L10.141,8.250 L5.906,10.172 Z"/>
<path fill-rule="evenodd"  fill="rgb(0, 0, 0)"
 d="M10.141,8.641 L10.141,13.016 L5.937,10.562 L10.141,8.641 Z"/>
<path fill-rule="evenodd"  fill="rgb(0, 0, 0)"
 d="M10.125,13.937 L10.125,17.484 L5.734,11.312 L10.125,13.937 Z"/>
<path fill-rule="evenodd"  fill="rgb(255, 255, 255)"
 d="M10.187,13.625 L10.187,17.172 L14.594,11.000 L10.187,13.625 Z"/>
<path fill-rule="evenodd"  fill="rgb(255, 255, 255)"
 d="M14.422,9.859 L10.187,2.828 L10.187,7.937 L14.422,9.859 Z"/>
<path fill-rule="evenodd"  fill="rgb(255, 255, 255)"
 d="M10.187,8.328 L10.187,12.703 L14.391,10.250 L10.187,8.328 Z"/>
<path fill-rule="evenodd"  fill="rgb(255, 255, 255)"
 d="M5.594,9.859 L9.828,2.828 L9.828,7.937 L5.594,9.859 Z"/>
<path fill-rule="evenodd"  fill="rgb(255, 255, 255)"
 d="M9.828,8.328 L9.828,12.703 L5.625,10.250 L9.828,8.328 Z"/>
<path fill-rule="evenodd"  fill="rgb(255, 255, 255)"
 d="M9.812,13.625 L9.812,17.172 L5.422,11.000 L9.812,13.625 Z"/>
</svg>