<?xml version="1.0" encoding="utf-8"?>
<!-- Generator: Adobe Illustrator 18.1.1, SVG Export Plug-In . SVG Version: 6.00 Build 0)  -->
<svg version="1.1" xmlns="http://www.w3.org/2000/svg" xmlns:xlink="http://www.w3.org/1999/xlink" x="0px" y="0px"
	 viewBox="0 0 15000 10000" enable-background="new 0 0 15000 10000" xml:space="preserve">
<g id="Layer_1" display="none">
	<g display="inline">
		<rect fill="none" stroke="#000000" stroke-miterlimit="10" width="15000" height="10000"/>
		<line fill="none" stroke="#000000" stroke-miterlimit="10" x1="0" y1="9500" x2="15000" y2="9500"/>
		<line fill="none" stroke="#000000" stroke-miterlimit="10" x1="0" y1="9000" x2="15000" y2="9000"/>
		<line fill="none" stroke="#000000" stroke-miterlimit="10" x1="0" y1="8500" x2="15000" y2="8500"/>
		<line fill="none" stroke="#000000" stroke-miterlimit="10" x1="0" y1="8000" x2="15000" y2="8000"/>
		<line fill="none" stroke="#000000" stroke-miterlimit="10" x1="0" y1="7500" x2="15000" y2="7500"/>
		<line fill="none" stroke="#000000" stroke-miterlimit="10" x1="0" y1="7000" x2="15000" y2="7000"/>
		<line fill="none" stroke="#000000" stroke-miterlimit="10" x1="0" y1="6500" x2="15000" y2="6500"/>
		<line fill="none" stroke="#000000" stroke-miterlimit="10" x1="0" y1="6000" x2="15000" y2="6000"/>
		<line fill="none" stroke="#000000" stroke-miterlimit="10" x1="0" y1="5500" x2="15000" y2="5500"/>
		<line fill="none" stroke="#000000" stroke-miterlimit="10" x1="0" y1="5000" x2="15000" y2="5000"/>
		<line fill="none" stroke="#000000" stroke-miterlimit="10" x1="0" y1="4500" x2="15000" y2="4500"/>
		<line fill="none" stroke="#000000" stroke-miterlimit="10" x1="0" y1="4000" x2="15000" y2="4000"/>
		<line fill="none" stroke="#000000" stroke-miterlimit="10" x1="0" y1="3500" x2="15000" y2="3500"/>
		<line fill="none" stroke="#000000" stroke-miterlimit="10" x1="0" y1="3000" x2="15000" y2="3000"/>
		<line fill="none" stroke="#000000" stroke-miterlimit="10" x1="0" y1="2500" x2="15000" y2="2500"/>
		<line fill="none" stroke="#000000" stroke-miterlimit="10" x1="0" y1="2000" x2="15000" y2="2000"/>
		<line fill="none" stroke="#000000" stroke-miterlimit="10" x1="0" y1="1500" x2="15000" y2="1500"/>
		<line fill="none" stroke="#000000" stroke-miterlimit="10" x1="0" y1="1000" x2="15000" y2="1000"/>
		<line fill="none" stroke="#000000" stroke-miterlimit="10" x1="0" y1="500" x2="15000" y2="500"/>
		<line fill="none" stroke="#000000" stroke-miterlimit="10" x1="14500" y1="0" x2="14500" y2="10000"/>
		<line fill="none" stroke="#000000" stroke-miterlimit="10" x1="14000" y1="0" x2="14000" y2="10000"/>
		<line fill="none" stroke="#000000" stroke-miterlimit="10" x1="13500" y1="0" x2="13500" y2="10000"/>
		<line fill="none" stroke="#000000" stroke-miterlimit="10" x1="13000" y1="0" x2="13000" y2="10000"/>
		<line fill="none" stroke="#000000" stroke-miterlimit="10" x1="12500" y1="0" x2="12500" y2="10000"/>
		<line fill="none" stroke="#000000" stroke-miterlimit="10" x1="12000" y1="0" x2="12000" y2="10000"/>
		<line fill="none" stroke="#000000" stroke-miterlimit="10" x1="11500" y1="0" x2="11500" y2="10000"/>
		<line fill="none" stroke="#000000" stroke-miterlimit="10" x1="11000" y1="0" x2="11000" y2="10000"/>
		<line fill="none" stroke="#000000" stroke-miterlimit="10" x1="10500" y1="0" x2="10500" y2="10000"/>
		<line fill="none" stroke="#000000" stroke-miterlimit="10" x1="10000" y1="0" x2="10000" y2="10000"/>
		<line fill="none" stroke="#000000" stroke-miterlimit="10" x1="9500" y1="0" x2="9500" y2="10000"/>
		<line fill="none" stroke="#000000" stroke-miterlimit="10" x1="9000" y1="0" x2="9000" y2="10000"/>
		<line fill="none" stroke="#000000" stroke-miterlimit="10" x1="8500" y1="0" x2="8500" y2="10000"/>
		<line fill="none" stroke="#000000" stroke-miterlimit="10" x1="8000" y1="0" x2="8000" y2="10000"/>
		<line fill="none" stroke="#000000" stroke-miterlimit="10" x1="7500" y1="0" x2="7500" y2="10000"/>
		<line fill="none" stroke="#000000" stroke-miterlimit="10" x1="7000" y1="0" x2="7000" y2="10000"/>
		<line fill="none" stroke="#000000" stroke-miterlimit="10" x1="6500" y1="0" x2="6500" y2="10000"/>
		<line fill="none" stroke="#000000" stroke-miterlimit="10" x1="6000" y1="0" x2="6000" y2="10000"/>
		<line fill="none" stroke="#000000" stroke-miterlimit="10" x1="5500" y1="0" x2="5500" y2="10000"/>
		<line fill="none" stroke="#000000" stroke-miterlimit="10" x1="5000" y1="0" x2="5000" y2="10000"/>
		<line fill="none" stroke="#000000" stroke-miterlimit="10" x1="4500" y1="0" x2="4500" y2="10000"/>
		<line fill="none" stroke="#000000" stroke-miterlimit="10" x1="4000" y1="0" x2="4000" y2="10000"/>
		<line fill="none" stroke="#000000" stroke-miterlimit="10" x1="3500" y1="0" x2="3500" y2="10000"/>
		<line fill="none" stroke="#000000" stroke-miterlimit="10" x1="3000" y1="0" x2="3000" y2="10000"/>
		<line fill="none" stroke="#000000" stroke-miterlimit="10" x1="2500" y1="0" x2="2500" y2="10000"/>
		<line fill="none" stroke="#000000" stroke-miterlimit="10" x1="2000" y1="0" x2="2000" y2="10000"/>
		<line fill="none" stroke="#000000" stroke-miterlimit="10" x1="1500" y1="0" x2="1500" y2="10000"/>
		<line fill="none" stroke="#000000" stroke-miterlimit="10" x1="1000" y1="0" x2="1000" y2="10000"/>
		<line fill="none" stroke="#000000" stroke-miterlimit="10" x1="500" y1="0" x2="500" y2="10000"/>
	</g>
</g>
<g id="Layer_2">
	<rect fill="#DC2F27" width="15000" height="10000"/>
	<path id="path3374_1_" fill="#FEDC00" d="M4623.2,671.7l187,311.5l-238.6,274.1l354.1-81.5l186.9,311.5l32-361.9l354-81.5
		l-334.3-142.1l31.8-362l-238.5,274.1L4623.2,671.7z"/>
	<path id="path3433_1_" fill="#FEDC00" d="M2500.2,1000l-336.5,1036.5l-1090.2,0l881.8,640.7l-336.7,1036.3l881.9-640.4l881.6,640.3
		l-336.8-1036.1l881.6-641l-1090,0.3L2500.2,1000z"/>
	<path id="path3447_1_" fill="#FEDC00" d="M5780.4,1551.2l51.5,359.5l-326.2,160l357.9,62.3l51.4,359.5l169.9-321.1l357.8,62.2
		L6189.7,1973l169.7-321.2l-326.1,160.1L5780.4,1551.2z"/>
	<path id="path3453_1_" fill="#FEDC00" d="M5176.9,4032.2L4950,4315.9l-340-128.2l199.6,303.5l-226.9,283.6l350.3-96l199.6,303.3
		l16.8-362.7l350.3-96.2L5160,4395.1L5176.9,4032.2z"/>
	<path id="path3475_1_" fill="#FEDC00" d="M5982.6,3000.3l-99.7,349.3l-363.2,13l301.4,202.9l-99.8,349.2l286.1-223.9l301.3,202.7
		l-124.6-341.1l286-224.1l-363.1,13.1L5982.6,3000.3z"/>
</g>
</svg>
