<svg cache-id="0c8f51875fed4587a2f4e8fe3514ec25" id="evXZjFUzkL51" xmlns="http://www.w3.org/2000/svg" xmlns:xlink="http://www.w3.org/1999/xlink" viewBox="0 0 512 512" shape-rendering="geometricPrecision" text-rendering="geometricPrecision"><defs><filter id="evXZjFUzkL522-filter" x="-400%" width="600%" y="-400%" height="600%"><feGaussianBlur id="evXZjFUzkL522-filter-drop-shadow-0-blur" in="SourceAlpha" stdDeviation="3,3"/><feOffset id="evXZjFUzkL522-filter-drop-shadow-0-offset" dx="0" dy="0" result="tmp"/><feFlood id="evXZjFUzkL522-filter-drop-shadow-0-flood" flood-color="rgb(0,0,0)"/><feComposite id="evXZjFUzkL522-filter-drop-shadow-0-composite" operator="in" in2="tmp"/><feMerge id="evXZjFUzkL522-filter-drop-shadow-0-merge"><feMergeNode id="evXZjFUzkL522-filter-drop-shadow-0-merge-node-1"/><feMergeNode id="evXZjFUzkL522-filter-drop-shadow-0-merge-node-2" in="SourceGraphic"/></feMerge></filter><linearGradient id="evXZjFUzkL522-fill" x1="176.789000" y1="129.188000" x2="242.619000" y2="253.686000" spreadMethod="pad" gradientUnits="userSpaceOnUse"><stop id="evXZjFUzkL522-fill-0" offset="0%" stop-color="rgb(249,170,15)"/><stop id="evXZjFUzkL522-fill-1" offset="100%" stop-color="rgb(99,3,228)"/></linearGradient></defs><circle id="evXZjFUzkL52" r="245.500000" transform="matrix(1 0 0 1 257.50000000000000 251.50000000000000)" fill="rgb(132,26,250)" stroke="none" stroke-width="1"/><g id="evXZjFUzkL53" transform="matrix(1 0 0 1 4 6)" opacity="0"><path id="evXZjFUzkL54" d="M435.742000,296.949000C437.695000,273.305000,434.093000,249.613000,423.625000,228.320000C396.582000,173.308000,402.785000,169.316000,401.945000,114.719000C401.945000,103.562000,392.902000,94.523300,381.750000,94.523300C370.593000,94.523300,361.554000,103.562000,361.554000,114.719000C361.554000,121.922000,361.554000,318.551000,361.554000,317.781000C361.554000,320.930000,361.218000,324.004000,360.597000,326.969000L360.597000,356.039000C360.597000,380.535000,340.668000,400.469000,316.172000,400.469000C299.902000,400.469000,243.797000,400.469000,205.621000,400.469000C222.601000,424.086000,245.836000,442.582000,272.800000,453.781000C272.968000,453.847000,273.136000,453.918000,273.304000,453.988000C289.527000,460.844000,301.914000,473.769000,308.437000,489.441000C360.972000,485.961000,408.984000,465.933000,447.289000,434.504000L432.238000,379.211000C430.089000,371.308000,429.332000,363.094000,430,354.933000L435.742000,296.949000Z" fill="rgb(249,207,169)" stroke="none" stroke-width="1"/><path id="evXZjFUzkL55" d="M432.238000,379.206000C431.172000,375.277000,430.449000,371.273000,430.070000,367.234000C391.906000,429.890000,317.812000,458.988000,248.214000,440.894000C255.976000,445.882000,264.199000,450.202000,272.800000,453.777000C272.968000,453.847000,273.136000,453.917000,273.304000,453.988000C289.527000,460.839000,301.914000,473.765000,308.437000,489.441000C360.972000,485.960000,408.984000,465.929000,447.289000,434.499000L432.238000,379.206000Z" fill="rgb(251,188,141)" stroke="none" stroke-width="1"/></g><g id="evXZjFUzkL56" opacity="0"><path id="evXZjFUzkL57" d="M333.109000,40L160.395000,40C143.637000,40,130.004000,53.636700,130.004000,70.394500L130.004000,434.375000C130.004000,451.133000,143.637000,464.770000,160.395000,464.770000L333.109000,464.770000C349.867000,464.770000,363.504000,451.133000,363.504000,434.375000L363.504000,70.394500C363.504000,53.636700,349.867000,40,333.109000,40L333.109000,40Z" transform="matrix(1 0 0 1 4 6)" opacity="0" fill="rgb(61,78,198)" stroke="none" stroke-width="1"/><path id="evXZjFUzkL58" d="M188.523000,62.539100C186.879000,60.093800,185.918000,57.152300,185.918000,53.984400C185.918000,47.765600,189.621000,42.421900,194.934000,40L160.395000,40C143.609000,40,130,53.609400,130,70.394500L130,434.375000C130,451.160000,143.609000,464.766000,160.395000,464.766000L197.113000,464.766000L197.113000,89.175800C197.113000,79.617200,193.859000,70.472700,188.523000,62.539100L188.523000,62.539100Z" transform="matrix(1 0 0 1 4 6)" opacity="0" fill="rgb(43,56,148)" stroke="none" stroke-width="1"/><path id="evXZjFUzkL59" d="M147.598000,231.976000L147.598000,434.375000C147.598000,441.445000,153.328000,447.175000,160.394000,447.175000L333.109000,447.175000C340.176000,447.175000,345.906000,441.445000,345.906000,434.375000C345.906000,427.429000,345.906000,326.039000,345.906000,231.976000L147.598000,231.976000Z" transform="matrix(1 0 0 1 4 6)" fill="rgb(230,247,254)" stroke="none" stroke-width="1"/><path id="evXZjFUzkL510" d="M147.598000,231.976000L147.598000,434.375000C147.598000,441.445000,153.328000,447.175000,160.394000,447.175000L190.668000,447.175000L190.668000,231.976000L147.598000,231.976000Z" transform="matrix(1 0 0 1 4 6)" fill="rgb(213,241,254)" stroke="none" stroke-width="1"/></g><g id="evXZjFUzkL511" opacity="0"><path id="evXZjFUzkL512" d="M217.164000,293.031000C217.164000,304.105000,220.836257,303.195815,195.386500,302.988000C169.936743,302.780185,177.062000,304.105000,177.062000,293.031000C177.062000,281.957000,186.039000,272.976000,197.113000,272.976000C208.187000,272.976000,217.164000,281.957000,217.164000,293.031000L217.164000,293.031000Z" transform="matrix(1 0 0 1 4 151)" fill="rgb(61,78,198)" stroke="none" stroke-width="1"/><path id="evXZjFUzkL513" d="M199.067250,302.175000C188.898298,298.441909,188.690648,285.953986,194.848000,273.113000L194.848000,273.113000C184.840000,274.242000,174.588762,288.099374,177.062000,302.175000" transform="matrix(1 0 0 1 4 151)" fill="rgb(43,56,148)" stroke="none" stroke-width="1"/></g><g id="evXZjFUzkL514" opacity="0"><path id="evXZjFUzkL515" d="M217.164000,293.031000C217.164000,304.105000,208.187000,313.082000,197.113000,313.082000C186.039000,313.082000,177.062000,304.105000,177.062000,293.031000C177.062000,281.957000,186.039000,272.976000,197.113000,272.976000C208.187000,272.976000,217.164000,281.957000,217.164000,293.031000L217.164000,293.031000Z" transform="matrix(1 0 0 1 4 6)" fill="rgb(61,78,198)" stroke="none" stroke-width="1"/><path id="evXZjFUzkL516" d="M194.848000,273.113000C184.840000,274.242000,177.062000,282.722000,177.062000,293.031000C177.062000,304.105000,186.039000,313.082000,197.113000,313.082000C204.019000,313.082000,210.105000,309.589000,213.711000,304.277000C196.422000,306.226000,185.414000,287.007000,194.848000,273.113000L194.848000,273.113000Z" transform="matrix(1 0 0 1 4 6)" fill="rgb(43,56,148)" stroke="none" stroke-width="1"/></g><g id="evXZjFUzkL517" opacity="0"><path id="evXZjFUzkL518" d="M217.164000,367.382000C217.164000,378.456000,208.187000,387.437000,197.113000,387.437000C186.039000,387.437000,177.062000,378.456000,177.062000,367.382000C177.062000,356.308000,186.039000,347.331000,197.113000,347.331000C208.187000,347.331000,217.164000,356.308000,217.164000,367.382000L217.164000,367.382000Z" transform="matrix(1 0 0 1 4 6)" fill="rgb(61,78,198)" stroke="none" stroke-width="1"/><path id="evXZjFUzkL519" d="M194.848000,347.468000C184.840000,348.593000,177.062000,357.078000,177.062000,367.382000C177.062000,378.460000,186.039000,387.437000,197.113000,387.437000C204.019000,387.437000,210.105000,383.945000,213.711000,378.632000C196.527000,380.566000,185.351000,361.453000,194.848000,347.468000Z" transform="matrix(1 0 0 1 4 6)" fill="rgb(43,56,148)" stroke="none" stroke-width="1"/></g><g id="evXZjFUzkL520" opacity="0"><path id="evXZjFUzkL521" d="M333.008000,57.597700L307.340000,57.597700C304.918000,57.597700,302.957000,59.558600,302.957000,61.976600C302.957000,67.785200,298.207000,72.535200,292.402000,72.535200L200.906000,72.535200C195.098000,72.535200,190.348000,67.785200,190.348000,61.976600C190.348000,59.558600,188.387000,57.597700,185.965000,57.597700L160.297000,57.597700C153.226000,57.597700,147.496000,63.328100,147.496000,70.394500L147.496000,233.977000L345.808000,233.977000L345.808000,70.394500C345.808000,63.328100,340.078000,57.597700,333.008000,57.597700L333.008000,57.597700Z" transform="matrix(1 0 0 1 4 6)" fill="rgb(223,223,223)" stroke="none" stroke-width="1"/><path id="evXZjFUzkL522" d="M262.295000,140.096000L249.740000,153.281000L223.584000,125.905000L247.570000,125.905000L248.694000,125.905000L262.295000,140.096000ZM301.045000,125.905000L326.194000,125.905000L287.483000,166.467000L326.194000,207.028000L301.045000,207.028000L262.334000,166.467000L301.045000,125.905000ZM223.584000,207.028000L249.740000,179.652000L262.295000,192.837000L248.733000,207.067000L247.609000,207.067000L223.584000,207.067000L223.584000,207.028000ZM198.435000,207.028000L171.194000,207.028000L171.194000,188.429000L216.183000,188.429000L198.435000,207.028000ZM228.273000,175.747000L171.194000,175.747000L171.194000,157.187000L228.273000,157.187000L237.146000,166.467000L228.273000,175.747000ZM216.183000,144.465000L171.194000,144.465000L171.194000,125.905000L198.435000,125.905000L216.183000,144.465000Z" transform="matrix(1 0 0 1 4 6)" opacity="0" filter="url(#evXZjFUzkL522-filter)" fill="url(#evXZjFUzkL522-fill)" stroke="none" stroke-width="1"/><path id="evXZjFUzkL523" d="M190.668000,64.507800C190.465000,63.695300,190.348000,62.851600,190.348000,61.980500C190.348000,59.558600,188.387000,57.597700,185.965000,57.597700L160.297000,57.597700C153.226000,57.597700,147.496000,63.328100,147.496000,70.394500L147.496000,233.977000L190.668000,233.977000L190.668000,64.507800Z" transform="matrix(1 0 0 1 4 6)" opacity="0.38" fill="rgb(201,201,201)" stroke="none" stroke-width="1"/><path id="evXZjFUzkL524" d="M333.008000,57.597700L307.340000,57.597700C304.918000,57.597700,302.957000,59.558600,302.957000,61.976600C302.957000,67.785200,298.207000,72.535200,292.402000,72.535200L241.937000,72.535200L345.808000,202.738000L345.808000,70.394500C345.808000,63.328100,340.078000,57.597700,333.008000,57.597700L333.008000,57.597700Z" transform="matrix(1 0 0 1 4 6)" opacity="0.33" fill="rgb(240,240,240)" stroke="none" stroke-width="1"/><path id="evXZjFUzkL525" d="M214.406000,117.207000L179.820000,117.207000C175.680000,117.207000,172.320000,113.851000,172.320000,109.707000C172.320000,105.562000,175.680000,102.207000,179.820000,102.207000L214.406000,102.207000C218.547000,102.207000,221.906000,105.562000,221.906000,109.707000C221.906000,113.848000,218.547000,117.207000,214.406000,117.207000Z" transform="matrix(1 0 0 1 4 6)" fill="rgb(255,255,255)" stroke="none" stroke-width="1"/></g><g id="evXZjFUzkL526" opacity="0"><path id="evXZjFUzkL527" d="M279.055000,359.047000L250.586000,359.047000C246.445000,359.047000,243.086000,355.691000,243.086000,351.547000C243.086000,347.402000,246.445000,344.047000,250.586000,344.047000L279.055000,344.047000C283.195000,344.047000,286.555000,347.402000,286.555000,351.547000C286.555000,355.691000,283.195000,359.047000,279.055000,359.047000Z" transform="matrix(1 0 0 1 4 83)" fill="rgb(17,223,239)" stroke="none" stroke-width="1"/><path id="evXZjFUzkL528" d="M279.055000,359.047000L250.586000,359.047000C246.445000,359.047000,243.086000,355.691000,243.086000,351.547000C243.086000,347.402000,246.445000,344.047000,250.586000,344.047000L279.055000,344.047000C283.195000,344.047000,286.555000,347.402000,286.555000,351.547000C286.555000,355.691000,283.195000,359.047000,279.055000,359.047000Z" transform="matrix(1 0 0 1 4 6)" fill="rgb(17,223,239)" stroke="none" stroke-width="1"/><path id="evXZjFUzkL529" d="M307.524000,390.719000L250.586000,390.719000C246.442000,390.719000,243.086000,387.363000,243.086000,383.219000C243.086000,379.078000,246.442000,375.719000,250.586000,375.719000L307.524000,375.719000C311.664000,375.719000,315.024000,379.078000,315.024000,383.219000C315.024000,387.363000,311.664000,390.719000,307.524000,390.719000Z" transform="matrix(1 0 0 1 4 6)" fill="rgb(17,223,239)" stroke="none" stroke-width="1"/><path id="evXZjFUzkL530" d="M279.055000,284.695000L250.586000,284.695000C246.445000,284.695000,243.086000,281.336000,243.086000,277.195000C243.086000,273.051000,246.445000,269.695000,250.586000,269.695000L279.055000,269.695000C283.195000,269.695000,286.555000,273.051000,286.555000,277.195000C286.555000,281.336000,283.195000,284.695000,279.055000,284.695000Z" transform="matrix(1 0 0 1 4 6)" fill="rgb(17,223,239)" stroke="none" stroke-width="1"/><path id="evXZjFUzkL531" d="M307.524000,316.367000L250.586000,316.367000C246.442000,316.367000,243.086000,313.008000,243.086000,308.867000C243.086000,304.723000,246.442000,301.367000,250.586000,301.367000L307.524000,301.367000C311.664000,301.367000,315.024000,304.723000,315.024000,308.867000C315.024000,313.008000,311.664000,316.367000,307.524000,316.367000Z" transform="matrix(1 0 0 1 4 6)" fill="rgb(17,223,239)" stroke="none" stroke-width="1"/></g><g id="evXZjFUzkL532" opacity="0"><g id="evXZjFUzkL533" transform="matrix(1 0 0 1 4 -455)"><path id="evXZjFUzkL534" d="M245,231C283.660000,231,315,199.660000,315,161C315,122.340000,283.660000,91,245,91C206.340000,91,175,122.340000,175,161C175,199.660000,206.340000,231,245,231Z" fill="rgb(96,183,255)" stroke="none" stroke-width="1"/><path id="evXZjFUzkL535" d="M278.086000,99.300700C285.821000,110.561000,290.352000,124.194000,290.352000,138.887000C290.352000,177.547000,259.012000,208.887000,220.352000,208.887000C208.384000,208.887000,197.119000,205.881000,187.266000,200.586000C199.883000,218.953000,221.033000,231,245,231C283.660000,231,315,199.660000,315,161C315,134.308000,300.059000,111.109000,278.086000,99.300700Z" fill="rgb(96,183,255)" stroke="none" stroke-width="1"/><path id="evXZjFUzkL536" d="M245,221.953000C278.664000,221.953000,305.953000,194.664000,305.953000,161C305.953000,127.336000,278.664000,100.047000,245,100.047000C211.336000,100.047000,184.047000,127.336000,184.047000,161C184.047000,194.664000,211.336000,221.953000,245,221.953000Z" fill="rgb(234,246,255)" stroke="none" stroke-width="1"/><path id="evXZjFUzkL537" d="M267.619000,152.237000C268.887000,149.201000,269.191000,145.707000,268.246000,142.244000C266.021000,134.093000,257.729000,129.166000,249.761000,131.260000L248.231000,131.662000L246.912000,126.830000C246.314000,124.641000,244.117000,123.316000,242.005000,123.872000C239.892000,124.427000,238.664000,126.652000,239.261000,128.841000L240.580000,133.673000L232.142000,135.891000L230.823000,131.059000C230.225000,128.869000,228.028000,127.545000,225.916000,128.100000C223.803000,128.655000,222.575000,130.880000,223.172000,133.069000L224.491000,137.901000L213.634000,140.754000C211.521000,141.309000,210.293000,143.534000,210.890000,145.724000C211.488000,147.913000,213.685000,149.238000,215.797000,148.682000L222.018000,147.047000L232.201000,184.357000L225.981000,185.992000C223.868000,186.547000,222.640000,188.772000,223.237000,190.961000C223.835000,193.150000,226.032000,194.474000,228.144000,193.919000L239.002000,191.066000L240.122000,195.170000C240.720000,197.359000,242.917000,198.684000,245.029000,198.129000C247.142000,197.574000,248.370000,195.349000,247.773000,193.160000L246.652000,189.055000L255.091000,186.838000L256.211000,190.942000C256.809000,193.131000,259.006000,194.456000,261.118000,193.901000C263.231000,193.345000,264.459000,191.120000,263.862000,188.931000L262.741000,184.827000L267.556000,183.562000C276.057000,181.328000,281.042000,172.439000,278.670000,163.746000C277.118000,158.062000,272.799000,153.849000,267.619000,152.237000L267.619000,152.237000ZM251.924000,139.188000C255.674000,138.202000,259.564000,140.475000,260.595000,144.254000C261.627000,148.034000,259.415000,151.910000,255.665000,152.895000L242.335000,156.398000L233.410000,158.744000L229.669000,145.036000L251.924000,139.188000ZM265.392000,175.634000L239.852000,182.346000L235.574000,166.672000L244.499000,164.326000L257.829000,160.823000L261.114000,159.960000C265.396000,158.835000,269.840000,161.435000,271.019000,165.756000C272.199000,170.078000,269.674000,174.509000,265.392000,175.634000Z" fill="rgb(96,183,255)" stroke="none" stroke-width="1"/><path id="evXZjFUzkL538" d="M286.715000,116.562000C289.073000,123.574000,290.352000,131.081000,290.352000,138.887000C290.352000,177.547000,259.012000,208.887000,220.352000,208.887000C215.190000,208.887000,210.160000,208.323000,205.315000,207.263000C215.979000,216.419000,229.843000,221.953000,245,221.953000C278.664000,221.953000,305.954000,194.663000,305.954000,161C305.953000,143.475000,298.555000,127.681000,286.715000,116.562000L286.715000,116.562000Z" fill="rgb(216,236,254)" stroke="none" stroke-width="1"/></g><g id="evXZjFUzkL539" transform="matrix(1 0 0 1 4 -455)"><path id="evXZjFUzkL540" d="M245,231C283.660000,231,315,199.660000,315,161C315,122.340000,283.660000,91,245,91C206.340000,91,175,122.340000,175,161C175,199.660000,206.340000,231,245,231Z" fill="rgb(138,201,254)" stroke="none" stroke-width="1"/><path id="evXZjFUzkL541" d="M274.281000,97.404700C282.104000,108.704000,286.690000,122.414000,286.690000,137.197000C286.690000,175.857000,255.350000,207.197000,216.690000,207.197000C206.235000,207.197000,196.318000,204.901000,187.409000,200.792000C200.043000,219.043000,221.123000,231,245,231C283.660000,231,315,199.660000,315,161C315,132.795000,298.317000,108.490000,274.281000,97.404700L274.281000,97.404700Z" fill="rgb(96,183,255)" stroke="none" stroke-width="1"/><path id="evXZjFUzkL542" d="M245,221.953000C278.664000,221.953000,305.953000,194.664000,305.953000,161C305.953000,127.336000,278.664000,100.047000,245,100.047000C211.336000,100.047000,184.047000,127.336000,184.047000,161C184.047000,194.664000,211.336000,221.953000,245,221.953000Z" fill="rgb(234,246,255)" stroke="none" stroke-width="1"/><path id="evXZjFUzkL543" d="M282.321000,112.809000C285.144000,120.403000,286.690000,128.619000,286.690000,137.197000C286.690000,175.857000,255.350000,207.197000,216.690000,207.197000C212.329000,207.197000,208.063000,206.795000,203.923000,206.032000C214.758000,215.921000,229.174000,221.953000,245,221.953000C278.664000,221.953000,305.953000,194.663000,305.953000,161C305.953000,141.398000,296.698000,123.959000,282.321000,112.809000L282.321000,112.809000Z" fill="rgb(216,236,254)" stroke="none" stroke-width="1"/><path id="evXZjFUzkL544" d="M270.703000,136.391000C270.703000,136.391000,245.286000,136.391000,245.190000,136.391000C238.319000,136.772000,236.947000,143.258000,236.947000,143.258000C236.947000,143.258000,236.387000,152.250000,234.984000,152.225000C233.582000,152.199000,229.097000,152.552000,225.564000,152.606000C222.031000,152.660000,221.621000,159.092000,223.798000,159.092000C225.974000,159.092000,231.928000,159.092000,233.610000,159.092000C235.293000,159.092000,234.609000,160.714000,233.316000,160.714000C232.023000,160.714000,225.859000,160.714000,223.503000,160.714000C221.147000,160.714000,218.887000,166.914000,222.031000,167.105000C225.176000,167.295000,227.474000,167.200000,231.452000,167.295000C235.430000,167.391000,228.801000,179.759000,227.330000,185.419000C225.859000,191.078000,244.727000,190.805000,245.190000,185.609000C245.653000,180.414000,246.641000,167.391000,249.311000,167.295000C251.982000,167.200000,255.671000,167.486000,259.222000,167.391000C262.773000,167.295000,263.320000,161.151000,260.105000,161.095000C256.890000,161.040000,251.563000,160.714000,250.587000,160.714000C249.611000,160.714000,249.311000,159.092000,250.881000,159.092000C252.451000,159.092000,258.008000,159.283000,260.596000,159.188000C263.184000,159.092000,264.354000,153.083000,261.816000,153.083000C258.852000,153.083000,256.895000,153.083000,252.451000,153.083000C248.008000,153.083000,250.195000,142.209000,254.512000,142.209000C258.828000,142.209000,269.722000,143.068000,269.722000,143.068000C269.722000,143.068000,271.934000,143.204000,272.481000,140.219000C273.074000,136.980000,270.703000,136.391000,270.703000,136.391000Z" fill="rgb(96,183,255)" stroke="none" stroke-width="1"/></g><g id="evXZjFUzkL545" transform="matrix(1 0 0 1 4 -453)"><path id="evXZjFUzkL546" d="M243,229C281.660000,229,313,197.660000,313,159C313,120.340000,281.660000,89,243,89C204.340000,89,173,120.340000,173,159C173,197.660000,204.340000,229,243,229Z" fill="rgb(138,201,254)" stroke="none" stroke-width="1"/><path id="evXZjFUzkL547" d="M273.326000,95.892800C281.542000,107.364000,286.380000,121.419000,286.380000,136.606000C286.380000,175.266000,255.040000,206.606000,216.380000,206.606000C205.515000,206.606000,195.229000,204.130000,186.054000,199.713000C198.753000,217.444000,219.526000,229,243,229C281.660000,229,313,197.660000,313,159C313,131.205000,296.800000,107.194000,273.326000,95.892800Z" fill="rgb(96,183,255)" stroke="none" stroke-width="1"/><path id="evXZjFUzkL548" d="M243,219.953000C276.664000,219.953000,303.953000,192.664000,303.953000,159C303.953000,125.336000,276.664000,98.046700,243,98.046700C209.336000,98.046700,182.047000,125.336000,182.047000,159C182.047000,192.664000,209.336000,219.953000,243,219.953000Z" fill="rgb(234,246,255)" stroke="none" stroke-width="1"/><path id="evXZjFUzkL549" d="M281.983000,112.144000C284.824000,119.759000,286.380000,128,286.380000,136.606000C286.380000,175.266000,255.040000,206.606000,216.380000,206.606000C211.979000,206.606000,207.675000,206.195000,203.499000,205.418000C214.138000,214.481000,227.929000,219.953000,243,219.953000C276.664000,219.953000,303.953000,192.663000,303.953000,159C303.953000,140.164000,295.407000,123.325000,281.983000,112.144000L281.983000,112.144000Z" fill="rgb(216,236,254)" stroke="none" stroke-width="1"/><path id="evXZjFUzkL550" d="M242.180000,122.426000L222.521000,154.130000C222.283000,154.513000,222.399000,155.015000,222.780000,155.256000L242.835000,167.922000C243.106000,168.093000,243.451000,168.091000,243.719000,167.917000L263.230000,155.261000C263.606000,155.017000,263.717000,154.517000,263.479000,154.137000L243.572000,122.422000C243.249000,121.908000,242.500000,121.910000,242.180000,122.426000L242.180000,122.426000Z" fill="rgb(96,183,255)" stroke="none" stroke-width="1"/><path id="evXZjFUzkL551" d="M243.558000,178.891000L260.790000,168.173000C261.537000,167.709000,262.392000,168.586000,261.908000,169.321000L244.546000,195.694000C244.229000,196.175000,243.529000,196.189000,243.194000,195.721000L224.406000,169.506000C223.885000,168.778000,224.740000,167.860000,225.502000,168.329000L242.695000,178.893000C242.960000,179.056000,243.294000,179.055000,243.558000,178.891000L243.558000,178.891000Z" fill="rgb(96,183,255)" stroke="none" stroke-width="1"/></g></g><path id="evXZjFUzkL552" d="M316.172000,447.175000C316.172000,463.933000,332.930000,464.766000,316.172000,464.766000C316.172000,464.766000,174.666450,464.770000,174.666450,464.770000C179.235335,466.274212,168.478579,464.424379,173.356785,447.872379" transform="matrix(1 0 0 1 4 6)" opacity="0" fill="rgb(61,78,198)" stroke="none" stroke-width="1"/><path id="evXZjFUzkL553" d="" transform="matrix(1 0 0 1 4 6)" opacity="0" fill="rgb(61,78,198)" stroke="none" stroke-width="1"/><g id="evXZjFUzkL554" transform="matrix(1 0 0 1 4 6)" opacity="0"><path id="evXZjFUzkL555" d="M130.609000,95.230300L124.457000,89.531100C114.977000,80.742000,100.027000,81.312300,91.242100,90.796700C82.457000,100.277000,83.027300,115.226000,92.507800,124.012000L130.609000,159.316000L130.609000,95.230300Z" fill="rgb(249,207,169)" stroke="none" stroke-width="1"/><path id="evXZjFUzkL556" d="M164.816000,219.191000C157.086000,227.531000,144.055000,228.031000,135.711000,220.300000L101.215000,188.336000C92.871000,180.605000,92.374900,167.574000,100.105000,159.230000C107.836000,150.886000,120.867000,150.390000,129.211000,158.121000L163.707000,190.086000C172.047000,197.816000,172.547000,210.847000,164.816000,219.191000Z" fill="rgb(249,207,169)" stroke="none" stroke-width="1"/><path id="evXZjFUzkL557" d="M163.707000,190.086000L147.297000,174.883000C149.457000,182.707000,147.664000,191.425000,141.746000,197.812000C135.824000,204.203000,127.266000,206.652000,119.305000,205.097000L135.711000,220.300000C144.055000,228.031000,157.082000,227.531000,164.816000,219.191000C172.547000,210.847000,172.047000,197.816000,163.707000,190.086000Z" fill="rgb(251,188,141)" stroke="none" stroke-width="1"/><path id="evXZjFUzkL558" d="M164.816000,275.363000C157.086000,283.707000,144.055000,284.203000,135.711000,276.472000L101.215000,244.507000C92.871000,236.777000,92.374900,223.746000,100.105000,215.406000C107.836000,207.062000,120.867000,206.566000,129.211000,214.296000L163.707000,246.261000C172.047000,253.992000,172.547000,267.019000,164.816000,275.363000Z" fill="rgb(249,207,169)" stroke="none" stroke-width="1"/><path id="evXZjFUzkL559" d="M164.816000,331.539000C157.086000,339.882000,144.055000,340.378000,135.711000,332.648000L101.215000,300.683000C92.871000,292.953000,92.374900,279.921000,100.105000,271.578000C107.836000,263.234000,120.867000,262.738000,129.211000,270.468000L163.707000,302.433000C172.047000,310.164000,172.547000,323.195000,164.816000,331.539000L164.816000,331.539000Z" fill="rgb(249,207,169)" stroke="none" stroke-width="1"/><path id="evXZjFUzkL560" d="M163.707000,246.261000L147.297000,231.058000C149.457000,238.878000,147.664000,247.597000,141.746000,253.988000C135.824000,260.378000,127.266000,262.828000,119.305000,261.273000L135.711000,276.472000C144.055000,284.203000,157.086000,283.707000,164.816000,275.363000C172.547000,267.019000,172.047000,253.992000,163.707000,246.261000Z" fill="rgb(251,188,141)" stroke="none" stroke-width="1"/><path id="evXZjFUzkL561" d="M163.707000,302.433000L147.297000,287.230000C149.457000,295.054000,147.664000,303.773000,141.746000,310.160000C135.824000,316.550000,127.266000,319.003000,119.305000,317.445000L135.711000,332.648000C144.055000,340.378000,157.086000,339.882000,164.816000,331.539000C172.547000,323.195000,172.047000,310.164000,163.707000,302.433000Z" fill="rgb(251,188,141)" stroke="none" stroke-width="1"/></g><g id="evXZjFUzkL562" transform="matrix(0.75000000000000 0 0 0.75000000000000 60.62562561035156 68.75299960205098)"><path id="evXZjFUzkL563" d="M66,53.834400L266.913000,0.000005L387.005000,448.190000L186.092000,502.024000L66,53.834400ZM324.631000,431.774000L318.419000,408.592000L341.601000,402.380000L250.497000,62.374100L227.315000,68.585700L221.103000,45.403500L128.374000,70.250100L134.586000,93.432300L111.403000,99.644000L202.508000,439.650000L225.690000,433.438000L231.902000,456.620000L324.631000,431.774000Z" clip-rule="evenodd" fill="rgb(51,142,102)" fill-rule="evenodd" stroke="none" stroke-width="1"/><path id="evXZjFUzkL564" d="M318.419000,408.592000L324.631000,431.774000L231.902000,456.620000L225.690000,433.438000L202.508000,439.650000L111.403000,99.644000L134.586000,93.432300L128.374000,70.250100L221.103000,45.403500L227.315000,68.585700L250.497000,62.374100L341.601000,402.380000L318.419000,408.592000ZM265.139000,240.659000C270.857000,261.998000,258.194000,283.931000,236.855000,289.649000C215.516000,295.367000,193.583000,282.703000,187.865000,261.365000C182.148000,240.026000,194.811000,218.093000,216.150000,212.375000C237.488000,206.657000,259.422000,219.321000,265.139000,240.659000Z" clip-rule="evenodd" fill="rgb(62,177,123)" fill-rule="evenodd" stroke="none" stroke-width="1"/><path id="evXZjFUzkL565" d="M236.855000,289.649000C258.194000,283.931000,270.857000,261.998000,265.139000,240.659000C259.422000,219.321000,237.488000,206.657000,216.150000,212.375000C194.811000,218.093000,182.148000,240.026000,187.865000,261.365000C193.583000,282.703000,215.516000,295.367000,236.855000,289.649000Z" fill="rgb(51,142,102)" stroke="none" stroke-width="1"/></g><g id="evXZjFUzkL566" transform="matrix(0.75000000000000 0 0 0.75000000000000 46.76662445068359 83.97949981689453)"><path id="evXZjFUzkL567" d="M-35,163L145.133000,59L377.133000,460.836000L197,564.836000L-35,163ZM312.636000,461.123000L300.636000,440.338000L321.420000,428.338000L145.420000,123.497000L124.636000,135.497000L112.636000,114.713000L29.497400,162.713000L41.497400,183.497000L20.712800,195.497000L196.713000,500.338000L217.497000,488.338000L229.497000,509.123000L312.636000,461.123000Z" clip-rule="evenodd" fill="rgb(52,147,105)" fill-rule="evenodd" stroke="none" stroke-width="1"/><path id="evXZjFUzkL568" d="M300.636000,440.338000L312.636000,461.123000L229.497000,509.123000L217.497000,488.338000L196.713000,500.338000L20.712800,195.497000L41.497400,183.497000L29.497400,162.713000L112.636000,114.713000L124.636000,135.497000L145.420000,123.497000L321.420000,428.338000L300.636000,440.338000ZM205.708000,291.918000C216.753000,311.050000,210.198000,335.513000,191.067000,346.559000C171.935000,357.605000,147.471000,351.050000,136.426000,331.918000C125.380000,312.786000,131.935000,288.323000,151.067000,277.277000C170.198000,266.231000,194.662000,272.786000,205.708000,291.918000Z" clip-rule="evenodd" fill="rgb(65,186,129)" fill-rule="evenodd" stroke="none" stroke-width="1"/><path id="evXZjFUzkL569" d="M191.067000,346.559000C210.198000,335.513000,216.753000,311.050000,205.708000,291.918000C194.662000,272.786000,170.198000,266.231000,151.067000,277.277000C131.935000,288.323000,125.380000,312.786000,136.426000,331.918000C147.471000,351.050000,171.935000,357.605000,191.067000,346.559000Z" fill="rgb(52,147,105)" stroke="none" stroke-width="1"/></g><g id="evXZjFUzkL570" transform="matrix(0.75000000000000 0 0 0.75000000000000 74.50000000000000 70.50000000000000)"><path id="evXZjFUzkL571" d="M178,26L386,26L386,490L178,490L178,26ZM330,458L330,434L354,434L354,82L330,82L330,58L234,58L234,82L210,82L210,434L234,434L234,458L330,458Z" transform="matrix(1 0 0 1 25 0)" clip-rule="evenodd" fill="rgb(55,154,110)" fill-rule="evenodd" stroke="none" stroke-width="1"/><path id="evXZjFUzkL572" d="M330,434L330,458L234,458L234,434L210,434L210,82L234,82L234,58L330,58L330,82L354,82L354,434L330,434ZM322,258C322,280.091000,304.091000,298,282,298C259.909000,298,242,280.091000,242,258C242,235.909000,259.909000,218,282,218C304.091000,218,322,235.909000,322,258Z" transform="matrix(1 0 0 1 25 0)" clip-rule="evenodd" fill="rgb(68,192,134)" fill-rule="evenodd" stroke="none" stroke-width="1"/><path id="evXZjFUzkL573" d="M282,298C304.091000,298,322,280.091000,322,258C322,235.909000,304.091000,218,282,218C259.909000,218,242,235.909000,242,258C242,280.091000,259.909000,298,282,298Z" transform="matrix(1 0 0 1 25 0)" fill="rgb(55,154,110)" stroke="none" stroke-width="1"/></g><g id="evXZjFUzkL574" transform="matrix(0.75000000000000 0 0 0.75000000000000 59.97466850280762 88.60427093505859)"><path id="evXZjFUzkL575" d="M238.390000,141.319000L76.699100,210.833000C68.581000,214.324000,64.829300,223.734000,68.319500,231.852000L188.389000,511.136000C191.879000,519.254000,201.290000,523.005000,209.408000,519.515000L371.098000,450.001000C379.216000,446.511000,382.968000,437.101000,379.478000,428.983000L259.408000,149.699000C255.918000,141.581000,246.508000,137.829000,238.390000,141.319000Z" fill="rgb(231,68,68)" stroke="none" stroke-width="1"/><path id="evXZjFUzkL576" d="M164.894000,172.917000L208.991000,153.958000L341.700000,462.640000L297.603000,481.598000L164.894000,172.917000Z" fill="rgb(106,112,115)" stroke="none" stroke-width="1"/><path id="evXZjFUzkL577" d="M118.736000,227.593000L148.135000,214.954000L208.169000,354.596000L178.771000,367.235000L118.736000,227.593000Z" fill="rgb(217,219,221)" stroke="none" stroke-width="1"/></g><g id="evXZjFUzkL578" transform="matrix(0.75000000000000 0 0 0.75000000000000 89.24996948242188 82.53987503051758)"><path id="evXZjFUzkL579" d="M450,298L450,490L394,490C391.316000,490,388.647000,489.865000,386,489.599000C386,489.599000,435.500000,482.500000,435.500000,425.800000C435.500000,369.099000,386,362,386,362L386,170L446.235000,282.941000C448.707000,287.576000,450,292.747000,450,298Z" transform="matrix(1 0 0 1 5.33333333333326 7.99999999999989)" fill="rgb(245,203,170)" stroke="none" stroke-width="1"/><path id="evXZjFUzkL580" d="M321.225000,411.084425C321.225000,432.301425,329.654000,452.650425,344.656000,467.653425C357.762000,480.758425,374.946000,488.847425,393.225000,490.683425C393.225000,490.683425,442.725000,483.584425,442.725000,426.884425C442.725000,370.183425,393.225000,363.084425,393.225000,363.084425L369.225000,363.084425L322.515000,298.449425C317.764000,291.417425,310.413000,286.560425,302.081000,284.947425C293.749000,283.334425,285.117000,285.098425,278.085000,289.849425C271.053000,294.600425,266.196000,301.951425,264.583000,310.283425C262.970000,318.615425,264.734000,327.247425,269.485000,334.279425L321.385000,411.084425L321.225000,411.084425Z" transform="matrix(1 0 0 1 5.33333333333326 7.99999999999989)" clip-rule="evenodd" fill="rgb(245,203,170)" fill-rule="evenodd" stroke="none" stroke-width="1"/></g><g id="evXZjFUzkL581" transform="matrix(0.75000000000000 0 0 0.75000000000000 82.57729007886803 64.50000000000000)" opacity="0"><path id="evXZjFUzkL582" d="M178,26L386,26L386,490L178,490L178,26ZM330,458L330,434L354,434L354,82L330,82L330,58L234,58L234,82L210,82L210,434L234,434L234,458L330,458Z" transform="matrix(1 0 0 1 5.33333333333326 7.99999999999989)" clip-rule="evenodd" fill="rgb(55,154,110)" fill-rule="evenodd" stroke="none" stroke-width="1"/><path id="evXZjFUzkL583" d="M328.383197,434.033470L328.383197,458.033470L232.383197,458.033470L232.383197,434.033470L208.383197,434.033470L208.383197,82.033470L232.383197,82.033470L232.383197,58.033470L328.383197,58.033470L328.383197,82.033470L352.383197,82.033470L352.383197,434.033470L328.383197,434.033470ZM320.383197,258.033470C320.383197,280.124470,302.474197,298.033470,280.383197,298.033470C258.292197,298.033470,240.383197,280.124470,240.383197,258.033470C240.383197,235.942470,258.292197,218.033470,280.383197,218.033470C302.474197,218.033470,320.383197,235.942470,320.383197,258.033470Z" transform="matrix(1 0 0 1 5.33333333333326 7.99999999999989)" clip-rule="evenodd" fill="rgb(68,192,134)" fill-rule="evenodd" stroke="none" stroke-width="1"/><path id="evXZjFUzkL584" d="M282,298C304.091000,298,322,280.091000,322,258C322,235.909000,304.091000,218,282,218C259.909000,218,242,235.909000,242,258C242,280.091000,259.909000,298,282,298Z" transform="matrix(1 0 0 1 5.33333333333326 7.99999999999989)" fill="rgb(55,154,110)" stroke="none" stroke-width="1"/></g><script><![CDATA[!function(t,n){"object"==typeof exports&&"undefined"!=typeof module?module.exports=n():"function"==typeof define&&define.amd?define(n):(t="undefined"!=typeof globalThis?globalThis:t||self).__SVGATOR_PLAYER__=n()}(this,(function(){"use strict";function t(n){return(t="function"==typeof Symbol&&"symbol"==typeof Symbol.iterator?function(t){return typeof t}:function(t){return t&&"function"==typeof Symbol&&t.constructor===Symbol&&t!==Symbol.prototype?"symbol":typeof t})(n)}function n(t,n){if(!(t instanceof n))throw new TypeError("Cannot call a class as a function")}function r(t,n){for(var r=0;r<n.length;r++){var e=n[r];e.enumerable=e.enumerable||!1,e.configurable=!0,"value"in e&&(e.writable=!0),Object.defineProperty(t,e.key,e)}}function e(t,n,e){return n&&r(t.prototype,n),e&&r(t,e),t}function i(t){return(i=Object.setPrototypeOf?Object.getPrototypeOf:function(t){return t.__proto__||Object.getPrototypeOf(t)})(t)}function o(t,n){return(o=Object.setPrototypeOf||function(t,n){return t.__proto__=n,t})(t,n)}function u(t,n){return!n||"object"!=typeof n&&"function"!=typeof n?function(t){if(void 0===t)throw new ReferenceError("this hasn't been initialised - super() hasn't been called");return t}(t):n}function a(t){var n=function(){if("undefined"==typeof Reflect||!Reflect.construct)return!1;if(Reflect.construct.sham)return!1;if("function"==typeof Proxy)return!0;try{return Boolean.prototype.valueOf.call(Reflect.construct(Boolean,[],(function(){}))),!0}catch(t){return!1}}();return function(){var r,e=i(t);if(n){var o=i(this).constructor;r=Reflect.construct(e,arguments,o)}else r=e.apply(this,arguments);return u(this,r)}}function l(t,n,r){return(l="undefined"!=typeof Reflect&&Reflect.get?Reflect.get:function(t,n,r){var e=function(t,n){for(;!Object.prototype.hasOwnProperty.call(t,n)&&null!==(t=i(t)););return t}(t,n);if(e){var o=Object.getOwnPropertyDescriptor(e,n);return o.get?o.get.call(r):o.value}})(t,n,r||t)}var f=Math.abs;function s(t){return t}function c(t,n,r){var e=1-r;return 3*r*e*(t*e+n*r)+r*r*r}function h(){var t=arguments.length>0&&void 0!==arguments[0]?arguments[0]:0,n=arguments.length>1&&void 0!==arguments[1]?arguments[1]:0,r=arguments.length>2&&void 0!==arguments[2]?arguments[2]:1,e=arguments.length>3&&void 0!==arguments[3]?arguments[3]:1;return t<0||t>1||r<0||r>1?null:f(t-n)<=1e-5&&f(r-e)<=1e-5?s:function(i){if(i<=0)return t>0?i*n/t:0===n&&r>0?i*e/r:0;if(i>=1)return r<1?1+(i-1)*(e-1)/(r-1):1===r&&t<1?1+(i-1)*(n-1)/(t-1):1;for(var o,u=0,a=1;u<a;){var l=c(t,r,o=(u+a)/2);if(f(i-l)<1e-5)break;l<i?u=o:a=o}return c(n,e,o)}}function v(){return 1}function y(t){return 1===t?1:0}function d(){var t=arguments.length>0&&void 0!==arguments[0]?arguments[0]:1,n=arguments.length>1&&void 0!==arguments[1]?arguments[1]:0;if(1===t){if(0===n)return y;if(1===n)return v}var r=1/t;return function(t){return t>=1?1:(t+=n*r)-t%r}}function g(t){var n=arguments.length>1&&void 0!==arguments[1]?arguments[1]:2;if(Number.isInteger(t))return t;var r=Math.pow(10,n);return Math.round(t*r)/r}var p=Math.PI/180;function m(t,n,r){return t>=.5?r:n}function b(t,n,r){return 0===t||n===r?n:t*(r-n)+n}function w(t,n,r){var e=b(t,n,r);return e<=0?0:e}function x(t,n,r){return 0===t?n:1===t?r:{x:b(t,n.x,r.x),y:b(t,n.y,r.y)}}function k(t,n,r){var e=function(t,n,r){return Math.round(b(t,n,r))}(t,n,r);return e<=0?0:e>=255?255:e}function A(t,n,r){return 0===t?n:1===t?r:{r:k(t,n.r,r.r),g:k(t,n.g,r.g),b:k(t,n.b,r.b),a:b(t,null==n.a?1:n.a,null==r.a?1:r.a)}}function _(t,n,r){if(0===t)return n;if(1===t)return r;var e=n.length;if(e!==r.length)return m(t,n,r);for(var i=[],o=0;o<e;o++)i.push(A(t,n[o],r[o]));return i}function S(t,n){for(var r=[],e=0;e<t;e++)r.push(n);return r}function O(t,n){if(--n<=0)return t;var r=(t=Object.assign([],t)).length;do{for(var e=0;e<r;e++)t.push(t[e])}while(--n>0);return t}var M,j=function(){function t(r){n(this,t),this.list=r,this.length=r.length}return e(t,[{key:"setAttribute",value:function(t,n){for(var r=this.list,e=0;e<this.length;e++)r[e].setAttribute(t,n)}},{key:"removeAttribute",value:function(t){for(var n=this.list,r=0;r<this.length;r++)n[r].removeAttribute(t)}},{key:"style",value:function(t,n){for(var r=this.list,e=0;e<this.length;e++)r[e].style[t]=n}}]),t}(),F=/-./g,P=function(t,n){return n.toUpperCase()};function B(t){return"function"==typeof t?t:m}function I(t){return t?"function"==typeof t?t:Array.isArray(t)?function(t){var n=arguments.length>1&&void 0!==arguments[1]?arguments[1]:s;if(!Array.isArray(t))return n;switch(t.length){case 1:return d(t[0])||n;case 2:return d(t[0],t[1])||n;case 4:return h(t[0],t[1],t[2],t[3])||n}return n}(t,null):function(t,n){var r=arguments.length>2&&void 0!==arguments[2]?arguments[2]:s;switch(t){case"linear":return s;case"steps":return d(n.steps||1,n.jump||0)||r;case"bezier":case"cubic-bezier":return h(n.x1||0,n.y1||0,n.x2||0,n.y2||0)||r}return r}(t.type,t.value,null):null}function R(t,n,r){var e=arguments.length>3&&void 0!==arguments[3]&&arguments[3],i=n.length-1;if(t<=n[0].t)return e?[0,0,n[0].v]:n[0].v;if(t>=n[i].t)return e?[i,1,n[i].v]:n[i].v;var o,u=n[0],a=null;for(o=1;o<=i;o++){if(!(t>n[o].t)){a=n[o];break}u=n[o]}return null==a?e?[i,1,n[i].v]:n[i].v:u.t===a.t?e?[o,1,a.v]:a.v:(t=(t-u.t)/(a.t-u.t),u.e&&(t=u.e(t)),e?[o,t,r(t,u.v,a.v)]:r(t,u.v,a.v))}function q(t,n){var r=arguments.length>2&&void 0!==arguments[2]?arguments[2]:null;return t&&t.length?"function"!=typeof n?null:("function"!=typeof r&&(r=null),function(e){var i=R(e,t,n);return null!=i&&r&&(i=r(i)),i}):null}function E(t,n){return t.t-n.t}function T(n,r,e,i,o){var u,a="@"===e[0],l="#"===e[0],f=M[e],s=m;switch(a?(u=e.substr(1),e=u.replace(F,P)):l&&(e=e.substr(1)),t(f)){case"function":if(s=f(i,o,R,I,e,a,r,n),l)return s;break;case"string":s=q(i,B(f));break;case"object":if((s=q(i,B(f.i),f.f))&&"function"==typeof f.u)return f.u(r,s,e,a,n)}return s?function(t,n,r){var e=arguments.length>3&&void 0!==arguments[3]&&arguments[3];if(e)return t instanceof j?function(e){return t.style(n,r(e))}:function(e){return t.style[n]=r(e)};if(Array.isArray(n)){var i=n.length;return function(e){var o=r(e);if(null==o)for(var u=0;u<i;u++)t[u].removeAttribute(n);else for(var a=0;a<i;a++)t[a].setAttribute(n,o)}}return function(e){var i=r(e);null==i?t.removeAttribute(n):t.setAttribute(n,i)}}(r,e,s,a):null}function N(n,r,e,i){if(!i||"object"!==t(i))return null;var o=null,u=null;return Array.isArray(i)?u=function(t){if(!t||!t.length)return null;for(var n=0;n<t.length;n++)t[n].e&&(t[n].e=I(t[n].e));return t.sort(E)}(i):(u=i.keys,o=i.data||null),u?T(n,r,e,u,o):null}function C(t,n,r){if(!r)return null;var e=[];for(var i in r)if(r.hasOwnProperty(i)){var o=N(t,n,i,r[i]);o&&e.push(o)}return e.length?e:null}function z(t,n){if(!n.duration||n.duration<0)return null;var r=function(t,n){if(!n)return null;var r=[];if(Array.isArray(n))for(var e=n.length,i=0;i<e;i++){var o=n[i];if(2===o.length){var u=null;if("string"==typeof o[0])u=t.getElementById(o[0]);else if(Array.isArray(o[0])){u=[];for(var a=0;a<o[0].length;a++)if("string"==typeof o[0][a]){var l=t.getElementById(o[0][a]);l&&u.push(l)}u=u.length?1===u.length?u[0]:new j(u):null}if(u){var f=C(t,u,o[1]);f&&(r=r.concat(f))}}}else for(var s in n)if(n.hasOwnProperty(s)){var c=t.getElementById(s);if(c){var h=C(t,c,n[s]);h&&(r=r.concat(h))}}return r.length?r:null}(t,n.elements);return r?function(t,n){var r=arguments.length>2&&void 0!==arguments[2]?arguments[2]:1/0,e=arguments.length>3&&void 0!==arguments[3]?arguments[3]:1,i=arguments.length>4&&void 0!==arguments[4]&&arguments[4],o=arguments.length>5&&void 0!==arguments[5]?arguments[5]:1,u=t.length,a=e>0?n:0;i&&r%2==0&&(a=n-a);var l=null;return function(f,s){var c=f%n,h=1+(f-c)/n;s*=e,i&&h%2==0&&(s=-s);var v=!1;if(h>r)c=a,v=!0,-1===o&&(c=e>0?0:n);else if(s<0&&(c=n-c),c===l)return!1;l=c;for(var y=0;y<u;y++)t[y](c);return v}}(r,n.duration,n.iterations||1/0,n.direction||1,!!n.alternate,n.fill||1):null}var L=function(){function t(r,e){var i=arguments.length>2&&void 0!==arguments[2]?arguments[2]:{};n(this,t),this._id=0,this._running=!1,this._rollingBack=!1,this._animations=r,this.duration=e.duration,this.alternate=e.alternate,this.fill=e.fill,this.iterations=e.iterations,this.direction=i.direction||1,this.speed=i.speed||1,this.fps=i.fps||100,this.offset=i.offset||0,this.rollbackStartOffset=0}return e(t,[{key:"_rollback",value:function(){var t=this,n=1/0,r=null;this.rollbackStartOffset=this.offset,this._rollingBack||(this._rollingBack=!0,this._running=!0);this._id=window.requestAnimationFrame((function e(i){if(t._rollingBack){null==r&&(r=i);var o=i-r,u=t.rollbackStartOffset-o,a=Math.round(u*t.speed);if(a>t.duration&&n!=1/0){var l=!!t.alternate&&a/t.duration%2>1,f=a%t.duration;a=(f+=l?t.duration:0)||t.duration}var s=t.fps?1e3/t.fps:0,c=Math.max(0,a);if(c<n-s){t.offset=c,n=c;for(var h=t._animations,v=h.length,y=0;y<v;y++)h[y](c,t.direction)}var d=!1;if(t.iterations>0&&-1===t.fill){var g=t.iterations*t.duration,p=g==a;a=p?0:a,t.offset=p?0:t.offset,d=a>g}a>0&&t.offset>=a&&!d?t._id=window.requestAnimationFrame(e):t.stop()}}))}},{key:"_start",value:function(){var t=this,n=arguments.length>0&&void 0!==arguments[0]?arguments[0]:0,r=-1/0,e=null,i={},o=function o(u){t._running=!0,null==e&&(e=u);var a=Math.round((u-e+n)*t.speed),l=t.fps?1e3/t.fps:0;if(a>r+l&&!t._rollingBack){t.offset=a,r=a;for(var f=t._animations,s=f.length,c=0,h=0;h<s;h++)i[h]?c++:(i[h]=f[h](a,t.direction),i[h]&&c++);if(c===s)return void t._stop()}t._id=window.requestAnimationFrame(o)};this._id=window.requestAnimationFrame(o)}},{key:"_stop",value:function(){this._id&&window.cancelAnimationFrame(this._id),this._running=!1,this._rollingBack=!1}},{key:"play",value:function(){!this._rollingBack&&this._running||(this._rollingBack=!1,this.rollbackStartOffset>this.duration&&(this.offset=this.rollbackStartOffset-(this.rollbackStartOffset-this.offset)%this.duration,this.rollbackStartOffset=0),this._start(this.offset))}},{key:"stop",value:function(){this._stop(),this.offset=0,this.rollbackStartOffset=0;var t=this.direction,n=this._animations;window.requestAnimationFrame((function(){for(var r=0;r<n.length;r++)n[r](0,t)}))}},{key:"reachedToEnd",value:function(){return this.iterations>0&&this.offset>=this.iterations*this.duration}},{key:"restart",value:function(){this._stop(),this.offset=0,this._start()}},{key:"pause",value:function(){this._stop()}},{key:"reverse",value:function(){this.direction=-this.direction}}],[{key:"build",value:function(n,r){return(n=function(t,n){if(M=n,!t||!t.root||!Array.isArray(t.animations))return null;for(var r=document.getElementsByTagName("svg"),e=!1,i=0;i<r.length;i++)if(r[i].id===t.root&&!r[i].svgatorAnimation){(e=r[i]).svgatorAnimation=!0;break}if(!e)return null;var o=t.animations.map((function(t){return z(e,t)})).filter((function(t){return!!t}));return o.length?{element:e,animations:o,animationSettings:t.animationSettings,options:t.options||void 0}:null}(n,r))?{el:n.element,options:n.options||{},player:new t(n.animations,n.animationSettings,n.options)}:null}}]),t}();!function(){for(var t=0,n=["ms","moz","webkit","o"],r=0;r<n.length&&!window.requestAnimationFrame;++r)window.requestAnimationFrame=window[n[r]+"RequestAnimationFrame"],window.cancelAnimationFrame=window[n[r]+"CancelAnimationFrame"]||window[n[r]+"CancelRequestAnimationFrame"];window.requestAnimationFrame||(window.requestAnimationFrame=function(n){var r=Date.now(),e=Math.max(0,16-(r-t)),i=window.setTimeout((function(){n(r+e)}),e);return t=r+e,i},window.cancelAnimationFrame=window.clearTimeout)}();var D=/\.0+$/g;function Q(t){return Number.isInteger(t)?t+"":t.toFixed(6).replace(D,"")}function U(t){var n=arguments.length>1&&void 0!==arguments[1]?arguments[1]:" ";return t&&t.length?t.map(Q).join(n):""}function V(t){return t?null==t.a||t.a>=1?"rgb("+t.r+","+t.g+","+t.b+")":"rgba("+t.r+","+t.g+","+t.b+","+t.a+")":"transparent"}var $={f:null,i:function(t,n,r){return 0===t?n:1===t?r:{x:w(t,n.x,r.x),y:w(t,n.y,r.y)}},u:function(t,n){return function(r){var e=n(r);t.setAttribute("rx",Q(e.x)),t.setAttribute("ry",Q(e.y))}}},G={f:null,i:function(t,n,r){return 0===t?n:1===t?r:{width:w(t,n.width,r.width),height:w(t,n.height,r.height)}},u:function(t,n){return function(r){var e=n(r);t.setAttribute("width",Q(e.width)),t.setAttribute("height",Q(e.height))}}},H=Math.sin,Y=Math.cos,Z=Math.acos,J=Math.asin,K=Math.tan,W=Math.atan2,X=Math.PI/180,tt=180/Math.PI,nt=Math.sqrt,rt=function(){function t(){var r=arguments.length>0&&void 0!==arguments[0]?arguments[0]:1,e=arguments.length>1&&void 0!==arguments[1]?arguments[1]:0,i=arguments.length>2&&void 0!==arguments[2]?arguments[2]:0,o=arguments.length>3&&void 0!==arguments[3]?arguments[3]:1,u=arguments.length>4&&void 0!==arguments[4]?arguments[4]:0,a=arguments.length>5&&void 0!==arguments[5]?arguments[5]:0;n(this,t),this.m=[r,e,i,o,u,a],this.i=null,this.w=null,this.s=null}return e(t,[{key:"determinant",get:function(){var t=this.m;return t[0]*t[3]-t[1]*t[2]}},{key:"isIdentity",get:function(){if(null===this.i){var t=this.m;this.i=1===t[0]&&0===t[1]&&0===t[2]&&1===t[3]&&0===t[4]&&0===t[5]}return this.i}},{key:"point",value:function(t,n){var r=this.m;return{x:r[0]*t+r[2]*n+r[4],y:r[1]*t+r[3]*n+r[5]}}},{key:"translateSelf",value:function(){var t=arguments.length>0&&void 0!==arguments[0]?arguments[0]:0,n=arguments.length>1&&void 0!==arguments[1]?arguments[1]:0;if(!t&&!n)return this;var r=this.m;return r[4]+=r[0]*t+r[2]*n,r[5]+=r[1]*t+r[3]*n,this.w=this.s=this.i=null,this}},{key:"rotateSelf",value:function(){var t=arguments.length>0&&void 0!==arguments[0]?arguments[0]:0;if(t%=360){var n=H(t*=X),r=Y(t),e=this.m,i=e[0],o=e[1];e[0]=i*r+e[2]*n,e[1]=o*r+e[3]*n,e[2]=e[2]*r-i*n,e[3]=e[3]*r-o*n,this.w=this.s=this.i=null}return this}},{key:"scaleSelf",value:function(){var t=arguments.length>0&&void 0!==arguments[0]?arguments[0]:1,n=arguments.length>1&&void 0!==arguments[1]?arguments[1]:1;if(1!==t||1!==n){var r=this.m;r[0]*=t,r[1]*=t,r[2]*=n,r[3]*=n,this.w=this.s=this.i=null}return this}},{key:"skewSelf",value:function(t,n){if(n%=360,(t%=360)||n){var r=this.m,e=r[0],i=r[1],o=r[2],u=r[3];t&&(t=K(t*X),r[2]+=e*t,r[3]+=i*t),n&&(n=K(n*X),r[0]+=o*n,r[1]+=u*n),this.w=this.s=this.i=null}return this}},{key:"resetSelf",value:function(){var t=arguments.length>0&&void 0!==arguments[0]?arguments[0]:1,n=arguments.length>1&&void 0!==arguments[1]?arguments[1]:0,r=arguments.length>2&&void 0!==arguments[2]?arguments[2]:0,e=arguments.length>3&&void 0!==arguments[3]?arguments[3]:1,i=arguments.length>4&&void 0!==arguments[4]?arguments[4]:0,o=arguments.length>5&&void 0!==arguments[5]?arguments[5]:0,u=this.m;return u[0]=t,u[1]=n,u[2]=r,u[3]=e,u[4]=i,u[5]=o,this.w=this.s=this.i=null,this}},{key:"recomposeSelf",value:function(){var t=arguments.length>0&&void 0!==arguments[0]?arguments[0]:null,n=arguments.length>1&&void 0!==arguments[1]?arguments[1]:null,r=arguments.length>2&&void 0!==arguments[2]?arguments[2]:null,e=arguments.length>3&&void 0!==arguments[3]?arguments[3]:null,i=arguments.length>4&&void 0!==arguments[4]?arguments[4]:null;return this.isIdentity||this.resetSelf(),t&&(t.x||t.y)&&this.translateSelf(t.x,t.y),n&&this.rotateSelf(n),r&&(r.x&&this.skewSelf(r.x,0),r.y&&this.skewSelf(0,r.y)),!e||1===e.x&&1===e.y||this.scaleSelf(e.x,e.y),i&&(i.x||i.y)&&this.translateSelf(i.x,i.y),this}},{key:"decompose",value:function(){var t=arguments.length>0&&void 0!==arguments[0]?arguments[0]:0,n=arguments.length>1&&void 0!==arguments[1]?arguments[1]:0,r=this.m,e=r[0]*r[0]+r[1]*r[1],i=[[r[0],r[1]],[r[2],r[3]]],o=nt(e);if(0===o)return{origin:{x:r[4],y:r[5]},translate:{x:t,y:n},scale:{x:0,y:0},skew:{x:0,y:0},rotate:0};i[0][0]/=o,i[0][1]/=o;var u=r[0]*r[3]-r[1]*r[2]<0;u&&(o=-o);var a=i[0][0]*i[1][0]+i[0][1]*i[1][1];i[1][0]-=i[0][0]*a,i[1][1]-=i[0][1]*a;var l=nt(i[1][0]*i[1][0]+i[1][1]*i[1][1]);if(0===l)return{origin:{x:r[4],y:r[5]},translate:{x:t,y:n},scale:{x:o,y:0},skew:{x:0,y:0},rotate:0};i[1][0]/=l,i[1][1]/=l,a/=l;var f=0;return i[1][1]<0?(f=Z(i[1][1])*tt,i[0][1]<0&&(f=360-f)):f=J(i[0][1])*tt,u&&(f=-f),a=W(a,nt(i[0][0]*i[0][0]+i[0][1]*i[0][1]))*tt,u&&(a=-a),{origin:{x:r[4],y:r[5]},translate:{x:t,y:n},scale:{x:o,y:l},skew:{x:a,y:0},rotate:f}}},{key:"toString",value:function(){return null===this.s&&(this.s="matrix("+this.m.map(it).join(" ")+")"),this.s}}]),t}(),et=/\.0+$/;function it(t){return Number.isInteger(t)?t:t.toFixed(14).replace(et,"")}function ot(t,n,r){return t+(n-t)*r}function ut(t,n,r){var e=arguments.length>3&&void 0!==arguments[3]&&arguments[3],i={x:ot(t.x,n.x,r),y:ot(t.y,n.y,r)};return e&&(i.a=at(t,n)),i}function at(t,n){return Math.atan2(n.y-t.y,n.x-t.x)}Object.freeze({M:2,L:2,Z:0,H:1,V:1,C:6,Q:4,T:2,S:4,A:7});var lt={},ft=null;function st(n){var r=function(){if(ft)return ft;if("object"!==("undefined"==typeof document?"undefined":t(document)))return{};var n=document.createElementNS("http://www.w3.org/2000/svg","svg");return n.style.position="absolute",n.style.opacity="0.01",n.style.zIndex="-9999",n.style.left="-9999px",n.style.width="1px",n.style.height="1px",ft={svg:n}}().svg;if(!r)return function(t){return null};var e=document.createElementNS(r.namespaceURI,"path");e.setAttributeNS(null,"d",n),e.setAttributeNS(null,"fill","none"),e.setAttributeNS(null,"stroke","none"),r.appendChild(e);var i=e.getTotalLength();return function(t){var n=e.getPointAtLength(i*t);return{x:n.x,y:n.y}}}function ct(t){return lt[t]?lt[t]:lt[t]=st(t)}function ht(t,n,r,e){if(!t||!e)return!1;var i=["M",t.x,t.y];if(n&&r&&(i.push("C"),i.push(n.x),i.push(n.y),i.push(r.x),i.push(r.y)),n?!r:r){var o=n||r;i.push("Q"),i.push(o.x),i.push(o.y)}return n||r||i.push("L"),i.push(e.x),i.push(e.y),i.join(" ")}function vt(t,n,r,e){var i=arguments.length>4&&void 0!==arguments[4]?arguments[4]:1,o=ht(t,n,r,e),u=ct(o);try{return u(i)}catch(t){return null}}function yt(t,n,r,e){var i=1-e;return i*i*t+2*i*e*n+e*e*r}function dt(t,n,r,e){return 2*(1-e)*(n-t)+2*e*(r-n)}function gt(t,n,r,e){var i=arguments.length>4&&void 0!==arguments[4]&&arguments[4],o=vt(t,n,null,r,e);return o||(o={x:yt(t.x,n.x,r.x,e),y:yt(t.y,n.y,r.y,e)}),i&&(o.a=pt(t,n,r,e)),o}function pt(t,n,r,e){return Math.atan2(dt(t.y,n.y,r.y,e),dt(t.x,n.x,r.x,e))}function mt(t,n,r,e,i){var o=i*i;return i*o*(e-t+3*(n-r))+3*o*(t+r-2*n)+3*i*(n-t)+t}function bt(t,n,r,e,i){var o=1-i;return 3*(o*o*(n-t)+2*o*i*(r-n)+i*i*(e-r))}function wt(t,n,r,e,i){var o=arguments.length>5&&void 0!==arguments[5]&&arguments[5],u=vt(t,n,r,e,i);return u||(u={x:mt(t.x,n.x,r.x,e.x,i),y:mt(t.y,n.y,r.y,e.y,i)}),o&&(u.a=xt(t,n,r,e,i)),u}function xt(t,n,r,e,i){return Math.atan2(bt(t.y,n.y,r.y,e.y,i),bt(t.x,n.x,r.x,e.x,i))}function kt(t,n,r){var e=arguments.length>3&&void 0!==arguments[3]&&arguments[3];if(_t(n)){if(St(r))return gt(n,r.start,r,t,e)}else if(_t(r)){if(n.end)return gt(n,n.end,r,t,e)}else{if(n.end)return r.start?wt(n,n.end,r.start,r,t,e):gt(n,n.end,r,t,e);if(r.start)return gt(n,r.start,r,t,e)}return ut(n,r,t,e)}function At(t,n,r){var e=kt(t,n,r,!0);return e.a=function(t){var n=arguments.length>1&&void 0!==arguments[1]&&arguments[1];return n?t+Math.PI:t}(e.a)/p,e}function _t(t){return!t.type||"corner"===t.type}function St(t){return null!=t.start&&!_t(t)}var Ot=new rt;var Mt={f:Q,i:b},jt={f:Q,i:function(t,n,r){var e=b(t,n,r);return e<=0?0:e>=1?1:e}};function Ft(t,n,r,e,i,o,u,a){return n=function(t,n,r){for(var e,i,o,u=t.length-1,a={},l=0;l<=u;l++)(e=t[l]).e&&(e.e=n(e.e)),e.v&&"g"===(i=e.v).t&&i.r&&(o=r.getElementById(i.r))&&(a[i.r]=o.querySelectorAll("stop"));return a}(t,e,a),function(e){var i,o=r(e,t,Pt);return o?"c"===o.t?V(o.v):"g"===o.t?(n[o.r]&&function(t,n){for(var r=0,e=t.length;r<e;r++)t[r].setAttribute("stop-color",V(n[r]))}(n[o.r],o.v),(i=o.r)?"url(#"+i+")":"none"):"none":"none"}}function Pt(t,n,r){if(0===t)return n;if(1===t)return r;if(n&&r){var e=n.t;if(e===r.t)switch(n.t){case"c":return{t:e,v:A(t,n.v,r.v)};case"g":if(n.r===r.r)return{t:e,v:_(t,n.v,r.v),r:n.r}}}return m(t,n,r)}var Bt={fill:Ft,"fill-opacity":jt,stroke:Ft,"stroke-opacity":jt,"stroke-width":Mt,"stroke-dashoffset":{f:Q,i:b},"stroke-dasharray":{f:function(t){var n=arguments.length>1&&void 0!==arguments[1]?arguments[1]:" ";return t&&t.length>0&&(t=t.map((function(t){return Math.floor(1e4*t)/1e4}))),U(t,n)},i:function(t,n,r){var e,i,o,u=n.length,a=r.length;if(u!==a)if(0===u)n=S(u=a,0);else if(0===a)a=u,r=S(u,0);else{var l=(o=(e=u)*(i=a)/function(t,n){for(var r;n;)r=n,n=t%n,t=r;return t||1}(e,i))<0?-o:o;n=O(n,Math.floor(l/u)),r=O(r,Math.floor(l/a)),u=a=l}for(var f=[],s=0;s<u;s++)f.push(g(w(t,n[s],r[s]),6));return f}},opacity:jt,transform:function(n,r,e,i){if(!(n=function(n,r){if(!n||"object"!==t(n))return null;var e=!1;for(var i in n)n.hasOwnProperty(i)&&(n[i]&&n[i].length?(n[i].forEach((function(t){t.e&&(t.e=r(t.e))})),e=!0):delete n[i]);return e?n:null}(n,i)))return null;var o=function(t,i,o){var u=arguments.length>3&&void 0!==arguments[3]?arguments[3]:null;return n[t]?e(i,n[t],o):r&&r[t]?r[t]:u};return r&&r.a&&n.o?function(t){var r=e(t,n.o,At);return Ot.recomposeSelf(r,o("r",t,b,0)+r.a,o("k",t,x),o("s",t,x),o("t",t,x)).toString()}:function(t){return Ot.recomposeSelf(o("o",t,kt,null),o("r",t,b,0),o("k",t,x),o("s",t,x),o("t",t,x)).toString()}},r:Mt,"#size":G,"#radius":$,_:function(t,n){if(Array.isArray(t))for(var r=0;r<t.length;r++)this[t[r]]=n;else this[t]=n}};return function(t){!function(t,n){if("function"!=typeof n&&null!==n)throw new TypeError("Super expression must either be null or a function");t.prototype=Object.create(n&&n.prototype,{constructor:{value:t,writable:!0,configurable:!0}}),n&&o(t,n)}(u,t);var r=a(u);function u(){return n(this,u),r.apply(this,arguments)}return e(u,null,[{key:"build",value:function(t){var n=l(i(u),"build",this).call(this,t,Bt);n.el,n.options;var r=n.player;return function(t,n,r){t.play()}(r),r}}]),u}(L)}));
__SVGATOR_PLAYER__.build({"root":"evXZjFUzkL51","animations":[{"duration":3000,"direction":1,"iterations":1,"fill":1,"alternate":false,"speed":1,"elements":{"evXZjFUzkL53":{"opacity":[{"t":960,"v":0},{"t":1050,"v":1}]},"evXZjFUzkL56":{"opacity":[{"t":960,"v":0},{"t":1050,"v":1}]},"evXZjFUzkL57":{"opacity":[{"t":960,"v":0},{"t":1050,"v":1}]},"evXZjFUzkL58":{"opacity":[{"t":960,"v":0},{"t":1050,"v":1}]},"evXZjFUzkL511":{"opacity":[{"t":960,"v":0},{"t":1050,"v":1}]},"evXZjFUzkL514":{"opacity":[{"t":960,"v":0},{"t":1050,"v":1}]},"evXZjFUzkL517":{"opacity":[{"t":960,"v":0},{"t":1050,"v":1}]},"evXZjFUzkL520":{"opacity":[{"t":960,"v":0},{"t":1050,"v":1}]},"evXZjFUzkL522":{"opacity":[{"t":960,"v":0},{"t":1050,"v":1}]},"evXZjFUzkL526":{"opacity":[{"t":960,"v":0},{"t":1050,"v":1}]},"evXZjFUzkL532":{"opacity":[{"t":960,"v":0},{"t":1050,"v":1}]},"evXZjFUzkL533":{"transform":{"data":{"t":{"x":-245,"y":-161}},"keys":{"o":[{"t":0,"v":{"x":249,"y":-294,"type":"corner"}},{"t":1040,"v":{"x":245,"y":-300,"type":"corner"}},{"t":1400,"v":{"x":245,"y":295,"type":"corner"}},{"t":1540,"v":{"x":200,"y":295,"type":"corner"}}],"s":[{"t":1390,"v":{"x":1,"y":1}},{"t":1540,"v":{"x":0.35,"y":0.35}}]}}},"evXZjFUzkL539":{"transform":{"data":{"t":{"x":-245,"y":-161}},"keys":{"o":[{"t":0,"v":{"x":249,"y":-294,"type":"corner"}},{"t":1380,"v":{"x":245,"y":-300,"type":"corner"}},{"t":1750,"v":{"x":245,"y":365,"type":"corner"}},{"t":1900,"v":{"x":200,"y":370,"type":"corner"}}],"s":[{"t":1740,"v":{"x":1,"y":1}},{"t":1900,"v":{"x":0.35,"y":0.35}}]}}},"evXZjFUzkL545":{"transform":{"data":{"t":{"x":-243,"y":-159}},"keys":{"o":[{"t":0,"v":{"x":247,"y":-294,"type":"corner"}},{"t":1720,"v":{"x":243,"y":-300,"type":"corner"}},{"t":2110,"v":{"x":243,"y":435,"type":"corner"}},{"t":2240,"v":{"x":200,"y":440,"type":"corner"}}],"s":[{"t":2110,"v":{"x":1,"y":1}},{"t":2250,"v":{"x":0.35,"y":0.35}}]}}},"evXZjFUzkL552":{"opacity":[{"t":960,"v":0},{"t":1040,"v":0},{"t":1050,"v":0},{"t":1170,"v":0.37},{"t":1200,"v":1}]},"evXZjFUzkL553":{"opacity":[{"t":960,"v":0},{"t":1050,"v":1}]},"evXZjFUzkL554":{"opacity":[{"t":960,"v":0},{"t":1050,"v":1}]},"evXZjFUzkL562":{"transform":{"data":{"o":{"x":230.50250244140625,"y":257.0119984082039,"type":"corner"},"t":{"x":-226.50250244140625,"y":-251.0119984082039}},"keys":{"r":[{"t":500,"v":0},{"t":720,"v":385}],"s":[{"t":0,"v":{"x":0.75,"y":0.75}},{"t":500,"v":{"x":0.69,"y":0.69}},{"t":750,"v":{"x":1,"y":1}},{"t":990,"v":{"x":1.25,"y":1.25}}]}},"opacity":[{"t":960,"v":1},{"t":990,"v":0.21},{"t":1050,"v":0}]},"evXZjFUzkL566":{"transform":{"data":{"o":{"x":175.06649780273438,"y":317.9179992675781,"type":"corner"},"t":{"x":-171.06649780273438,"y":-311.9179992675781}},"keys":{"r":[{"t":500,"v":0},{"t":720,"v":695},{"t":750,"v":695}],"s":[{"t":0,"v":{"x":0.75,"y":0.75}},{"t":500,"v":{"x":0.69,"y":0.69}},{"t":750,"v":{"x":1,"y":1}},{"t":990,"v":{"x":1.25,"y":1.25}}]}},"opacity":[{"t":990,"v":1},{"t":1020,"v":0.21},{"t":1080,"v":0}]},"evXZjFUzkL570":{"transform":{"data":{"o":{"x":286,"y":264,"type":"corner"},"s":{"x":0.75,"y":0.75},"t":{"x":-282,"y":-258}},"keys":{"r":[{"t":500,"v":0},{"t":720,"v":385},{"t":750,"v":385},{"t":990,"v":410}]}},"opacity":[{"t":990,"v":1},{"t":1020,"v":0.21},{"t":1080,"v":0}]},"evXZjFUzkL571":{"transform":{"data":{"t":{"x":-282,"y":-258}},"keys":{"o":[{"t":0,"v":{"x":307,"y":258,"type":"corner"}},{"t":500,"v":{"x":315.33333333333275,"y":258,"type":"corner"}}]}}},"evXZjFUzkL572":{"transform":{"data":{"t":{"x":-282,"y":-258}},"keys":{"o":[{"t":0,"v":{"x":307,"y":258,"type":"corner"}},{"t":500,"v":{"x":315.33333333333275,"y":258,"type":"corner"}}]}}},"evXZjFUzkL573":{"transform":{"data":{"t":{"x":-282,"y":-258}},"keys":{"o":[{"t":0,"v":{"x":307,"y":258,"type":"corner"}},{"t":500,"v":{"x":315.33333333333275,"y":258,"type":"corner"}}]}}},"evXZjFUzkL574":{"transform":{"data":{"o":{"x":227.89867401123047,"y":336.4170837402344,"type":"corner"},"t":{"x":-223.89867401123047,"y":-330.4170837402344}},"keys":{"r":[{"t":500,"v":0},{"t":720,"v":8975}],"s":[{"t":0,"v":{"x":0.75,"y":0.75}},{"t":500,"v":{"x":0.69,"y":0.69}},{"t":750,"v":{"x":1,"y":1}},{"t":990,"v":{"x":1.25,"y":1.25}}]}},"opacity":[{"t":990,"v":1},{"t":1020,"v":0.21},{"t":1080,"v":0}]},"evXZjFUzkL578":{"transform":{"data":{"o":{"x":356.9998779296875,"y":330.1595001220703,"type":"corner"},"t":{"x":-356.9998779296875,"y":-330.1595001220703}},"keys":{"s":[{"t":0,"v":{"x":0.75,"y":0.75}},{"t":500,"v":{"x":0.69,"y":0.69}},{"t":750,"v":{"x":1,"y":1}},{"t":990,"v":{"x":1.25,"y":1.25}}]}},"opacity":[{"t":990,"v":1},{"t":1020,"v":0.21},{"t":1080,"v":0}]},"evXZjFUzkL580":{"transform":{"data":{"t":{"x":-353.3623809814453,"y":-387.1593780517578}},"keys":{"o":[{"t":0,"v":{"x":358.69571431477857,"y":395.1593780517577,"type":"corner"}},{"t":140,"v":{"x":378.5797142876519,"y":385.10227823127366,"type":"corner"}},{"t":150,"v":{"x":380,"y":385.4644808743169,"type":"corner"}}],"r":[{"t":0,"v":0},{"t":150,"v":25}]}}},"evXZjFUzkL581":{"transform":{"data":{"o":{"x":330.3091603154721,"y":258,"type":"corner"},"t":{"x":-330.3091603154721,"y":-258}},"keys":{"r":[{"t":500,"v":0},{"t":750,"v":385},{"t":960,"v":451.875},{"t":990,"v":410}],"s":[{"t":60,"v":{"x":0.75,"y":0.75}},{"t":750,"v":{"x":1.15,"y":1.15}},{"t":960,"v":{"x":2,"y":2}}]}},"opacity":[{"t":0,"v":0},{"t":460,"v":0},{"t":500,"v":1},{"t":960,"v":1},{"t":1020,"v":0.21},{"t":1080,"v":0}]},"evXZjFUzkL582":{"transform":{"data":{"t":{"x":-282,"y":-258}},"keys":{"o":[{"t":0,"v":{"x":287.33333333333326,"y":265.9999999999999,"type":"corner"}},{"t":500,"v":{"x":315.33333333333275,"y":258,"type":"corner"}}]}}},"evXZjFUzkL583":{"transform":{"data":{"t":{"x":-282,"y":-258}},"keys":{"o":[{"t":0,"v":{"x":287.33333333333326,"y":265.9999999999999,"type":"corner"}},{"t":350,"v":{"x":306.4225203893708,"y":258,"type":"corner"}},{"t":500,"v":{"x":316.3282864695981,"y":258,"type":"corner"}},{"t":520,"v":{"x":317.23734867276073,"y":257.4765519657598,"type":"corner"}},{"t":530,"v":{"x":316.4245618936247,"y":257.97030102795696,"type":"corner"}},{"t":840,"v":{"x":316.6314436996832,"y":258.243521044679,"type":"corner"}}]}}},"evXZjFUzkL584":{"transform":{"data":{"t":{"x":-282,"y":-258}},"keys":{"o":[{"t":0,"v":{"x":287.33333333333326,"y":265.9999999999999,"type":"corner"}},{"t":500,"v":{"x":315.33333333333275,"y":258,"type":"corner"}}]}}}}}],"options":{"start":"load","hover":"freeze","click":"freeze","scroll":25,"font":"embed","exportedIds":"unique","svgFormat":"animated","title":"landing_animation"},"animationSettings":{"duration":3000,"direction":1,"iterations":1,"fill":1,"alternate":false,"speed":1}})]]></script></svg>