<svg 
                    xmlns="http://www.w3.org/2000/svg"
                    xmlns:xlink="http://www.w3.org/1999/xlink"
                    width="0.494cm" height="0.494cm">
                   <path fill-rule="evenodd"  opacity="0.4" fill="rgb(143, 149, 178)"
                    d="M4.536,3.495 C4.414,3.723 4.230,3.871 4.036,3.892 L1.159,4.309 C0.050,4.494 -0.388,5.876 0.403,6.699 L2.472,8.782 C2.638,8.955 2.717,9.189 2.677,9.401 L2.176,12.354 C1.998,13.508 3.151,14.382 4.129,13.827 L6.687,12.444 C6.895,12.325 7.106,12.325 7.305,12.440 L9.878,13.830 C10.849,14.382 12.003,13.508 11.826,12.359 L11.325,9.408 C11.304,9.178 11.379,8.938 11.533,8.778 L13.594,6.703 C14.389,5.876 13.951,4.494 12.849,4.310 L9.978,3.893 C9.749,3.845 9.551,3.697 9.470,3.506 L8.199,0.793 C7.713,-0.265 6.288,-0.265 5.800,0.795 L4.536,3.495 L4.536,3.495 Z"/>
                   </svg>