<svg 
 xmlns="http://www.w3.org/2000/svg"
 xmlns:xlink="http://www.w3.org/1999/xlink"
 width="0.529cm" height="0.494cm">
<path fill-rule="evenodd"  fill="rgb(248, 156, 55)"
 d="M10.638,14.000 C10.470,14.000 10.302,13.956 10.120,13.854 L7.294,12.306 C7.224,12.263 7.126,12.233 7.014,12.233 C6.916,12.233 6.804,12.263 6.734,12.292 L3.921,13.854 C3.753,13.956 3.585,14.000 3.390,14.000 C3.054,14.000 2.732,13.839 2.508,13.576 C2.284,13.314 2.200,12.963 2.256,12.613 L2.802,9.343 C2.830,9.139 2.760,8.934 2.620,8.788 L0.353,6.496 C0.031,6.175 -0.081,5.708 0.059,5.270 C0.199,4.832 0.549,4.525 0.983,4.452 L4.117,3.971 C4.313,3.941 4.495,3.810 4.579,3.635 L5.978,0.657 C6.174,0.248 6.566,-0.000 7.000,-0.000 C7.434,-0.000 7.825,0.248 8.021,0.657 L9.421,3.635 C9.518,3.825 9.686,3.941 9.882,3.971 L13.017,4.453 C13.451,4.525 13.800,4.832 13.940,5.255 C14.080,5.693 13.968,6.161 13.661,6.482 L11.408,8.788 C11.254,8.934 11.198,9.139 11.226,9.343 L11.757,12.599 C11.813,12.949 11.729,13.299 11.506,13.562 C11.296,13.839 10.974,14.000 10.638,14.000 Z"/>
</svg>