<?xml version="1.0" encoding="utf-8"?>
<!-- Generator: Adobe Illustrator 24.1.3, SVG Export Plug-In . SVG Version: 6.00 Build 0)  -->
<svg version="1.1" id="Layer_1" xmlns="http://www.w3.org/2000/svg" xmlns:xlink="http://www.w3.org/1999/xlink" x="0px" y="0px"
	 viewBox="0 0 512 512" style="enable-background:new 0 0 512 512;" xml:space="preserve">
<style type="text/css">
	.st0{fill:#6D8CF8;}
</style>
<path class="st0" d="M272.8,29.4c-8.6-1.5-17.4-0.3-25.2,3.5c-10.1-6.3-23.1-5-31.8,3.1l-28,26.2v-2.3c0-23.6-19.1-42.7-42.7-42.7
	c-14.1,0-25.6,11.5-25.6,25.6v83.6l-20.9,22.7c-5.9,6.4-9.2,14.9-9,23.6c-0.2,29.7,2,59.4,6.6,88.8c0.2,0.7,0.5,1.3,0.8,1.9
	l-13.9,39.2c-5.3,14.6,0,30.9,12.9,39.5l4.9,3.3c-5,14.5,0.3,30.5,12.9,39.2L252,479.4c2.3,1.6,3.7,4.2,3.7,7
	c0,14.1,11.5,25.6,25.6,25.6h124c7.8,0,15.1-3.5,20-9.6c4.9-6.2,6.7-14.3,4.8-22l-12.5-46.1c-4.4-20.1-5.7-40.8-3.8-61.3
	c7-89.2-52.7-153.6-67.9-164.8c-27.9-20.6-48.7-42-57.1-58.8c-12.6-25.2-4.1-42.5,4.1-59.2c6.9-14,14-28.5,3.9-43.6
	C291.5,37.8,282.8,31.6,272.8,29.4z M145.2,34.3c14.1,0,25.6,11.5,25.6,25.6v18.3l-34.1,31.9V42.9c0-2.3,0.9-4.4,2.5-6
	C140.8,35.2,142.9,34.3,145.2,34.3z M106.8,172.4c-0.1-4.4,1.5-8.6,4.5-11.8l22.5-24.5c0.2-0.2,0.4-0.4,0.6-0.6l50.1-46.9
	c0.5-0.4,0.9-0.8,1.3-1.2l41.9-39.2c3.3-3.2,8.7-3.2,12,0l0.6-0.6c0.2,0.2,0.4,0.5,0.7,0.7l-0.5,0.7c9.3,10,9,25.6-0.6,35.3
	l-33.6,32.2L159,159.1c-3.1,3.3-4.7,7.6-4.5,12.1c-15.9,2.1-29.3,12.8-34.7,27.9l-10.7,30.1C107.5,208.3,106.9,184.6,106.8,172.4z
	 M171.5,170.8l24.7-22.2c-0.3,7.4-0.1,14.8,0.8,22.2H171.5z M99.2,308.4L136,204.9c3.7-10.2,13.4-17,24.3-17h73.2
	c1.8,0,3.5,0.6,4.9,1.6l44.2,31.3c1.7,1.2,2.8,3.2,2.8,5.3c0,1.2-0.3,2.4-0.9,3.4c-0.3,0.5-0.7,1-1.1,1.5l-13.9-9.9
	c-7.2-5.2-15.9-8-24.7-8h-67.1c-18.1,0-34.1,11.4-40.2,28.5l-30.7,87.3l-1.1-0.7C99.3,323.8,96.6,315.7,99.2,308.4z M277.7,82.8
	c-8.6,17.5-20.4,41.5-4,74.3c13.1,26.2,44.6,51.9,62.2,64.9c11.3,8.3,67.5,67.9,61,149.7c-2,22.4-0.6,44.9,4.3,66.8l12.5,46.1
	c0.6,2.5,0,5.2-1.6,7.2c-1.6,2-4.1,3.2-6.7,3.2h-124c-4.7,0-8.5-3.8-8.5-8.5c0-8.4-4.1-16.3-11.1-21.1l-138.1-94.7
	c-6.4-4.4-9-12.5-6.4-19.8l36.5-103.7c3.6-10.2,13.2-17,24.1-17.1h67.1c5.3,0,10.5,1.7,14.8,4.8l39.4,28.2c2.8,2,3.5,5.8,1.8,8.7
	c-3.6,6-9.5,10.3-16.3,11.8c-6.8,1.5-14,0.2-19.8-3.7l-17.1-11.4c-4.2-2.8-9.1-4.3-14.2-4.3h-26.3c-11.1-0.1-21,7.1-24.3,17.7
	c-0.5,1.6-1.2,3.6-2,5.8c-6.1,17-20.5,56.7,12,69.7c2.9,1.3,6.2,0.9,8.7-1s3.7-5,3.2-8.1c-0.5-3.1-2.6-5.7-5.5-6.7
	c-14.3-5.7-11.3-23.4-2.3-48.1c0.9-2.5,1.7-4.7,2.3-6.5c1.1-3.5,4.4-5.8,8.1-5.8h26.3c1.7,0,3.3,0.5,4.7,1.4l17.1,11.4
	c9.7,6.5,21.6,8.7,33,6.1s21.2-9.7,27.2-19.7c6.3-10.6,3.4-24.2-6.5-31.4l-11.7-8.4c0.6-0.9,1.3-1.7,1.8-2.6
	c6.3-10.6,3.4-24.2-6.6-31.3l-44.1-31.3c-4.3-3.1-9.5-4.7-14.8-4.7h-19.3c-1.8-13.2-1.3-26.6,1.3-39.7l36.4-34.6
	c13.1-13.2,16.2-33.4,7.5-49.9c9-2.8,18.8,1.1,23.3,9.5C286.9,62.5,284.5,68.8,277.7,82.8z"/>
<path class="st0" d="M241.4,358.5c-2.9-1-6.1-0.3-8.4,1.7c-2.3,2-3.3,5.1-2.7,8.1c0.6,3,2.8,5.4,5.7,6.4
	c19.7,6.6,70.8,30.3,70.8,60.2c0,4.7,3.8,8.5,8.5,8.5c4.7,0,8.5-3.8,8.5-8.5C323.8,386.6,244.8,359.6,241.4,358.5z"/>
<path class="st0" d="M299,327.3c-1.8-2.4-4.8-3.7-7.9-3.3c-3,0.4-5.6,2.4-6.8,5.2c-1.2,2.8-0.8,6,1.1,8.5
	c13,17.1,34.7,37.5,63.9,37.5c4.7,0,8.5-3.8,8.5-8.5c0-4.7-3.8-8.5-8.5-8.5C327.1,358,309.7,341.3,299,327.3z"/>
<path class="st0" d="M304.9,2.9l-8.1,8.5c-2.2,2.2-3.1,5.4-2.2,8.4c0.8,3,3.3,5.3,6.3,6c3,0.7,6.2-0.3,8.3-2.6l8.1-8.5
	c2.2-2.2,3.1-5.4,2.2-8.4c-0.8-3-3.3-5.3-6.3-6C310.1-0.5,306.9,0.5,304.9,2.9z"/>
<path class="st0" d="M345.2,41.2c-0.6-2.2-2.1-4-4-5.1c-2-1.1-4.3-1.4-6.5-0.8l-11.1,3.1c-4.1,1.1-6.8,5.1-6.2,9.4
	c0.6,4.2,4.2,7.4,8.5,7.4c0.8,0,1.6-0.1,2.3-0.3l11.1-3.1c2.2-0.6,4-2.1,5.1-4C345.6,45.7,345.9,43.3,345.2,41.2z"/>
<path class="st0" d="M321.5,75.9c-4.5-1.3-9.2,1.4-10.5,5.9c-1.3,4.5,1.4,9.2,5.9,10.5l11.1,3.1c0.8,0.2,1.5,0.3,2.3,0.3
	c4.3,0,7.9-3.2,8.4-7.4c0.6-4.2-2.1-8.2-6.2-9.4L321.5,75.9z"/>
</svg>
