<?xml version="1.0" encoding="utf-8"?>
<!-- Generator: Adobe Illustrator 24.1.3, SVG Export Plug-In . SVG Version: 6.00 Build 0)  -->
<svg version="1.1" id="Capa_1" xmlns="http://www.w3.org/2000/svg" xmlns:xlink="http://www.w3.org/1999/xlink" x="0px" y="0px"
	 viewBox="0 0 512 512" style="enable-background:new 0 0 512 512;" xml:space="preserve">
<style type="text/css">
	.st0{fill:#6D8CF8;}
</style>
<g>
	<path class="st0" d="M473.5,143c-11,0-20.5,6-25.6,14.9l-24.4-6.6c0.1-0.9,0.1-1.9,0.1-2.8c0-17.1-11-31.7-26.3-37.1l7.7-52.6
		c14.8-1.6,26.3-14.2,26.3-29.4C431.2,13.3,418,0,401.7,0s-29.5,13.3-29.5,29.5c0,12.2,7.4,22.7,18,27.2l-7.7,52.6
		c-4.5,0.2-8.8,1.2-12.8,2.8l-12.4-19.2c4.8-5.3,7.8-12.3,7.8-20c0-16.3-13.3-29.5-29.5-29.5c-16.3,0-29.5,13.3-29.5,29.5
		s13.3,29.5,29.5,29.5c3.2,0,6.3-0.5,9.2-1.5l12.4,19.2c-5.4,5.2-9.3,11.9-11.1,19.4H178.9c-3.7-15.8-17-28-33.4-30l-1.7-25.7
		c11.7-3.9,20.1-15,20.1-28c0-16.3-13.3-29.5-29.5-29.5s-29.5,13.3-29.5,29.5c0,14.4,10.4,26.4,24,29l1.7,25.7
		c-6.9,1.8-13.1,5.5-18,10.5l-27.9-18.4c1.9-4.6,3-9.7,3-15c0-17.5-11.8-33.1-28.6-37.8c-4-1.1-8.1,1.2-9.2,5.2s1.2,8.1,5.2,9.2
		c10.4,2.9,17.7,12.6,17.7,23.4c0,13.4-10.9,24.3-24.3,24.3c-13.4,0-24.3-10.9-24.3-24.3c0-5.5,1.8-10.6,5.1-14.9
		c2.5-3.3,1.9-8-1.3-10.5c-3.3-2.5-8-1.9-10.5,1.3c-5.4,6.9-8.2,15.3-8.2,24.1c0,21.7,17.6,39.3,39.3,39.3c11,0,20.9-4.5,28.1-11.8
		l27.9,18.4c-1.9,4.6-3,9.7-3,15c0,13.2,6.6,24.9,16.6,32l-15.3,33.7c-1.6-0.3-3.3-0.4-5-0.4c-16.3,0-29.5,13.3-29.5,29.5
		s13.3,29.5,29.5,29.5s29.5-13.3,29.5-29.5c0-9.2-4.3-17.5-10.9-22.9l15.3-33.7c2.9,0.7,6,1.1,9.1,1.1c4.2,0,8.3-0.7,12.2-1.9
		l85.3,147.7c-8.3,7.2-13.6,17.8-13.6,29.7c0,5.8,1.3,11.2,3.5,16.2l-32.6,23.1c-5.1-4.3-11.8-6.9-19-6.9
		c-16.3,0-29.5,13.3-29.5,29.5s13.3,29.5,29.5,29.5s29.5-13.3,29.5-29.5c0-3.7-0.7-7.2-1.9-10.4l32.6-23.1c3,2.9,6.4,5.3,10.2,7.1
		l-14.2,54.1c-16.3,0-29.5,13.3-29.5,29.5c0,16.3,13.3,29.5,29.5,29.5c16.3,0,29.5-13.3,29.5-29.5c0-11-6.1-20.7-15.1-25.7
		l14.2-54.1c0.8,0.1,1.7,0.1,2.5,0.1c5.6,0,11-1.2,15.8-3.3l14.1,20.4c-6.9,7.1-11.2,16.8-11.2,27.5c0,21.7,17.6,39.3,39.3,39.3
		c4.1,0,7.5-3.4,7.5-7.5s-3.4-7.5-7.5-7.5c-13.4,0-24.3-10.9-24.3-24.3s10.9-24.3,24.3-24.3s24.3,10.9,24.3,24.3
		c0,3.5-0.7,6.9-2.2,10c-1.7,3.8,0,8.2,3.7,9.9c3.8,1.7,8.2,0,9.9-3.7c2.3-5.1,3.5-10.6,3.5-16.2c0-21.7-17.6-39.3-39.3-39.3
		c-5.6,0-11,1.2-15.8,3.3l-14.1-20.4c4.6-4.7,8-10.5,9.8-17l26.8,2.1c2.5,13.8,14.6,24.3,29.1,24.3c16.3,0,29.5-13.3,29.5-29.5
		S373.9,341,357.6,341c-12.9,0-23.9,8.3-27.9,19.9l-26.8-2.1c-1.1-10-6.1-18.9-13.3-25.2l52.4-90.8c2.1-3.6,0.8-8.2-2.7-10.2
		c-3.6-2.1-8.2-0.8-10.2,2.7l-52.4,90.8c-4-1.4-8.3-2.2-12.8-2.2s-8.8,0.8-12.8,2.2l-85.2-147.5c7.1-6,12.1-14.5,13.6-24.1h165.9
		c1.6,10.5,7.4,19.6,15.5,25.6l-15,26c-2.1,3.6-0.8,8.2,2.7,10.2c1.2,0.7,2.5,1,3.7,1c2.6,0,5.1-1.3,6.5-3.7l15.6-27
		c3.1,0.8,6.4,1.2,9.8,1.2c15.5,0,28.9-9,35.3-22.1l24.4,6.6c0,0.1,0,0.1,0,0.2c0,16.3,13.3,29.5,29.5,29.5s29.5-13.3,29.5-29.5
		S489.8,143,473.5,143L473.5,143z M320.9,72.9c0-8,6.5-14.6,14.6-14.6s14.6,6.5,14.6,14.6s-6.5,14.6-14.6,14.6S320.9,81,320.9,72.9z
		 M97.6,257.9c-8,0-14.6-6.5-14.6-14.6s6.5-14.6,14.6-14.6s14.6,6.5,14.6,14.6S105.7,257.9,97.6,257.9z M232.7,497
		c-8,0-14.6-6.5-14.6-14.6s6.5-14.6,14.6-14.6c8,0,14.6,6.5,14.6,14.6S240.7,497,232.7,497L232.7,497z M176.4,439.8
		c-8,0-14.6-6.5-14.6-14.6s6.5-14.6,14.6-14.6s14.6,6.5,14.6,14.6C190.9,433.2,184.4,439.8,176.4,439.8z M357.6,356
		c8,0,14.6,6.5,14.6,14.6s-6.5,14.6-14.6,14.6s-14.6-6.5-14.6-14.6S349.5,356,357.6,356z M288.2,363.4c0,13.4-10.9,24.3-24.3,24.3
		s-24.3-10.9-24.3-24.3s10.9-24.3,24.3-24.3C277.2,339,288.2,349.9,288.2,363.4z M401.7,15c8,0,14.6,6.5,14.6,14.6
		s-6.5,14.6-14.6,14.6s-14.6-6.5-14.6-14.6S393.7,15,401.7,15z M119.7,55.8c0-8,6.5-14.6,14.6-14.6s14.6,6.5,14.6,14.6
		s-6.5,14.6-14.6,14.6S119.7,63.9,119.7,55.8z M116.3,148.6c0-13.4,10.9-24.3,24.3-24.3s24.3,10.9,24.3,24.3s-10.9,24.3-24.3,24.3
		C127.2,172.9,116.3,162,116.3,148.6z M384.3,172.9c-13.4,0-24.3-10.9-24.3-24.3s10.9-24.3,24.3-24.3s24.3,10.9,24.3,24.3
		S397.7,172.9,384.3,172.9L384.3,172.9z M473.5,187.1c-8,0-14.6-6.5-14.6-14.6s6.5-14.6,14.6-14.6c8,0,14.6,6.5,14.6,14.6
		S481.6,187.1,473.5,187.1L473.5,187.1z"/>
</g>
</svg>
