<?xml version="1.0" encoding="utf-8"?>
<!-- Generator: Adobe Illustrator 24.1.3, SVG Export Plug-In . SVG Version: 6.00 Build 0)  -->
<svg version="1.1" id="Capa_1" xmlns="http://www.w3.org/2000/svg" xmlns:xlink="http://www.w3.org/1999/xlink" x="0px" y="0px"
	 viewBox="0 0 512 512" style="enable-background:new 0 0 512 512;" xml:space="preserve">
<style type="text/css">
	.st0{fill:#6D8CF8;}
</style>
<g>
	<circle class="st0" cx="296" cy="260" r="10"/>
	<circle class="st0" cx="216" cy="260" r="10"/>
	<path class="st0" d="M254.9,110c0.1,0,11.1-0.3,11.1,10c0,5.5-4.5,10-10,10c-3.2,0-6.1-1.5-8-4c-3.3-4.4-9.6-5.3-14-2
		c-4.4,3.3-5.3,9.6-2,14c3.6,4.8,8.5,8.3,14,10.3v6.7c0,5.5,4.5,10,10,10c5.5,0,10-4.5,10-10v-6.7c11.6-4.1,20-15.2,20-28.3
		c0-18.2-16-30-27.5-30c-0.1,0-12.5,1.1-12.5-10c0-5.5,4.5-10,10-10c3.2,0,6.1,1.5,8,4c3.3,4.4,9.6,5.3,14,2s5.3-9.6,2-14
		c-3.6-4.8-8.5-8.3-14-10.3V45c0-5.5-4.5-10-10-10s-10,4.5-10,10v6.7C234.4,55.8,226,67,226,80C226,97.2,240.5,110,254.9,110z"/>
	<path class="st0" d="M186,350c0,28,30.7,50,70,50s70-22,70-50s-30.7-50-70-50S186,322,186,350z M256,320c27.1,0,50,13.7,50,30
		s-22.9,30-50,30s-50-13.7-50-30S228.9,320,256,320z"/>
	<circle class="st0" cx="382" cy="426" r="10"/>
	<path class="st0" d="M121.5,432.4c14.6,16.2,24.5,44.2,24.5,69.6c0,5.5,4.5,10,10,10h60c5.5,0,10-4.5,10-10v-12.1
		c10,1.4,20.1,2.1,30,2.1s20-0.7,30-2.1V502c0,5.5,4.5,10,10,10h60c5.5,0,10-4.5,10-10c0-10.6,1.8-22,5.1-33.1
		c1.6-5.3-1.4-10.9-6.7-12.5c-5.3-1.6-10.9,1.4-12.5,6.7c-2.9,9.5-4.7,19.3-5.5,28.8H306v-13.9c0-6.3-5.7-11-11.9-9.8
		c-12.7,2.5-25.5,3.7-38.1,3.7s-25.4-1.2-38.1-3.7c-6.2-1.2-11.9,3.5-11.9,9.8V492h-40.4c-2.2-27.4-13.2-55.2-29.2-73
		c-18.7-20.8-30.4-54.9-30.4-89c0-26.8,7.1-54.8,20.6-80.9c1.9-3.8,1.3-8.3-1.6-11.4C112.8,224.6,106,207.6,106,190v-10h10
		c15,0,29.4,4.9,41.8,14.2c3.7,2.8,8.9,2.6,12.5-0.4c7.3-6.2,14.9-11.6,22.8-16.1c17.8,14.5,39.9,22.4,63,22.4
		c23.1,0,45.2-7.9,63-22.4c7.9,4.6,15.5,10,22.8,16.1c3.6,3,8.7,3.2,12.5,0.4C366.6,184.9,381,180,396,180h10v10
		c0,17.6-6.8,34.6-19.1,47.7c-2.9,3.1-3.5,7.7-1.6,11.4c13.5,26.1,20.6,54.1,20.6,80.9c0,18.6-3.4,37.3-9.8,54.1
		c-2,5.2,0.6,10.9,5.8,12.9c5.2,2,10.9-0.6,12.9-5.8C422.2,372.2,426,351,426,330c0-27.9-6.8-56.8-19.8-83.9
		c12.8-16,19.8-35.6,19.8-56.1v-20c0-5.5-4.5-10-10-10h-20c-16.7,0-32.9,4.7-47.2,13.7c-4.9-3.8-10-7.4-15.2-10.6
		C347.9,145.4,356,123,356,100C356,44.9,311.1,0,256,0S156,44.9,156,100c0,23,8.1,45.4,22.4,63.1c-5.2,3.2-10.3,6.8-15.2,10.6
		c-14.3-9-30.5-13.7-47.2-13.7H96c-5.5,0-10,4.5-10,10v20c0,20.4,7,40.1,19.8,56.1C92.8,273.2,86,302.1,86,330
		C86,369.5,99.3,407.8,121.5,432.4L121.5,432.4z M256,20c44.1,0,80,35.9,80,80c0,44.7-36.3,80-80,80c-43,0-80-34.6-80-80
		C176,55.9,211.9,20,256,20z"/>
</g>
</svg>
