<?xml version="1.0" encoding="utf-8"?>
<!-- Generator: Adobe Illustrator 24.1.3, SVG Export Plug-In . SVG Version: 6.00 Build 0)  -->
<svg version="1.1" id="Capa_1" xmlns="http://www.w3.org/2000/svg" xmlns:xlink="http://www.w3.org/1999/xlink" x="0px" y="0px"
	 viewBox="0 0 512 512" style="enable-background:new 0 0 512 512;" xml:space="preserve">
<style type="text/css">
	.st0{fill:#6D8CF8;}
</style>
<g>
	<g>
		<path class="st0" d="M256,40c-5.5,0-10,4.5-10,10c0,5.1,3.9,9.4,9,9.9c5.9,0.6,11-4,11-9.9C266,44.5,261.5,40,256,40z"/>
	</g>
</g>
<g>
	<g>
		<path class="st0" d="M456,60c-27.6,0-50-22.4-50-50c0-5.5-4.5-10-10-10H116c-5.5,0-10,4.5-10,10c0,27.6-22.4,50-50,50
			c-5.5,0-10,4.5-10,10v163.2c0,127.2,82.9,241.1,207.1,278.4c0.9,0.3,1.9,0.4,2.9,0.4s1.9-0.1,2.9-0.4
			C380.4,475.1,466,363.1,466,233.2V70C466,64.5,461.5,60,456,60z M446,233.2c0,119.4-76.2,222.9-190,258.4
			C143.1,456.4,66,352,66,233.2V79.3c30.6-4.4,54.9-28.7,59.3-59.3h261.4c4.4,30.6,28.7,54.9,59.3,59.3V233.2z"/>
	</g>
</g>
<g>
	<g>
		<path class="st0" d="M420,92.5c-20.9-9.1-37.4-25.6-46.5-46.5c-1.6-3.6-5.2-6-9.2-6H296c-5.5,0-10,4.5-10,10s4.5,10,10,10h62
			c10.6,20.7,27.3,37.4,48,48v125.2c0,97.9-58.7,182.3-150,216.1c-91.3-33.8-150-118.2-150-216.1V108c20.7-10.6,37.4-27.3,48-48h62
			c5.5,0,10-4.5,10-10s-4.5-10-10-10h-68.4c-4,0-7.6,2.4-9.2,6c-9.1,20.9-25.6,37.4-46.5,46.5c-3.6,1.6-6,5.2-6,9.2v131.5
			c0,107.2,66.3,200.7,166.7,236.2c1.1,0.4,2.2,0.6,3.3,0.6s2.3-0.2,3.3-0.6C359.6,433.9,426,340.5,426,233.2V101.7
			C426,97.7,423.6,94.1,420,92.5z"/>
	</g>
</g>
<g>
	<g>
		<path class="st0" d="M256,146c-49.6,0-90,40.4-90,90s40.4,90,90,90s90-40.4,90-90S305.6,146,256,146z M256,306
			c-38.6,0-70-31.4-70-70s31.4-70,70-70s70,31.4,70,70S294.6,306,256,306z"/>
	</g>
</g>
<g>
	<g>
		<path class="st0" d="M303.1,208.9c-3.9-3.9-10.2-3.9-14.1,0L246,251.9l-12.9-12.9c-3.9-3.9-10.2-3.9-14.1,0
			c-3.9,3.9-3.9,10.2,0,14.1l20,20c2,2,4.5,2.9,7.1,2.9s5.1-1,7.1-2.9l50-50C307,219.2,307,212.8,303.1,208.9z"/>
	</g>
</g>
</svg>
