<?xml version="1.0" encoding="iso-8859-1"?>
<!-- Generator: Adobe Illustrator 18.0.0, SVG Export Plug-In . SVG Version: 6.00 Build 0)  -->
<!DOCTYPE svg PUBLIC "-//W3C//DTD SVG 1.1//EN" "http://www.w3.org/Graphics/SVG/1.1/DTD/svg11.dtd">
<svg version="1.1" id="Capa_1" xmlns="http://www.w3.org/2000/svg" xmlns:xlink="http://www.w3.org/1999/xlink" x="0px" y="0px"
	 viewBox="0 0 512 512" style="enable-background:new 0 0 512 512;" xml:space="preserve">
<path d="M368,0c-61.758,0-112,50.242-112,112v112H64c-17.672,0-32,14.328-32,32v224c0,17.672,14.328,32,32,32h288
	c17.672,0,32-14.328,32-32V256c0-17.672-14.328-32-32-32h-32V112c0-26.469,21.531-48,48-48c26.469,0,48,21.531,48,48v80
	c0,17.672,14.328,32,32,32c17.672,0,32-14.328,32-32v-80C480,50.242,429.758,0,368,0z M224,397.063V432c0,8.836-7.164,16-16,16
	c-8.836,0-16-7.164-16-16v-34.938c-18.602-6.613-32-24.195-32-45.063c0-26.512,21.488-48,48-48s48,21.488,48,48
	C256,372.867,242.602,390.449,224,397.063z"/>
<g>
</g>
<g>
</g>
<g>
</g>
<g>
</g>
<g>
</g>
<g>
</g>
<g>
</g>
<g>
</g>
<g>
</g>
<g>
</g>
<g>
</g>
<g>
</g>
<g>
</g>
<g>
</g>
<g>
</g>
</svg>
