<?xml version="1.0" standalone="no"?><!DOCTYPE svg PUBLIC "-//W3C//DTD SVG 1.1//EN" "http://www.w3.org/Graphics/SVG/1.1/DTD/svg11.dtd"><svg t="1591046277609" class="icon" viewBox="0 0 1024 1024" version="1.1" xmlns="http://www.w3.org/2000/svg" p-id="4133" xmlns:xlink="http://www.w3.org/1999/xlink" width="16" height="16"><defs><style type="text/css"></style></defs><path d="M511.997444 1022.909759c-69.032594 0-136.015494-13.527368-199.087014-40.204045-60.903299-25.764226-115.601318-62.636241-162.56547-109.600394-46.962109-46.958022-83.836168-101.656041-109.599372-162.56547C14.066867 647.472417 0.545629 580.491561 0.545629 511.451814c0-69.032594 13.522259-136.015494 40.199958-199.087014 25.763204-60.903299 62.636241-115.601318 109.599372-162.56547 46.964153-46.962109 101.66115-83.836168 162.56547-109.599372C375.981949 13.522259 442.964849 0 511.997444 0c69.033616 0 136.022647 13.522259 199.087014 40.199958 60.90943 25.762182 115.601318 62.642371 162.56547 109.599372 46.964153 46.964153 83.836168 101.66115 109.600394 162.56547 26.676677 63.07152 40.204045 130.05442 40.204045 199.093145 0 69.033616-13.527368 136.015494-40.204045 199.087014-25.764226 60.90943-62.636241 115.601318-109.600394 162.55934-46.964153 46.964153-101.656041 83.842298-162.55934 109.600394C648.01396 1009.381369 581.03106 1022.909759 511.997444 1022.909759L511.997444 1022.909759zM511.997444 35.029742c-64.320137 0-126.71115 12.597547-185.442141 37.436038-56.730342 23.996544-107.678422 58.345779-151.437246 102.106646-43.760867 43.752693-78.110103 94.706903-102.106646 151.437246C48.172919 384.740664 35.575372 447.131677 35.575372 511.451814s12.597547 126.717281 37.436038 185.442141c23.996544 56.730342 58.35191 107.683531 102.106646 151.438268 43.758824 43.758824 94.706903 78.11419 151.437246 102.106646 58.730991 24.844622 121.123026 37.436038 185.442141 37.436038 64.325246 0 126.717281-12.591416 185.442141-37.436038 56.730342-23.996544 107.683531-58.347823 151.438268-102.106646 43.760867-43.754736 78.11419-94.702816 102.106646-151.438268 24.844622-58.725882 37.436038-121.116895 37.436038-185.442141 0-64.324224-12.591416-126.717281-37.436038-185.442141-23.996544-56.730342-58.345779-107.683531-102.106646-151.437246-43.754736-43.760867-94.707925-78.115212-151.438268-102.106646C638.713703 47.627289 576.322689 35.029742 511.997444 35.029742L511.997444 35.029742zM511.997444 35.029742" p-id="4134"></path><path d="M607.874287 564.948217c53.033536-96.42554 72.318644-188.025205 72.318644-188.025205l-9.644598 0 0 0-81.958133 0-86.780943 0 0-67.499922 212.132101 0 0-28.924597-212.132101 0 0-101.244263-96.422475 0 0 101.244263L212.540812 280.498494l0 28.924597 192.845971 0 0 67.499922L241.46643 376.923012l0 28.925618 332.661472 0c0 4.821788 0 4.821788-4.82281 9.64051 0 33.748428-24.102809 81.96222-43.388939 120.528349-245.879508-96.422475-318.198152-38.566129-337.482238-28.925618-163.917288 115.706561-9.64051 260.342828 14.466385 255.52104 173.562907 38.569194 284.446658-33.748428 361.586069-125.35218 4.818723 4.82281 9.641532 4.82281 14.46332 4.82281 53.032514 28.924597 308.552532 149.453967 308.552532 149.453967L887.502223 646.907372C848.932007 646.907372 709.11855 598.695624 607.874287 564.948217L607.874287 564.948217zM482.52415 608.337156c-120.528349 154.276777-265.160528 106.065029-289.268446 96.421453-57.851237-14.462298-77.136345-120.529371-4.821788-154.276777 120.528349-38.566129 226.595421 4.821788 303.734832 43.392004C487.345938 603.514346 482.52415 608.337156 482.52415 608.337156L482.52415 608.337156zM482.52415 608.337156" p-id="4135"></path></svg>