<?xml version="1.0" standalone="no"?><!DOCTYPE svg PUBLIC "-//W3C//DTD SVG 1.1//EN" "http://www.w3.org/Graphics/SVG/1.1/DTD/svg11.dtd"><svg t="1589810995064" class="icon" viewBox="0 0 1024 1024" version="1.1" xmlns="http://www.w3.org/2000/svg" p-id="2539" xmlns:xlink="http://www.w3.org/1999/xlink" width="16" height="16"><defs><style type="text/css"></style></defs><path d="M700.269 930.666c-14.331 0-27.677-5.512-37.657-15.529l-365.34-365.99c-1.337-1.306-2.38-2.417-3.234-3.607l-2.16-2.723c-10.653-10.703-15.888-23.296-15.888-36.627 0-13.571 5.351-26.26 15.053-35.73l367.853-363.953c9.951-9.813 23.238-15.222 37.401-15.222 13.848 0 26.931 5.25 36.832 14.769 9.841 9.549 15.507 22.867 15.506 36.518 0 13.484-5.365 26.259-15.134 35.969l-331.846 328.283 336.081 336.964c9.607 9.666 14.915 22.296 14.915 35.619 0 13.958-5.673 27.055-15.937 36.876-9.768 9.271-22.734 14.381-36.444 14.381z" p-id="2540"></path></svg>