<?xml version="1.0" standalone="no"?><!DOCTYPE svg PUBLIC "-//W3C//DTD SVG 1.1//EN" "http://www.w3.org/Graphics/SVG/1.1/DTD/svg11.dtd"><svg t="1591030283054" class="icon" viewBox="0 0 1024 1024" version="1.1" xmlns="http://www.w3.org/2000/svg" p-id="7293" xmlns:xlink="http://www.w3.org/1999/xlink" width="16" height="16"><defs><style type="text/css"></style></defs><path d="M512 896a272 272 0 0 1-226.4-120.96 16 16 0 1 1 26.56-17.92 240 240 0 1 0 389.28-280.8 16 16 0 0 1 25.28-19.52A269.6 269.6 0 0 1 784 624a272 272 0 0 1-272 272zM270.56 725.12a16 16 0 0 1-15.04-10.56 272 272 0 0 1 423.04-305.6 16 16 0 0 1-9.12 29.12 17.76 17.76 0 0 1-10.08-3.36A236.8 236.8 0 0 0 512 384a240 240 0 0 0-226.4 320 16 16 0 0 1-9.6 20.32 16.96 16.96 0 0 1-5.44 0.8z" p-id="7294"></path><path d="M536.96 640H448a16 16 0 0 1-16-16v-80a16 16 0 0 1 16-16h88.96A55.04 55.04 0 0 1 592 583.04v1.92A55.04 55.04 0 0 1 536.96 640zM464 608h72.96A23.2 23.2 0 0 0 560 584.96v-1.92A23.2 23.2 0 0 0 536.96 560H464z" p-id="7295"></path><path d="M552 720H448a16 16 0 0 1-16-16v-80a16 16 0 0 1 16-16h104a56 56 0 0 1 0 112zM464 688h88a24 24 0 0 0 0-48H464z" p-id="7296"></path><path d="M448 720h-16a16 16 0 0 1 0-32v-128a16 16 0 0 1 0-32h16a16 16 0 0 1 16 16v160a16 16 0 0 1-16 16z" p-id="7297"></path><path d="M528 560h-64a16 16 0 0 1-16-16v-32a16 16 0 0 1 32 0v16h32v-16a16 16 0 0 1 32 0v32a16 16 0 0 1-16 16zM528 752a16 16 0 0 1-16-16v-16h-32v16a16 16 0 0 1-32 0v-32a16 16 0 0 1 16-16h64a16 16 0 0 1 16 16v32a16 16 0 0 1-16 16z" p-id="7298"></path><path d="M755.84 871.04a16 16 0 0 1-11.04-4.32 16 16 0 0 1 0-22.72A317.92 317.92 0 0 0 832 624a321.12 321.12 0 0 0-274.24-316.32 16 16 0 0 1-13.76-16V176a16 16 0 0 1 16-16h57.44L512 54.56 406.56 160H464a16 16 0 0 1 16 16v115.84a16 16 0 0 1-13.76 16 317.92 317.92 0 0 0-157.92 70.08A16 16 0 0 1 288 353.12a352 352 0 0 1 160-74.88V192h-80a16 16 0 0 1-14.72-9.92 16 16 0 0 1 3.36-17.44l144-144a16 16 0 0 1 22.72 0l144 144a16 16 0 0 1 3.36 17.44A16 16 0 0 1 656 192h-80v86.24a352 352 0 0 1 192 587.84 16 16 0 0 1-12.16 4.96zM512 976a352 352 0 0 1-316.32-506.24 16 16 0 1 1 28.8 14.08A312.48 312.48 0 0 0 192 624a320 320 0 0 0 507.2 259.52 16 16 0 0 1 18.88 25.92A349.28 349.28 0 0 1 512 976zM243.36 438.56a14.72 14.72 0 0 1-9.44-3.2 16 16 0 0 1-3.36-22.24c3.36-4.64 6.72-8.96 10.24-13.28a16 16 0 0 1 24.96 20.16L256 432a16 16 0 0 1-12.64 6.56z" p-id="7299"></path></svg>