<?xml version="1.0" standalone="no"?><!DOCTYPE svg PUBLIC "-//W3C//DTD SVG 1.1//EN" "http://www.w3.org/Graphics/SVG/1.1/DTD/svg11.dtd"><svg t="1591046252091" class="icon" viewBox="0 0 1024 1024" version="1.1" xmlns="http://www.w3.org/2000/svg" p-id="2508" xmlns:xlink="http://www.w3.org/1999/xlink" width="16" height="16"><defs><style type="text/css"></style></defs><path d="M558.048 395.296a142.656 142.656 0 0 0 21.36-16.288c18.32-16.976 32.096-38.768 37.904-62.656 10.128-35.84-1.632-66.944-25.872-84.16-12.752-9.056-28.928-14.416-47.28-14.416h-106.4l-3.424 14.416-43.136 182.768h101.952c22.592 0 45.136-7.392 64.896-19.664z m-63.248-106.496h49.392c2.544 0 4.064 0.416 4.816 0.688 0.176 1.072 0.304 3.52-0.912 7.68l-0.368 1.312-0.288 1.312c-5.536 22.688-31.904 44.16-54.304 44.16h-11.392l13.056-55.152z m474.976-28.288c-20.72-25.472-46.848-46.608-76.512-62.848a240.192 240.192 0 0 0-47.616-98.368C795.424 37.536 713.36 0.528 625.872 0H196.24l-12.592 55.328L19.584 776.32 0 862.4v0.496h160.672l-16.928 74.576L124.032 1024h364.832l12.384-55.632 40.8-183.04h97.424c188.848 0 336.48-114.816 376.128-292.448 5.872-26.384 8.336-50.608 8.4-72.912v-7.296c-1.536-70.336-28.256-120.176-54.224-152.16zM89.696 791.856L253.776 70.88H624c68.528 0 144.08 30.656 181.056 95.584 12.72 22.368 20.896 48.816 22.592 79.504 1.216 21.344-0.688 44.816-6.384 70.368-12.992 58.24-39.984 106.848-76.736 144.768-56.16 58-135.408 90.432-223.664 91.712-1.872 0.064-3.664 0.224-5.504 0.224h-155.2L306.976 791.84l-217.28 0.016z m855.696-314.288c-33.232 149.056-157.392 236.736-305.92 236.736h-155.184L431.088 953.12H213.856l20.528-90.224h130.352l12.432-55.744 40.752-183.056h97.44c188.832 0 336.416-114.816 376.08-292.4 3.344-15.056 5.568-29.392 6.944-43.136 42.448 40.192 66.336 102.48 47.008 189.008z" fill="" p-id="2509"></path></svg>