<?xml version="1.0" standalone="no"?><!DOCTYPE svg PUBLIC "-//W3C//DTD SVG 1.1//EN" "http://www.w3.org/Graphics/SVG/1.1/DTD/svg11.dtd"><svg t="1591045633915" class="icon" viewBox="0 0 1024 1024" version="1.1" xmlns="http://www.w3.org/2000/svg" p-id="1750" xmlns:xlink="http://www.w3.org/1999/xlink" width="16" height="16"><defs><style type="text/css"></style></defs><path d="M854.613333 187.221333a39.338667 39.338667 0 0 0 13.226667-7.552 42.581333 42.581333 0 0 1 60.16 4.053334c15.530667 17.792 13.696 44.8-4.053333 60.330666a124.330667 124.330667 0 0 1-41.344 23.936c-25.6 8.917333-51.456 9.685333-75.434667 5.888a121.770667 121.770667 0 0 1-12.117333-2.474666 42.666667 42.666667 0 0 1-22.186667-14.464c-35.242667-43.776-76.928-54.186667-135.253333-32.725334-54.741333 20.181333-76.586667 65.450667-66.261334 149.248 3.157333 25.6-16.853333 48.128-42.581333 48-137.173333-0.853333-262.912-61.610667-375.594667-180.053333a42.837333 42.837333 0 0 1 1.408-60.501333 42.581333 42.581333 0 0 1 60.330667 1.450666c84.224 88.576 173.525333 138.24 268.8 150.528 1.408-93.184 43.050667-158.890667 124.416-188.928 86.186667-31.786667 162.346667-16 219.946667 46.293334 9.088 0.64 18.432-0.213333 26.538666-3.029334zM360.192 810.496c157.866667 0 298.112-67.328 389.973333-220.714667 33.706667-56.192 52.565333-121.386667 56.576-196.266666a42.666667 42.666667 0 1 1 85.205334 4.565333c-4.736 88.405333-27.562667 167.210667-68.608 235.733333C714.794667 815.061333 546.090667 896 360.192 896c-97.834667 0-184.106667-26.922667-257.408-80.810667-34.944-25.6-13.909333-81.066667 29.184-77.056 62.421333 5.888 134.442667-15.104 216.192-64.682666a42.624 42.624 0 0 1 58.581333 14.464c12.202667 20.224 5.76 46.506667-14.421333 58.709333-39.424 23.893333-77.738667 42.410667-114.901333 55.381333a390.613333 390.613333 0 0 0 82.773333 8.490667zM136.405333 371.541333A42.624 42.624 0 1 1 215.04 338.346667c9.301333 22.186667 24.234667 38.229333 46.08 49.408 20.992 10.709333 29.312 36.48 18.645333 57.514666a42.624 42.624 0 0 1-57.386666 18.645334 179.626667 179.626667 0 0 1-85.973334-92.416z m39.253334 170.026667a42.794667 42.794667 0 0 1 15.018666-58.581333 42.624 42.624 0 0 1 58.453334 15.018666c16.768 28.373333 33.664 42.922667 50.261333 46.805334a42.752 42.752 0 0 1-19.2 83.285333c-42.069333-9.728-76.8-39.594667-104.533333-86.528z" p-id="1751"></path></svg>