<?xml version="1.0" standalone="no"?>
<!DOCTYPE svg PUBLIC "-//W3C//DTD SVG 1.1//EN" "http://www.w3.org/Graphics/SVG/1.1/DTD/svg11.dtd">
<svg xmlns="http://www.w3.org/2000/svg" xmlns:xlink="http://www.w3.org/1999/xlink" width="16" height="16" class="icon" p-id="1750" t="1591045633915" version="1.1" viewBox="0 0 1024 1024">
    <defs>
        <style type="text/css"/>
    </defs>
    <path d="M 847.9 180.6 C 852.8 178.9 857.3 176.4 861.2 173 C 869.7 165.5 880.8 161.8 892.1 162.5 C 903.4 163.3 913.9 168.5 921.3 177.1 c 15.5 17.8 13.7 44.8 -4.1 60.3 C 905.2 248 891.1 256.1 875.9 261.3 c -25.6 8.9 -51.5 9.7 -75.4 5.9 C 796.4 266.6 792.4 265.8 788.4 264.7 C 779.6 262.4 771.9 257.3 766.2 250.3 c -35.2 -43.8 -76.9 -54.2 -135.3 -32.7 c -54.7 20.2 -76.6 65.5 -66.3 149.2 c 3.2 25.6 -16.9 48.1 -42.6 48 c -137.2 -0.9 -262.9 -61.6 -375.6 -180.1 C 130.2 217.6 130.8 190.6 147.9 174.2 C 156.1 166.4 167.1 162.2 178.4 162.4 C 189.7 162.7 200.4 167.5 208.2 175.7 c 84.2 88.6 173.5 138.2 268.8 150.5 c 1.4 -93.2 43.1 -158.9 124.4 -188.9 c 86.2 -31.8 162.3 -16 219.9 46.3 c 9.1 0.6 18.4 -0.2 26.5 -3 z M 353.5 803.8 c 157.9 0 298.1 -67.3 390 -220.7 c 33.7 -56.2 52.6 -121.4 56.6 -196.3 C 800.7 371.5 809.6 357.7 823.2 350.7 C 836.9 343.7 853.3 344.5 866.1 353 C 879 361.4 886.3 376.1 885.3 391.4 c -4.7 88.4 -27.6 167.2 -68.6 235.7 C 708.1 808.4 539.4 889.3 353.5 889.3 c -97.8 0 -184.1 -26.9 -257.4 -80.8 c -34.9 -25.6 -13.9 -81.1 29.2 -77.1 c 62.4 5.9 134.4 -15.1 216.2 -64.7 C 351.2 660.9 362.8 659.2 373.8 661.9 C 384.8 664.6 394.2 671.6 400.1 681.2 c 12.2 20.2 5.8 46.5 -14.4 58.7 c -39.4 23.9 -77.7 42.4 -114.9 55.4 C 298 801.1 325.7 804 353.5 803.8 z M 129.7 364.9 C 120.6 343.2 130.7 318.1 152.5 309 C 174.2 299.8 199.2 310 208.4 331.7 c 9.3 22.2 24.2 38.2 46.1 49.4 c 21 10.7 29.3 36.5 18.6 57.5 C 268 448.7 259 456.3 248.3 459.8 C 237.5 463.3 225.8 462.4 215.7 457.2 C 176.8 437.9 146.3 405 129.7 364.8 z m 39.3 170 C 157 514.6 163.7 488.4 184 476.3 C 193.8 470.5 205.4 468.9 216.4 471.7 C 227.3 474.5 236.7 481.6 242.5 491.3 c 16.8 28.4 33.7 42.9 50.3 46.8 C 315.1 544 328.8 566.6 323.6 589.1 C 318.4 611.7 296.2 626 273.5 621.4 c -42.1 -9.7 -76.8 -39.6 -104.5 -86.5 z" p-id="1751"/>
</svg>
