<?xml version="1.0" standalone="no"?><!DOCTYPE svg PUBLIC "-//W3C//DTD SVG 1.1//EN" "http://www.w3.org/Graphics/SVG/1.1/DTD/svg11.dtd"><svg t="1591030272232" class="icon" viewBox="0 0 1024 1024" version="1.1" xmlns="http://www.w3.org/2000/svg" p-id="6923" xmlns:xlink="http://www.w3.org/1999/xlink" width="16" height="16"><defs><style type="text/css"></style></defs><path d="M536.96 304H464v48h72.96A23.2 23.2 0 0 0 560 328.96v-1.92A23.2 23.2 0 0 0 536.96 304z m0 0H464v48h72.96A23.2 23.2 0 0 0 560 328.96v-1.92A23.2 23.2 0 0 0 536.96 304z m0 0H464v48h72.96A23.2 23.2 0 0 0 560 328.96v-1.92A23.2 23.2 0 0 0 536.96 304z m0 0H464v48h72.96A23.2 23.2 0 0 0 560 328.96v-1.92A23.2 23.2 0 0 0 536.96 304z m0 0H464v48h72.96A23.2 23.2 0 0 0 560 328.96v-1.92A23.2 23.2 0 0 0 536.96 304z m0 0H464v48h72.96A23.2 23.2 0 0 0 560 328.96v-1.92A23.2 23.2 0 0 0 536.96 304zM512 112a256 256 0 1 0 256 256A256 256 0 0 0 512 112z m40 352H544v16a16 16 0 0 1-32 0v-16h-32v16a16 16 0 0 1-32 0v-16h-16a16 16 0 0 1 0-32v-128a16 16 0 0 1 0-32h16v-16a16 16 0 0 1 32 0v16h32v-16a16 16 0 0 1 32 0v16a55.04 55.04 0 0 1 48 54.56v1.92a53.6 53.6 0 0 1-10.24 32A55.2 55.2 0 0 1 608 408a56 56 0 0 1-56 56z m8-135.04v-1.92A23.2 23.2 0 0 0 536.96 304H464v48h72.96A23.2 23.2 0 0 0 560 328.96zM552 384H464v48h88a24 24 0 0 0 0-48z m-15.04-80H464v48h72.96A23.2 23.2 0 0 0 560 328.96v-1.92A23.2 23.2 0 0 0 536.96 304z m0 0H464v48h72.96A23.2 23.2 0 0 0 560 328.96v-1.92A23.2 23.2 0 0 0 536.96 304z m0 0H464v48h72.96A23.2 23.2 0 0 0 560 328.96v-1.92A23.2 23.2 0 0 0 536.96 304z m0 0H464v48h72.96A23.2 23.2 0 0 0 560 328.96v-1.92A23.2 23.2 0 0 0 536.96 304z m0 0H464v48h72.96A23.2 23.2 0 0 0 560 328.96v-1.92A23.2 23.2 0 0 0 536.96 304z" fill="#231F20" opacity=".5" p-id="6924"></path><path d="M864 368a352 352 0 1 0-416 345.76V800h-80a16 16 0 0 0-14.72 9.92 16 16 0 0 0 3.36 17.44l144 144a16 16 0 0 0 22.72 0l144-144a16 16 0 0 0 3.36-17.44A16 16 0 0 0 656 800h-80v-86.24A353.44 353.44 0 0 0 864 368zM560 832h57.44L512 937.44 406.56 832H464a16 16 0 0 0 16-16v-115.84a16 16 0 0 0-13.76-16 320 320 0 1 1 91.52 0 16 16 0 0 0-13.76 16V816a16 16 0 0 0 16 16z" fill="#231F20" p-id="6925"></path></svg>