<?xml version="1.0" encoding="utf-8"?>
<!-- Generator: Adobe Illustrator 24.1.3, SVG Export Plug-In . SVG Version: 6.00 Build 0)  -->
<svg version="1.1" id="light" xmlns="http://www.w3.org/2000/svg" xmlns:xlink="http://www.w3.org/1999/xlink" x="0px" y="0px"
	 viewBox="0 0 512 512" style="enable-background:new 0 0 512 512;" xml:space="preserve">
<style type="text/css">
	.st0{fill:#6D8CF8;}
</style>
<path class="st0" d="M224,512c-5.9,0-10.7-4.8-10.7-10.7V416c0-5.9,4.8-10.7,10.7-10.7s10.7,4.8,10.7,10.7v85.3
	C234.7,507.2,229.9,512,224,512z"/>
<path class="st0" d="M288,512c-5.9,0-10.7-4.8-10.7-10.7V416c0-5.9,4.8-10.7,10.7-10.7s10.7,4.8,10.7,10.7v85.3
	C298.7,507.2,293.9,512,288,512z"/>
<path class="st0" d="M352,512H160c-5.9,0-10.7-4.8-10.7-10.7s4.8-10.7,10.7-10.7h192c5.9,0,10.7,4.8,10.7,10.7S357.9,512,352,512z"
	/>
<path class="st0" d="M480,426.7H32c-17.6,0-32-14.4-32-32V117.3c0-17.6,14.4-32,32-32h85.3c5.9,0,10.7,4.8,10.7,10.7
	s-4.8,10.7-10.7,10.7H32c-5.9,0-10.7,4.8-10.7,10.7v277.3c0,5.9,4.8,10.7,10.7,10.7h448c5.9,0,10.7-4.8,10.7-10.7V117.3
	c0-5.9-4.8-10.7-10.7-10.7h-21.3c-5.9,0-10.7-4.8-10.7-10.7s4.8-10.7,10.7-10.7H480c17.6,0,32,14.4,32,32v277.3
	C512,412.3,497.6,426.7,480,426.7z"/>
<path class="st0" d="M272.2,252.5c-2.7,0-5.5-1-7.6-3.1l-76.7-76.7c-4-4-4.2-10.5-0.4-14.7l62.9-69.8C295,36.7,365.8,1.1,426.5,0
	c3.6,0,5.7,1.1,7.7,3.1c2,2,3.2,4.8,3.1,7.7c-1.2,60.6-36.7,131.5-88.4,176.2l-69.6,62.7C277.3,251.6,274.7,252.5,272.2,252.5
	L272.2,252.5z M210.2,164.8l62.4,62.4l62.3-56.1c44.3-38.3,75.6-96.9,80.5-149.1c-52.2,4.9-110.7,36.2-148.9,80.4L210.2,164.8z"/>
<path class="st0" d="M300.9,303.1c-1,0-1.9-0.1-2.9-0.4c-3.7-1-6.6-4-7.5-7.8L275.4,232c-1.4-5.7,2.2-11.5,7.9-12.9
	c5.8-1.4,11.5,2.2,12.9,7.9l10,41.8c18.5-29,22.2-66.1,22.6-87.8c0.1-5.9,5.3-10.2,10.9-10.5c5.9,0.1,10.6,5,10.5,10.9
	c-0.9,50.5-15.7,92.6-41.7,118.6C306.4,302.1,303.7,303.1,300.9,303.1L300.9,303.1z"/>
<path class="st0" d="M207.8,162.2c-0.8,0-1.6-0.1-2.5-0.3l-62.9-15.1c-3.8-0.9-6.7-3.7-7.8-7.5c-1-3.7,0-7.7,2.7-10.4
	c26-26,68.1-40.8,118.6-41.7c5.6,0.3,10.8,4.6,10.9,10.5s-4.6,10.8-10.5,10.9c-21.7,0.4-58.8,4.1-87.8,22.6l41.8,10
	c5.7,1.4,9.3,7.1,7.9,12.9C217,158.9,212.6,162.2,207.8,162.2z"/>
<path class="st0" d="M128,320c-2.8,0-5.5-1.1-7.6-3.1c-2.8-2.8-3.8-6.8-2.7-10.6c3.5-11.8,21.8-71.2,36.1-85.5
	c17.3-17.3,45.4-17.3,62.7,0c17.3,17.3,17.3,45.4,0,62.7c-14.3,14.3-73.8,32.6-85.5,36.2C130.1,319.9,129,320,128,320L128,320z
	 M185.3,229.1c-5.9,0-11.8,2.2-16.3,6.7c-6,6.1-16.5,32.8-24.6,57.1c24.4-8.1,51.1-18.6,57.1-24.6c8.9-9,8.9-23.6,0-32.5
	C197,231.3,191.2,229.1,185.3,229.1L185.3,229.1z M209.1,275.9h0.2H209.1z"/>
</svg>
