<svg 
 xmlns="http://www.w3.org/2000/svg"
 xmlns:xlink="http://www.w3.org/1999/xlink"
 width="0.564cm" height="0.67cm">
<path fill-rule="evenodd"  fill-opacity="0" fill="rgb(0, 0, 0)"
 d="M-0.000,-0.000 L16.000,-0.000 L16.000,16.000 L-0.000,16.000 L-0.000,-0.000 Z"/>
<path fill-rule="evenodd"  fill="rgb(133, 139, 166)"
 d="M7.202,17.405 C3.779,17.405 1.000,14.626 1.000,11.202 C1.000,7.779 3.779,5.000 7.202,5.000 C10.626,5.000 13.405,7.779 13.405,11.202 C13.405,14.626 10.626,17.405 7.202,17.405 ZM7.202,6.378 C4.537,6.378 2.378,8.537 2.378,11.202 C2.378,13.867 4.537,16.027 7.202,16.027 C9.868,16.027 12.027,13.867 12.027,11.202 C12.027,8.537 9.868,6.378 7.202,6.378 ZM15.000,18.025 L14.025,19.000 L12.076,17.050 L13.050,16.076 L15.000,18.025 Z"/>
</svg>