<?xml version="1.0" encoding="UTF-8"?>
<svg viewBox="0 0 1440 530" xmlns="http://www.w3.org/2000/svg" xmlns:xlink="http://www.w3.org/1999/xlink">
<defs>
<path id="h" d="M0 989h1453.94V0H0z"/>
<path id="g" d="M0 989h1453.94V0H0z"/>
</defs>
<g fill-rule="evenodd">
<g transform="translate(-9 -225)" fill="#BF9B30">
<path d="M660.15 332.628h35.105l37.972 37.986h134.791L898.62 340h31.385v6.778h15.207v-15.213h-15.207v6.312h-32.264l-30.6 30.61H734.106l-37.972-37.983H660.15v-6.546h-15.21v15.213h15.21z"/>
<path d="m660.15 305.83h51.993l37.796 37.81h96.331l39.324-39.338h44.411v8.073h15.207v-15.214h-15.207v5.019h-45.29l-39.323 39.34h-94.574l-37.796-37.812h-52.872v-6.547h-15.21v15.214h15.21zm74.624 367.88h-40.07l-27.132-27.144h-135.31l-29.736-29.745h117.21l28.491-28.501h14.805v6.544h15.208v-15.214h-15.208v6.547h-15.683l-28.491 28.5h-118.46l-70.937-70.964h41.911l28.175 28.187h83.496v6.542h15.208v-15.213h-15.208v6.548h-82.619l-28.174-28.186h-105.63l-29.708-29.719h152.59v6.543h15.208v-15.212h-15.208v6.546h-154.71l-26.764-26.774h-306.9v2.123h306.02l58.594 58.615h60.723l70.937 70.963h-0.3v2.125h2.422l31.858 31.868h135.31l27.134 27.144h40.95v6.544h15.207v-15.214h-15.208z"/>
<mask id="f" fill="#fff">
<use xlink:href="#h"/>
</mask>
<path d="m983.06 454.42h15.208v-15.213h-15.208z" mask="url(#f)"/>
<path d="M1191.814 543.63v6.547h-164.625l-57.376-57.399h-26.986v-6.452h-15.21v15.214h15.21v-6.639h26.108l55.254 55.276H911.3l-18.253-18.26v-.1h-.099l-20.099-20.103h-94.22l-18.837-18.841H727.79v-6.547h-15.208v15.214h15.208v-6.544h31.127l18.832 18.839h94.223l17.977 17.982H825.36l-24.002 24.01H679.965l-23.09-23.099h101.241v6.547h15.208v-15.216h-15.208v6.548H654.753l-32.892-32.905h16.269l26.797-26.805h69.848v6.544h15.208v-15.214h-15.208v6.547h-22.727l45.416-45.433h91.64l49.05 49.068h84.902v6.544h15.208V463.74h-15.208v6.546h-84.023l-46.93-46.945h25.029l36.01-36.023h16.863v6.547h15.206V378.65h-15.206v6.544h-17.74l-36.012 36.024H756.585l-47.538 47.555H664.05L637.25 495.58h-93.755l-33.801-33.815H.523v2.123h508.293l33.801 33.813h76.244l60.226 60.248h123.15l24.001-24.01h65.832l18.351 18.358h212.16l-74.165 74.192H856.158l-23.009-23.013h-22.953v-6.923h-15.208v15.213h15.208V605.6h22.074l23.01 23.016h194.015l76.29-76.317h66.229v6.546h15.208v-15.213z" mask="url(#f)"/>
<path d="m1031.1 672.79h-23.1l-24.471-24.483h-131.83l-20.075-20.083h-21.395v-6.547h-15.208v15.214h15.208v-6.546h20.516l20.076 20.085h131.83l24.47 24.483h23.979v6.545h15.208v-15.214h-15.208zm-78.869 16.108l-14.15-14.155h-90.017l-21.39-21.4h-16.445v-6.545h-15.208v15.213h15.208v-6.548h15.566l21.39 21.403h90.017l15.029 15.034v10.404h15.208v-15.214h-15.208zm-416.24-304.01h-15.208v15.213h15.208v-6.545h17.694l34.113-34.128h57.18v6.544h15.21v-15.211h-15.21v6.544h-58.058l-34.114 34.128h-16.815z" mask="url(#f)"/>
<path d="M483.488 450.975h13.617v-6.193h91.864l55.97-55.992v3.985h15.21V377.56h-15.21v8.227l-56.848 56.873h-90.986v-5.308h-13.617v5.308H.824v2.121h482.664z" mask="url(#f)"/>
<path d="M451.218 419.664H1.127v2.123h450.97l68.649-68.676v5.256h15.208v-15.213h-15.208v6.955zM415.639 579.228h-50.193l-74.627-74.65H.523v2.12H289.94l74.63 74.653h48.945v28.246h-6.542v15.214h15.208v-15.214h-6.542z" mask="url(#f)"/>
<path d="M321.059 386.229h116.183l32.453-32.465v4.603h15.208v-15.214h-15.208v7.61l-33.332 33.343H323.181l30.848-30.86h66.944l27.07-27.077h18.134v4.69h15.208v-15.214h-15.208v8.4h-19.012l-27.07 27.078H353.15l-46.94 46.959H.824v2.122H307.09z" mask="url(#f)"/>
</g>
<g transform="translate(-9 -225)" fill="#BF9B30">
<path d="m804.9 583.7l-1.418-1.313 58.589-63.33h586.32v1.931h-585.48z"/>
<mask id="e" fill="#fff">
<use xlink:href="#g"/>
</mask>
<path d="m790.72 591.66h15.24v-16.474h-15.24zm0 29.02h15.24v-16.47h-15.24zm0 29.02h15.24v-16.472h-15.24zm0 29.022h15.24v-16.473h-15.24zm179.15-20.019h15.243v-16.473h-15.243zm-3.524-29.785h15.241v-16.472h-15.24zm-19.848-173.32h15.241v-16.473h-15.24zm-93.749-65h15.243v-16.473h-15.243zm-80.159-17.757h15.24v-16.474h-15.24zm-71.893-94.761h15.24v-16.473h-15.24zm328.5 62.334h15.243v-16.473h-15.243zm-351.9 92.618h15.241v-16.473h-15.24zm45.632 40.86h15.241v-16.473h-15.24zm-22.24 26.095h15.24v-16.473h-15.24zm-195.65 90.497h15.24v-16.473h-15.24zm0 50.984h15.24v-16.473h-15.24zm0 37.257h15.24v-16.473h-15.24zm-53.166-180.38h15.24v-16.473h-15.24zm0 26.566h15.24v-16.473h-15.24zm55.556-51.021h15.243v-16.473h-15.243zm-264.76-62.05h15.241v-16.473h-15.24zm161.09-132.76h15.241v-16.473h-15.241zm79.039-22.574h15.241v-16.473h-15.24zm157.55 98.031h15.242v-16.473h-15.242zm0-27.199h15.242v-16.473h-15.242zm0-27.202h15.242v-16.473h-15.242zm274.83 328.79h15.24v-16.472h-15.24zm0-45.19h15.24v-16.473h-15.24zm38.932-56.811h13.646v-14.75h-13.646z" mask="url(#e)"/>
<path d="m1448.7 500.3h-507.18l-33.873-36.614h-93.991l-26.854 29.025h-78.483v-1.932h77.637l26.856-29.024h95.68l33.873 36.614h506.34zm-0.605-22.987h-304.48l-58.72-63.468h-105.86l-28.234-30.52h-89.37v-1.931h90.214l28.236 30.52h105.86l58.72 63.468h303.63z" mask="url(#e)"/>
<path d="m830.95 463.38l-60.068-64.927h-121.69l-24.053 25.998h-67.815v-1.931h66.971l24.054-25.998h123.38l60.642 65.544zm-292.9 119.83h-25.382v-1.932h24.539l36.087-39.005h119.92l47.355-51.183 1.417 1.312-47.926 51.803h-119.92zm391.43 38.998l-1.418-1.313 71.182-76.939h448.86v1.932h-448.01zm94.284-208.67l-104.86-113.34h-135.6l-27.191-29.392h-47.795v-1.931h48.639l27.191 29.391h135.6l0.286 0.31 105.14 113.65zm-69.642 34.789h163.1v-1.932h-163.1z" mask="url(#e)"/>
<path d="m684.92 425.76h111.65v-1.931h-111.65zm-84.71 118.14l-48.868-52.82h-91.844v-1.932h92.69l49.44 53.439zm130.34-77.276h-39.674l-18.873-20.403h-94.427l-38.532-41.648h-288.75v-1.931h289.6l38.53 41.648h94.423l18.879 20.402h38.83z" mask="url(#e)"/>
<path d="m515.06 466.72h-34.646l-57.787-62.46 1.417-1.314 57.214 61.842h33.803zm-189.62-62.46l-1.415-1.314 76.738-82.944h194.4l23.057 24.922h29.757v1.931h-30.603l-23.058-24.922h-192.71zm1123.3 49.687h-287.84l-74.787-80.837h-50.22v-39.367h1.93v37.435h49.136l74.785 80.837h286.99zm-444.55 195.48h-22.563v-1.931h21.719l27.126-29.323h67.087l47.041-50.844h303.84v1.931h-302.99l-47.04 50.845h-67.086z" mask="url(#e)"/>
<path d="m980.78 621.34l-1.418-1.314 34.756-37.565h116.85v1.932h-116.01zm-177.26-255.77h-23.32v-1.932h22.476l28.553-30.862h122.88v1.932h-122.03zm-163.18-45.505h-21.423l-20.12-21.747h-132.11l-24.525-26.51h-32.708v-1.931h33.552l24.527 26.51h132.11l20.12 21.746h20.578zm0-27.2h-16.46l-21.438-23.17h-90.21l-18.91-20.438 1.422-1.314 18.334 19.82h90.21l21.435 23.17h15.618zm223.78 320.55h-58.166v-1.932h57.322l34.187-36.954h25.334v1.932h-24.49zm-67.557 29.02h-41.891l-38.054-41.133h-133.36l-30.665 33.147h-42.404v-1.931h41.56l30.665-33.147h135.05l38.053 41.131h41.048z" mask="url(#e)"/>
<path d="m565.66 673.1h-55.459v-1.932h54.615l39.407-42.594h96.5l37.878 40.943h57.973v1.932h-58.817l-37.877-40.944h-94.813z" mask="url(#e)"/>
</g>
<g fill="#2A356B" opacity=".115">
<path d="M343.534 50.707l-9.238-3.998c-2.219-6-4.067-9.599-4.067-9.599-7.02-.8-18.476.801-22.542 2-4.062 1.2-6.65 5.783-11.457 4.69-4.802-1.09-14.412 1.71-16.997 2.11-2.586.399-2.957.399-5.545 1.598-2.586 1.199-8.129 3.2-8.129 3.2s1.479 3.199 2.586 3.199c1.11 0 3.695-3.999 1.11 0-2.587 3.999 3.325 5.598-2.587 3.999-5.914-1.6-3.326-2-8.869-2-5.542 0-13.304 2.612-13.304 2.612v2.987h2.586l2.957 1.999h6.283s.738 1.2 2.586 0l1.847-1.2-.369 4-4.804 2.8h-5.543l-5.543 3.598v1.999s-1.478 4 0 4.4c1.479.4 2.217 1.6 2.217 2.798 0 1.201-2.874 6-2.874 6s-2.136.8 0 2 3.983 3.2 3.983 3.2 2.955-2.8 5.543-4.8 9.607-4 9.607-4l2.957-1.199 4.805 1.2s3.695-.8 4.802-1.6c1.112-.8 4.436-2.4 4.436-2.4s3.326-.4 4.435-.4c1.108 0 8.805.8 8.805.8l5.978 1.601 1.477 2.398s.37 2.4 1.847 2.8c1.479.4 4.436 5.6 4.436 5.6.369 3.597-2.217 9.996-2.217 9.996 4.064 5.6 5.912 7.598 5.912 8.797 0 1.201.738 4.8.738 4.8s-1.476-2.4-2.586 0l-1.109 2.4-3.326 5.998-2.586 6s-1.478 3.598-1.848 5.197c-.369 1.601-4.064 6.4-4.064 6.4l-2.652 2.397s2.153 2 0 4.001c-2.153 1.999-4 7.998-4 7.998l-.738 2.8s-1.48 4.399-1.48 5.598c0 1.2.74 6.798.74 6.798s2.585 3.6 3.325 4.799c.739 1.199 4.065 7.598 4.065 7.598l4.066 4.4s.37.4 1.108 3.198c.74 2.8 1.847 13.198 1.847 13.198s1.11 4.398 2.217 6.798c1.11 2.4 4.066 8.398 4.066 8.398l4.065 2.8s1.478 3.599 1.85 0c.368-3.6 1.476-2.398 0-5.6-1.48-3.197.368 0-1.48-3.197-1.847-3.2-2.218-2.4-2.587-5.2-.37-2.8 0-.4-.37-2.8-.37-2.398-4.435-4.399-.37-2.398 4.066 1.998 5.542 4.798 6.283 6.397.74 1.6 1.847 6 2.588 7.598.738 1.6 2.955 6.799 2.955 6.799s0 5.999.37 7.997c.37 2 0 7.998 0 7.998s5.174 8 6.65 9.2c1.481 1.198 5.544 4.398 6.655 5.199 1.107.8 8.498 3.6 8.498 3.6s5.176 1.998 6.652 0c1.479-2.001 4.805-2.8 4.805-2.8h4.435s4.436 2.977 5.543 3.687c1.107.711 4.435 2.312 4.435 2.312l5.172 3.197h3.326s1.479 3.2 2.219 4.4c.738 1.2 1.476 4 2.217 5.199.738 1.199 2.955 4.399 2.955 4.399s1.847 1.998 2.959 2.8c1.107.8 2.955 2 4.433 2.8 1.479.799 3.324 2.397 5.543 2.397h12.567l2.585-1.998 2.957 6.397h-1.848l-2.957 8-1.847 3.599s-1.479 3.197-2.219 4.397c-.738 1.2-4.433 5.6-4.433 5.6l-1.479 3.199s.37 5.597 1.11 7.2c.74 1.599 2.587 3.997 2.587 5.198 0 1.2-2.218 4.798-2.218 4.798h-3.327s.739 4 1.848 5.2c1.11 1.2 2.217.8 3.326 4.397 1.108 3.6 4.805 9.998 4.805 9.998l6.652 15.596s-2.219 2.4 0 2.8c2.217.4 8.498 2.8 9.61 3.6 1.106.799 3.694 2.4 5.17 3.199 1.48.801 5.175 3.999 6.284 4.798 1.11.8 1.478.8 2.957 2.4 1.476 1.599 5.172 4 5.172 4v4.4s1.11 1.598 0 3.197c-1.108 1.599-1.848 5.598-1.848 5.598s-1.107-4.399 0 4.4c1.111 8.798 2.095 12.799 2.34 14.397.248 1.6 2.836 47.588 2.836 47.588l3.695 8.4v4.398s2.586 4.4 2.955 5.6c.371 1.198 0 3.998 0 3.998l.164 3.6v3.597s-.574 2.801 0 4.4c.576 1.6 4.64 7.998 5.75 9.597 1.107 1.6 2.955 3.201 4.066 4.4 1.108 1.2 5.172 6.398 5.912 6.398.738 0 5.543 5.2 7.021 5.2 1.479 0 8.87 1.199 9.239 0 .37-1.2.37-1.999 0-3.6-.37-1.6-.37-2-2.217-3.599l-1.848-1.6-3.695-2.399s-1.848-1.998-1.479-4.8c.37-2.8 2.217-5.998 2.217-5.998s.37-2 .37-3.199v-1.2l-3.327-4-.738-5.598 1.478-3.2s.739-.799-.369-3.596c-1.109-2.802-2.218-4.001-2.218-5.2 0-1.201-2.217 0 0-1.201l2.218-1.2s2.217 1.2 3.324 1.2c1.11 0 2.588.8 2.96-1.6.367-2.397.736-2.397.736-5.197 0-2.8 1.111-5.2 1.111-5.2s-.926-1.599 1.755-.8c2.678.8 3.417 3.2 4.895 1.999 1.479-1.2 2.588-2.398 4.436-5.997l1.847-3.6s3.696-.801 0-2c-3.695-1.2-5.914-2.398-5.914-2.398s-.738 0 0-2.4c.74-2.399 1.479-3.6 2.588-3.6h1.108s3.287 2 3.861 1.601c.574-.4.574 0 2.422-1.2 1.85-1.2 2.957-2 4.066-3.199 1.107-1.2 2.955-.4 4.064-3.6 1.11-3.2 1.848-2.399 2.217-5.199.37-2.8-1.478-1.199 0-4.398 1.48-3.2 2.588-4.001 4.066-7.598 1.477-3.6 2.217-5.598 2.217-5.598 0-4.001 2.955-12.398 2.955-12.398s1.48-.4 2.588-.8c1.107-.4 1.107 0 3.326-1.199 2.217-1.201 8.871-3.201 8.871-3.201s.738.4 1.848-1.999c1.107-2.4 1.847-3.6 2.585-7.198.739-3.6 0-6.4 0-6.4l.329-17.194 4.843-7.2s1.48-1.6 3.328-4.799c1.848-3.197 2.955-3.597 3.326-5.198.37-1.599 1.477-1.599 2.955-5.2 1.48-3.599 2.957-6.397 2.957-6.397-.369-3.2-.369-4.8-1.847-6.399-1.477-1.6-1.477-.4-6.652-4.398-5.174-4-4.803-4.799-8.5-5.998-3.695-1.203-10.715-1.603-10.715-1.603-4.435-.799-2.219.4-8.87-2.797-6.653-3.2-10.348-3.2-10.348-3.2h-3.695c-1.11 0-5.176 1.2-5.176 1.2l.74-7.597s-.369-4.4-1.107-6c-.74-1.6 0-.8-2.588-3.998-2.588-3.2-4.436-4.8-6.283-5.6-1.848-.8-5.914-.8-5.914-.8s-1.107-.8-2.584-2.8c-1.48-1.998 0-1.598-6.283-4.797-6.283-3.2-5.914 2.716-11.088-2.64-5.171-5.36-2.588-1.761-5.171-5.36l-2.588-3.598-5.545-2.8-4.803 1.2c-6.652-4-8.5-4-8.5-4l-4.066 4-1.476 3.2-1.479-4-2.588-4.398s-2.588-.802-3.695-.802c-1.107 0-5.174 2-5.174 2l-1.109 6.8-3.326 3.599-2.217 1.998-11.087 2.161-6.282-4.559s-2.585-2.8-4.064-6c-1.478-3.197-1.848-1.598-1.848-5.197 0-3.6-.37 2 0-3.6s2.215-6.798 1.108-9.998c-1.108-3.2 1.847-1.598-1.108-3.2-2.957-1.598-4.435-1.598-5.542-1.598-1.112 0-2.22 1.998-3.328 0-1.108-2-.368 1.2-1.108-2-.74-3.2-1.478.4-.74-3.2.74-3.6 1.848-5.997 1.848-5.997l.74-2.4s.369-.4-.74-2.8c-1.108-2.398-.739-2.798-3.327-4.399-2.587-1.599 0-1.199-2.587-1.599-2.584-.4-4.434 0-4.434 1.6v5.998l-1.11 2-2.214 2c-3.328.4-6.654 1.598-6.654 1.598l-7.02-1.998-2.218-4.001-2.588-6.397s.74-6.799 1.11-7.998c.37-1.201 3.325-7.998 3.325-9.199 0-1.2-1.107-2.798 0-4.798 1.108-1.999.74-2.8 3.696-4.799 2.959-2 4.806-3.2 6.283-3.599 1.478-.4 6.28-1.6 6.28-1.6s0-.8 2.589-.4c2.587.4 6.654 1.2 6.654 1.2l1.847 1.2 2.215-.4s1.848-1.2 2.957-2c1.11-.8 2.957-2.4 2.957-2.4s0-.8 2.588-.8c2.586 0 8.498.8 8.498.8s1.48 0 2.217 1.6c.74 1.6 1.478 2.8 1.478 5.198v7.599s-.367 3.998 2.957 3.998c3.326 0 7.392 0 7.762-1.199.369-1.199.738 3.6.369-1.199-.37-4.798-.37-5.6-1.11-7.198-.738-1.6-.738-1.201-1.107-3.6-.37-2.4-.37-2-.37-4.398 0-2.4-1.109.8 0-2.4 1.108-3.2 1.108-2.398 3.696-5.6 2.586-3.197 1.848-1.998 5.543-4.798 3.695-2.8 6.283-3.999 7.39-5.198 1.11-1.2 1.479 0 2.957-2.8 1.479-2.8 2.586-2.4 4.065-5.598 1.478-3.2 1.478-4 3.328-6.399 1.847-2.4 1.847-1.6 4.064-4.798 2.217-3.2 5.912-6.399 5.912-6.399s1.11-.8 2.217-.8c1.11 0 1.847.4 3.695 0 1.848-.4 2.588.8 3.695-2.8 1.112-3.598 1.479-4.398 2.96-5.999 1.476-1.598 2.583-2.4 4.064-3.599 1.478-1.199 4.802-3.597 4.802-3.597.74 2.798.371 6.397.371 6.397l1.848 2s4.064 1.2 5.174-1.2c1.109-2.4 2.587-4.4 2.587-4.4s2.217-1.998 3.325-1.998c1.107 0 1.478.4 3.326.4 1.847 0 1.478 1.599 4.064 0 2.588-1.6 4.807-2.8 4.807-4 0-1.2 2.214.8 0-1.2-2.22-1.998-2.588-2.398-4.067-1.998l-1.478.4h-6.281s-1.848-1.601-.371-3.2l1.478-1.6s-3.14-1.2-9.238 0c-6.1 1.2-7.021-2-7.021-2s0-.6.738-1.198c.738-.601 1.664-1.202 4.064-2.202 2.403-.998 4.805-1.599 7.022-1.599h6.468c.924 0 3.324.4 4.436 0 1.107-.4 4.064-.198 4.988-.4.924-.2 3.879-.2 4.804-.399.922-.2 4.989 1.2 7.39-1s2.956-2.2 4.249-3.6c1.295-1.4 2.404-1.198 2.404-3.398 0-2.201-.186-3.599-.186-3.599s-.554-1.6-.923-2.599c-.37-1-.184-3-1.11-2.8-.922.2-2.214 1.2-2.214 1.2-1.112-.8-2.22-1.601-2.405-2.4-.183-.8-1.476-2.6-1.476-2.6s-.555-.199-.74-1.199c-.186-1-.37-3.6-.186-4.2.186-.598.555-1.199.555-1.998 0-.8.554-.8.37-2.201-.185-1.398-.554-3-.554-3s-.555-1.198-1.848-1.397c-1.292-.2-1.664-1.201-4.251.4-2.586 1.598-3.51 2.398-4.065 2.599-.552.199-.552.4-1.478.8l-.922.399s1.476.598 0 0c-1.48-.6-4.621-3.2-4.621-3.2s-.924-1.8-.924-2.599c0-.801-.185-2-.185-2l-6.096-4.598-3.512-1.8s-4.435 0-4.99.2c-.552.2-3.695 2.199-3.695 2.199l-.738 1.4-.555 3.2-2.033 1.198s0 .201-.924 0c-.924-.198-2.586-.198-2.586-.198V80.7l.186 2.999.369 4v3.198c0 1.201.183 1.601 0 2.601-.186.999-.555 2.398-1.48 2.6-.922.198-2.4.198-2.4.198s-2.772 1-3.513 1.6c-.738.601-2.4 1.8-2.4 1.8l-1.847 1.6s-.372 1.4-.926 2.998c-.555 1.6-1.108 2.8-1.662 3.2-.555.401-2.033 1.8-2.957 2-.924.199-2.031-.2-2.957-.6-.922-.4-1.848.4-2.217-1.4-.37-1.798-.37-2.399-.37-3.399s0-3.6.184-4.6c.186-.998-.183.402.186-.998.37-1.401.37-3 .37-3s-.556-.8-2.401-1.2c-1.85-.399-6.098-1.4-7.209-1.598l-2.217-.402s-1.107-.4-2.771-1.199c-1.662-.8-3.324-.6-4.25-1.6-.922-.999-1.848-1.2-2.033-3.198-.184-2-.737-1.802 0-3.8.74-1.999.185-2.2 1.847-4.798 1.664-2.6 2.588-3.4 4.807-4.799 2.217-1.4 2.217-1.2 4.064-2.201 1.848-.998 3.512-1.2 4.62-1.8 1.109-.598 2.773-.998 4.62-1.998 1.848-1 6.096-1.599 6.096-1.599l.924-.4s1.664-.2 2.033-1.2c.37-1 1.107-1.4 1.293-3 .185-1.6 0-2 .926-3.199.921-1.2 2.216-2.8 2.216-2 0 .8.184 2.8.184 2.8 1.664.799 3.512.799 4.064.799.555 0 2.219-1.2 2.588-1.8.371-.598 2.771-2.398 3.326-2.798.555-.401 2.033-1.2 2.957-1.2.924 0 1.848.6 3.14 0 1.294-.6 3.327-1.2 4.067-1.8.736-.599 2.586-1.2 2.586-1.999 0-.801.369-1.4-.186-2.199-.552-.801-.738-1.6-1.478-1.6-.738 0-1.662-.2-2.586.6-.924.8-2.031 1.8-2.771 2.398-.739.6.554.4-2.588 1.201-3.14.8-5.36 1.4-5.912 1.4-.555 0 .369 1.8-.555 0s-1.293-3.4-1.293-3.4c-.555-1.2-1.295-1.2-1.847-1.8-.555-.599-1.11-.8-1.11-2.599 0-1.8.186-2.8.186-3.6 0-.799.554-1.799-.555-1.799h-2.402c-1.11 0-1.295 0-2.403.6-1.109.6-2.033-.2-3.326 2.2-1.293 2.398-2.586 5.198-3.14 6.399-.555 1.2-.924 2.2-.924 2.2l-2.033 2.199s-3.695.4-5.174.4c-1.478 0-3.879-.4-4.804-.601-.922-.2-5.174-1.2-6.098-1.4-.924-.199-3.695-.4-5.36-.4h-4.802l-2.773 1c-1.108.4-3.14 1.4-4.065 1.8-.923.4.186 1.2-2.216.6-2.403-.6-4.25-1-4.805-1.4-.555-.4-.922-.799-2.77-.799-1.849 0-1.48.2-2.958 0l-1.477-.2s.738-2.4-1.11-2.8c-1.849-.4-2.216-.4-5.358-.4-3.141 0-5.914.4-7.576 0-1.663-.4-2.955-.199-4.62-.8-1.662-.6-2.03-1.8-4.988-2.199-2.957-.4-3.326-.801-4.804-.4-1.479.4-7.022 1.2-8.87 1.6-1.847.399-3.88 1-6.282 1.6-2.403.599-4.62 1.599-6.469 1.798-1.847.2-3.413 2.442-5.357 1.6"/>
<path d="M420.77 36.895s-2.215.415-3.51-.985c-1.292-1.398-.923-.598-2.218-1.998-1.293-1.4-3.695-2.2-5.543-3.4-1.848-1.2-.924-1.2-3.14-1.399-2.217-.2-5.543-.8-6.098 0-.553.8-3.88 1.398-3.88 1.398s-1.294.201-2.218 1c-.923.8-3.511 3.2-3.511 3.2s-1.293 1 0 1.2c1.295.2 1.847.969 2.402.984.555.016 1.11-.015 2.033 0 .922.016 1.479.185 2.402 0 .924-.185 3.817 0 3.817 0s.986-1.045.986.085.371 3.33.371 3.33-.37 1 0 1.8 1.662 3.799 1.662 3.799l2.403 1.2h5.173s.926-1.2 1.662-1.801c.74-.599.74-.998 1.664-.998.924 0 7.76.8 7.76.8 1.478 1.4 5.728 1.598 6.283 2 .557.4.738 1.797 1.848 0 1.109-1.802 3.326-2.601 3.326-2.601s.925 1.199 1.478-.4c.555-1.599 1.295-2.2.924-3.798-.37-1.6-1.848-2.431-1.11-3.416.74-.985 1.678-.585 1.21-2.383-.47-1.801.086-2.2-1.948-2.2-2.03 0-3.695 1-4.619 1.6-.923.6-2.033 1.599-2.033 1.599s-.924 1.369-2.4 1.384c-1.48.016-5.176 0-5.176 0M477.129 34.11c-.509.708-.74.403-.74.403s-.186.366 0 2.382c.185 2.014.74 2.816.74 2.816l3.51 2.8 3.14-3.202s4.804 1.4 5.359 1.4c.555 0 5.357.401 5.357.401s.74-.401 1.48 0c.739.4 3.327 1.4 3.327 1.4s-.186-1.801.922 0c1.11 1.8 2.218 2.6 2.218 3.798 0 1.2-.74 3.6 0 4.2.739.599-.74.8 0 1.999.739 1.199.797 2.4.213 3.8-.584 1.4.526.598-.584 1.4-1.107.799-1.293-1.201-2.586 0-1.294 1.199-2.216 1.797-2.771 2.398-.555.6-1.293 0-1.293 0l-.74 1.199s-.37.801-.37 1.6c0 .8.925 3.799.925 3.799l4.988 4.4s1.11-1 1.847 0c.74.999 2.96.999 3.696 1.2.74.2 1.847.399 3.142 0 1.293-.4 2.957-1.8 2.957-1.8s1.11.4 0-1.999c-1.11-2.4-.371-1.801-2.404-3.2l-2.03-1.4s2.586-1.4 3.325-1.4c.738 0 1.847.8 2.402 1.6.555.801-.738.6.555.801 1.295.199 2.216-.801 2.216-.801v-2.6c0-1.4 1.293-2.998-.921-3.998l-2.22-1s-1.847-1.798.554-1.398c2.402.4 1.859.598 2.962.799 1.104.199 4.428.998 2.766-3.6-1.662-4.599-3.51-7.198-3.51-7.198l-1.847-1.4-.186-1.4.555-1.199c.369-.8 1.107-3.106.554-2.753-.554.353-1.294-1.477-2.587-1.462-1.293.016-1.662.784-2.955 0-1.295-.784-2.034-1.384-3.328-1.784-1.293-.4-.737.2-2.215-1-1.48-1.2-2.774-1.999-2.774-1.999-2.03-.4-4.619-1.2-5.728-1.2-1.107 0-.555-.999-2.586 0-2.031 1-2.031 1.6-3.697 1.799-1.662.2.926-.599-1.662.2-2.586.8-4.248.6-4.248.6s.183-.8-.371-1.2c-.555-.4-2.772-1.8-5.357 1.8"/>
<path d="M518.086 16.449s33.261-7.732 34.247-7.465c.983.266 0 1.867 0 1.867l.436 1.862-2.902 1.869s1.725 1.6-2.217.801c-3.94-.801-6.405-.535-6.405-.535s-1.724-.266-2.71-.266c-.985 0-3.105.266-3.105.266l1.38 3.466 4.68 2.667 3.452 1.066 3.695 1.334c.737.266 3.586 1.865 4.132 2.666.547.8 6.954 5.598 6.954 5.598s-.247 1.865 0 2.667c.246.8-.493 1.691 0 4.045.493 2.352 0 7.152 0 7.152s-2.71 3.732-3.695 3.732c-.986 0-3.202-.874-5.176-1.237-1.97-.363-3.94 0-3.94 0v5.236s-.248 2.134.492 4.266c.74 2.133 3.203 6.932 3.203 6.932l.985 3.466s.74 1.599 1.479 2.4c.738.8 3.202 4.532 4.926 5.331 1.726.8 4.681 2.132 5.667 1.867.985-.268 2.957-.535 4.188-2.666 1.233-2.134 2.464-3.733 2.71-5.333.247-1.6 5.175-10.132 5.175-10.132s1.971 0 3.203-.8c1.23-.799.245-.532 2.216-1.065 1.972-.533 4.929-1.333 5.667-1.333.738 0 6.16-1.867 6.16-1.867 1.478-1.599 1.478-2.413 2.216-2.805.74-.394 1.726-.66 2.464-1.46.74-.8 2.71-2.74 4.683-2.037 1.97.705 8.129.363 8.869 0 .736-.363 6.65 0 6.65 0s2.464.898 3.45 0c.986-.896-.493 1.237.986-.896 1.478-2.134 4.68-2.904 4.928-3.852.245-.946-.986.652 0-3.347.983-3.999.983-1.598.983-3.999 0-2.4-.738-5.02 0-5.443.739-.42 2.465-1.759 2.465-1.759 2.464-.529 6.652 0 6.652 0l1.724-1.328 1.233-2.933s1.476.8 1.476-2.4c0-3.198-.985-3.466 0-4.799.986-1.332 1.48-1.6 2.712-2.4 1.23-.8 3.695-.8 4.926-1.865 1.233-1.066 3.94-4.013 3.94-4.007 0 .008.741-1.058 0-1.326-.735-.265-2.214-1.333-2.214-1.333s-1.233 1.333-2.71 0c-1.478-1.332-1.97-.533-2.958-1.598-.984-1.066-1.477-1.868-3.203-1.868-1.724 0-4.188.802-5.419 1.601-1.231.8.738.533-1.231.8-1.971.266-5.421.266-8.376.266h-6.162c-2.955 0-1.969.533-6.157 0s-6.654-.533-10.595-.533c-3.942 0-5.173.267-5.912 0-.74-.266-3.695-2.134-3.695-2.134-2.464-.799-6.407-2.131-6.407-2.131s-.164-1.601-2.423 0c-2.258 1.598-2.258 1.598-3.49 2.131a31.6 31.6 0 0 0-2.217 1.066s.74.267-3.203.267c-3.94 0-4.188.268-6.9 0-2.709-.267-3.202 0-4.678-.267-1.479-.264-4.434-.264-5.667-.264-1.233 0-11.578-.535-11.578-.535s-3.203.8-5.669-.8C540.014.72 538.288.72 536.32.72h-5.421c-.74 0-5.421.533-6.65 1.332-1.234.8-6.162 2.933-8.133 3.732-1.97.8-1.231 1.066-3.203 1.601-1.969.533-8.623 2.931-8.623 2.931s-5.599.8-6.372.8h-.771l-6.405-.533c-1.48.533-3.204 2.666-3.204 2.666s-1.724 2.134 0 4c1.724 1.865 2.218 4.531 3.204 4.531.984 0 2.71 1.066 3.94.801 1.232-.266 1.792.265 3.236.533 1.446.267 4.648 1.866 4.648 1.866 2.217-.267 1.478.266 3.202-1.066 1.726-1.333 3.45-2.4 3.45-2.4s3.203 3.732 4.681 1.867c1.478-1.867 4.188-6.932 4.188-6.932M781.208 190.542c-1.52-.363-9.856-.533-10.593 0-.74.533 1.724.266-3.697 0-5.42-.267-5.666.266-7.883-.4-2.217-.666-2.464-.666-4.927-1.732-2.466-1.068-2.466 0-3.942-2.133l-1.479-2.134s-3.45-1.865-4.435 0c-.986 1.867-1.971 4.267-1.971 4.267v2.44l-.984 1.293h-1.971c-3.696 0-4.683 2.664-8.131 0-3.45-2.667-2.462-1.779-4.681-3.822-2.217-2.044-.986-2.31-3.45-2.846-2.462-.53-1.23 1.867-4.926-1.066l-3.697-2.93s-3.941-1.335-3.941-2.134v-2.132c0-3.468-1.478-3.468 0-5.067 1.479-1.599 3.202 0 2.462-2.666-.736-2.667.905-4.532-3.12-4.532-4.023 0-4.023 0-8.21 2.133a494.937 494.937 0 0 1-8.624 4.266s.492.8-4.929.266c-5.419-.533-6.897-.8-9.852.8-2.957 1.598-1.48 3.999-4.929 2.133-3.45-1.867-6.404-2.666-7.39-2.666-.986 0 .738.266-4.188 1.6-4.928 1.333-7.638 2.399-9.364 3.733-1.724 1.332-1.724.118-2.955 1.925-1.233 1.805-2.464 5.005-3.202 6.872-.74 1.865-1.233 3.733-1.233 5.065 0 1.332.247 1.599 0 3.732-.246 2.134-1.479 4-3.448 5.067-1.973 1.066-3.45 4.798-4.436 5.331-.985.533-1.725 2.134-3.447 3.466-1.726 1.334-4.436 2.933-5.914 4.532-1.479 1.599-3.943 5.6-5.669 8.53-1.722 2.934-1.722 4.801-1.722 6.933 0 2.133-.493 3.468 0 5.6.493 2.133 1.722 5.064 2.215 6.665.495 1.599 1.48 3.198.247 5.331-1.23 2.134-2.9 2.134-2.68 3.733.218 1.6-.021 4.798-.021 4.798l1.225 7.467s.736 2.664.736 3.466c0 .8 1.233 3.197 1.233 3.197l6.161 2.134s2.463 10.398 3.201 11.197c.74.802 5.176 2.665 5.667 3.466.492.8 4.928 5.598 4.928 5.598s2.217 2.134 3.448 3.2c1.233 1.067 3.697 2.133 4.435 2.133.738 0 4.188.8 5.42 0 1.232-.8 5.175-2.933 5.175-2.933s1.97-1.599 3.202-.266c1.231 1.334 1.724 3.732 4.681 1.6 2.955-2.133 5.667-3.201 7.638-4 1.971-.8 4.68-2.132 6.16-2.132h5.171s3.452 1.332 4.188 2.93c.74 1.602 1.48 2.135 2.712 3.202 1.23 1.064 1.476 2.31 3.202 1.954 1.724-.355 4.681-1.154 4.681-1.154s3.45 1.599 4.188 2.664c.74 1.066 2.464 2.134 2.464 2.134s1.479-2.666.986 3.466c-.493 6.133-.986 7.731-.986 8.53 0 .8.246.534-.74 2.667-.984 2.132-1.724 3.466-1.97 4.266-.247.801-2.218 3.466-.247 4.798 1.972 1.332 5.421 4.267 6.405 5.067.986.8 3.204-1.068 3.695 1.865.493 2.933.988 5.598.988 5.598s1.045 4.534 2.71 8.532c1.663 4.001 1.294 5.2.923 5.799-.369.6-.554 1.2-.554 1.8 0 .598.74 3.999.74 3.999s.554.799.554 1.4c0 .6.184 1.2.184 2.598 0 1.4-.738 3.602-1.478 5-.739 1.4-1.848 3.4-2.4 4.8-.555 1.398-.741 2.398-1.11 3.599-.371 1.2-1.293 3.597-1.664 4.798-.37 1.2-1.477 4-1.108 4.598.368.602 2.215 3.599 2.772 4.6.555 1 10.162 19.594 10.162 19.594s-.184 3.4 0 4c.185.6-.37 4.8-.37 4.8s-.185 1.4-.368 3c-.186 1.599.369 5.798.369 5.798l1.847 4.198 2.217 2c1.11.999 2.219 2.399 2.586 3.2.371.8.74 2.198 1.295 2.798.553.6 1.293 2.6 1.293 2.6s3.14 12.197 5.543 12.797c2.404.599 4.435 0 4.435 0l1.848.267 4.988-1.667s0 1.599 2.033.201c2.033-1.4 2.588-2 3.14-2.201.555-.201.926-.6 2.403-.8 1.478-.2 3.511 0 4.066-1.199.555-1.199 0 1.2 3.51-2.998 3.511-4.2 5.914-6.2 6.1-7 .183-.8 2.402-3.2 2.402-3.2l3.14-2.398s3.14-.6 3.14-1.6c0-.999.555-2.2.924-4 .372-1.797 1.108-3.199 1.293-4.599.186-1.398.74-2.998 2.955-5.399 2.22-2.4 4.067-3.398 4.807-4.197.74-.8 1.662-.6 2.033-2 .37-1.4.922-3.6.922-3.6s.926-.8 0-1.798c-.922-1.002-1.107-1.2-1.478-2.801-.37-1.6-.922-1.2-.922-3.6 0-2.398-.74-.998 0-2.398.738-1.4 5.357-11.197 5.357-11.197s4.619-1.4 5.545-2.8c.922-1.4 1.662-2.599 3.51-3.8 1.847-1.2 4.25-3.198 4.435-3.798.185-.599 1.478-3.399 1.662-4.399.185-1 1.478-3 .924-5.798-.553-2.8-.37-2.201-.924-4.6-.555-2.4-.555-2-1.11-4.398-.552-2.4-.738-3.2-1.478-5.4-.736-2.2-.922-2.2-1.293-3.8-.369-1.598-.554-1.998-.924-4.199-.37-2.197-.552-3.999-.552-3.999s.552-3.997.738-4.999c.184-.998 21.064-28.792 21.064-28.792s2.588-2.4 4.25-5.399c1.664-2.998 4.066-5.8 4.435-6.399.37-.6.924-.6 2.586-4.398 1.662-3.798 1.479-3.6 2.773-5.799 1.293-2.199 2.4-3.398 2.956-5.999.554-2.599.554-.599.554-2.599 0-1.999.924-3.398 0-3.6-.926-.198-1.847-.799-2.773-.799-.922 0-2.584.8-3.51 1-.924.2-.555.6-2.771.999-2.217.401-4.434 1-6.838 1h-4.988s-1.295.2-2.402-.199c-1.108-.4-1.108.2-2.403-.801-1.293-.998-4.248-8.996-4.248-8.996l-1.48-2s-1.848-3.4-2.215-4c-.371-.6 0 .4-1.48-1.998-1.479-2.4-1.848-3.4-2.955-4.4-1.112-1-2.588-2.399-2.588-2.399s-1.479 0-2.586-1.402c-1.11-1.398-1.848-1.598-2.219-2.599-.369-.998-.554-1.998-1.11-3.798-.552-1.8.927 1.8-.552-1.8-1.478-3.599-1.848-4.599-1.848-4.599l-2.956-7.799s-.372-.8-1.293-3.197c-.926-2.4-.926-2.8-1.848-4.8-.926-1.999-2.033-4.799-2.033-4.799s-2.402-4.798-2.588-5.598c-.186-.8.371.4-.186-.8-.552-1.2-1.107-1.8-1.29-3.2-.186-1.398-.186-2.6-.186-2.6h.924l1.847 1.202 1.11.998s.554 0 1.847 1c1.295 1 3.143 2.4 3.881 3 .738.6 1.848 1.798 2.217 2.399.369.6.185.4 1.107 2.8.926 2.4 2.219 4.999 2.219 4.999l1.662 3.2 2.588 4.197 1.662 4.2 1.664 4.198 2.402 5.6s.184.4 1.662 1.799c1.479 1.4 2.588 3.798 3.14 4.399.556.6 1.11 1.199 1.665 2.4.555 1.199.924 1.4 1.664 3.398.738 2 .922 2.999 1.293 4.2.369 1.199 1.476 3.398 1.476 3.398l1.848 2s1.478 1.2 2.033 1.2c.555 0 1.664.2 2.957 0s4.434-.2 5.728-1.2c1.293-1 .739-.6 2.586-1.6 1.848-.998 4.067-2.999 4.989-3.398.925-.4.185-.4 2.587-1.202 2.403-.799 5.729-.998 6.838-1.797 1.107-.802 1.664-.402 2.772-2.2 1.109-1.8 1.847-2 3.51-4.4 1.663-2.398 1.847-2.599 3.51-4.198 1.663-1.6 1.663-1.4 3.51-3 1.848-1.6 2.034-1.2 3.881-2.798 1.848-1.601 2.588-1.601 3.697-3.6 1.108-2 1.846-3.2 1.846-3.998 0-.802 1.664-1.4 0-2-1.662-.601-1.846 0-4.248-2s-4.066-2.8-4.62-4.4c-.555-1.599-.555-1-.555-2.999 0-1.998-.184-2.998-1.663-3.999-1.478-1-.185-1.2-1.478-1-1.293.201-4.988 3.2-5.543 3.6-.555.4 0 .2-1.662 1.199-1.664 1-1.293 1.4-3.326 2-2.033.599-1.48 1.2-4.066.8-2.588-.4-2.772 0-4.436-2-1.662-2-1.847-2.598-2.586-4-.738-1.398-.369-.998-1.109-3.198-.738-2.199-.922-1.2-1.662-5.6l-.74-4.398v-1.6s.74-.2 1.48 0c.738.2 1.477.4 2.031.6.555.2 1.11.6 2.403 1 1.294.4 4.25 2 4.25 2s2.77 2.2 3.51 2.6c.74.4 2.958 1.8 3.694 1.8h4.991c.738 0 2.957-.402 3.697 0 .736.399 2.4 2.598 2.955 3.199.554.598 1.847 1.797 2.771 2.599.924.8 2.772 1.8 3.326 1.8.555 0 2.586.2 4.25.2H888.256c.738 0 1.847.4 2.77.4.925 0 1.109-.4 2.218 0 1.107.4 3.324 1.998 3.88 2.2.555.198.739.799 1.848 1.598 1.108.8 2.032 2.2 2.772 2.599.738.402 1.847 1.4 2.4 1.6.555.2 2.033.8 2.404 1.8.37.999.555 1.798 1.108 2.798.554 1 1.295 1.8 1.478 2.4.186.6-1.478 1.8 0 2.2l1.479.4s6.466 3 7.576-.4c1.107-3.399 5.914-3.798 5.914-3.798s.552 3.597 0 4.197c-.557.6-1.112 3.2-1.112 3.2s-.369.8-.552 2c-.186 1.2-.924 2.999-.74 4 .185 1 1.292 3.797 1.292 3.797l13.305 34.859s5.175.533 5.668.268c.493-.268 3.695-3.2 4.31-3.734.617-.533 3.08-3.066 3.08-3.066s-.985-3.331-1.232-5.065c-.248-1.732-.615-2.533-.74-4.132-.122-1.6-.122-2-.122-4s-.246-2 .247-4.93c.493-2.934.493-3.067 1.231-5.067.738-1.999.986-3.2 2.095-4.932 1.108-1.734 1.477-2.4 2.462-3.333.986-.932 8.255-4.2 10.226-7.399 1.971-3.2 3.326-3.866 3.94-4.73.615-.868.8-.468 2.034-1.601 1.233-1.134 2.462-1.732 3.757-2.2 1.293-.465.678-.865 2.526-.465 1.848.4 4.002 1.2 4.374 1.398.369.2 1.29.666 1.662.935.369.266 1.478 1.065 1.91 1.264.43.201.985.6 1.907 1.734.925 1.134 1.293 1.267 1.664 1.999.369.733.802 1.533.923 2.332.124.802.308 2.335.739 3.335.433.998 1.354 2.798 1.787 3.198.431.4 2.155 1.668 2.71 2.068.553.4 2.033 1.065 2.526 1.398.493.334 1.97 1.065 2.155 1.533.185.467-.062.666 0 1.467.06.8-.307 2.466-.307 2.466s-.617 2.666 0 3.066c.614.4 2.154 2.265 2.833 1.333.676-.933 1.047-.867 1.355-1.601.307-.732-.062-1.2.614-1.265.679-.068 2.219-.734 2.404.465.184 1.2.737 2.134.737 2.134s4.528 4.265 4.252 9.463c-.279 5.2-1.572 9.3-1.572 9.8s.555 2.898.555 2.898.278 1 .646 2.201c.37 1.2 1.109 2.499 1.109 2.499s2.404.699 2.493-.402c.093-1.098.186-.8 0-3.2-.182-2.397-.553-3.398-.646-4.597-.09-1.199-.183-1.098-.183-2.998 0-1.9-.093-2.2.369-3.7.46-1.5-.618-2.2.568-2.8 1.187-.6 2.387-1.498 2.387-1.498s2.219 2.898 2.312 3.197c.092.302.276 1 1.014 2.101.74 1.099 1.94 1.999 2.402 2.6.464.598 2.312 1.299 3.141 2.498.833 1.2 2.588 3 2.588 3s1.386 1.798 1.755 2.399c.37.6.925 1.4 1.57 1.4.648 0 3.143 0 4.991-2.501 1.848-2.499 4.803-4.997 4.803-4.997s.925-1.7 1.202-2.2c.276-.5.83-.299 1.11-1.1.275-.8.275-1.499.647-2.8.367-1.298 1.014-1.8 1.014-3.597 0-1.802.093-.802 0-2.7-.093-1.9 0-1.7-.462-2.7-.462-1-.552-.6-1.2-1.6-.647-.998-.74-.699-1.94-2.4-1.2-1.7-1.757-2.3-1.757-2.3s-.276-.897-1.57-1.898c-1.294-1-2.309-1.699-2.309-1.699s-7.947-6.7-7.947-8.199c0-1.5 1.757-3.3 2.495-4.298.738-1.002 1.293-1.7 1.757-2.4.462-.699.369-.9 1.015-1.6.647-.7 1.48-1.399 1.94-1.8.462-.4 1.571-1.398 1.571-1.398s-.462-.201.462-.1c.924.1 2.495.5 2.495.5s1.57.598 1.939.699c.37.1.463.299 1.016.6.555.3 1.017.4 1.017 1.498V234.665s-.093 1-.093 1.6c0 .6-.184 2.1-.184 2.1s-.185 1.498-.092 1.898c.092.401.092 1.5.276 1.801.185.3.185 1.6.74.999.553-.599.646-.1 1.386-1.7.738-1.598 1.293-2.398 1.755-3.398.462-1 .278-1 .83-1.9.555-.9.555-.9 1.017-1.9.464-1 .555-.7 1.11-2.099.554-1.4 1.385-3.3 1.385-3.3s.462-1.498 1.386-2.599c.924-1.1 2.126-1.9 2.4-2.099.279-.2.279-.5 2.126-.801 1.848-.3 5.729-.9 5.729-.9s7.238-.766 8.469-5.698c1.23-4.931 2.586-6 2.833-6.932.245-.933.493-.533.864-2.398.367-1.867.738-1.867.86-3.466.124-1.6.124-3.333.124-3.333s-.491-2.133-1.232-3.865c-.74-1.734-.37-.667-1.6-3.866-1.233-3.2-.987-2.667-2.095-4.667-1.11-1.999-1.11-1.466-2.218-3.597-1.108-2.134-5.174-3.735-5.665-4.268-.493-.533-.247.4-1.111-.8-.86-1.2-1.6-1.864-1.848-2.932-.245-1.066-.615-1.066-.493-2.134.126-1.066 1.48-1.998 1.726-2.531.247-.533.615-.533 1.233-1.466.615-.934 1.355-1.2 1.355-1.734v-1.732s.122-.4-1.355-.266c-1.478.131-2.219.131-3.08.131h-3.203c-.986 0-2.957-.131-2.957-.131s-.862-.535-2.34-.668c-1.479-.132-2.957.668-2.71-2.532.245-3.2 4.68-8.932 4.926-9.598.248-.667 2.343-3.2 3.328-3.466.984-.267 2.215 0 2.215 0l1.11-.118.245 1.985s.864 1.465.864 1.998c0 .535.738 3.333.738 3.333l1.11 2.533s-.864.533.616.267c1.479-.267 2.093.8 3.079-.666.983-1.468 2.34-3.333 2.34-3.333s3.82.533 4.065.933c.247.4.492 1.734.492 1.734l.37 2.664v.933l1.604 3.601s4.431 1.066 5.788.4c1.355-.668.862 3.999.862 3.999l.087 2.131s-.037 1.2 0 1.6c.035.4.653 1.866.653 1.866l1.108.935s.614.932 2.095.264c1.478-.666 1.354-.13 2.34-1.065.986-.933 1.355-1.066 1.97-1.6.616-.532 1.356-.4 2.094-1.866.739-1.466 1.479-1.333 1.479-2.532 0-1.2 1.233-1.6 0-2.666-1.233-1.066-1.355-1.335-2.71-2.4-1.355-1.066-1.478-.933-2.464-2s-3.202-1.333-4.064-2.4c-.862-1.065.493 1.067-.862-1.065-1.357-2.134-1.112-1.468-2.34-3.6-1.234-2.133-1.727-1.465-1.727-3.199 0-1.734-.985-.104.493-2.784 1.479-2.68 3.326-4.281 3.326-4.281s-.123-.133.124-2.134c.246-1.998 1.355-3.064 1.724-3.064.37 0 2.34.666 2.34.666s2.834.8 3.203.666c.369-.133 1.478-1.332 1.847-1.332.37 0 4.929-4.933 4.805-8.131-.122-3.201.251-3.868.002-5.333-.25-1.466.547-.4.087-2-.458-1.6.147-4.4.147-4.4v-6.398l-2.331-2.931s-.367-.667-2.34-2.933a104.1 104.1 0 0 0-3.941-4.266s-1.479-1.334-3.45-1.734c-1.97-.4-4.803-.4-4.803-.4l-4.188.667-3.204-.666s-2.464 0-3.326-.933c-.86-.933-1.231-.267-2.34-2.533-1.108-2.265-.739.133-1.108-2.265-.37-2.4-.864-1.734-.37-3.866.492-2.134.37-1.6 1.106-3.202.74-1.598 1.234-1.865 1.605-2.264.369-.4-.124-.134 1.476-1.733 1.602-1.6 3.203-4.667 5.543-5.6 2.34-.932 2.833-1.467 3.943-1.198 1.109.266 2.711.666 3.697.932.983.267 4.679 2 5.295 2h5.42c.492 0 4.187.534 4.806.8.614.267 3.202 1.066 3.202 0v-3.802s2.463-3.396 4.188-5.397c1.724-2 2.34-1.332 2.71-1.199.37.133 2.093 1.732 2.093 1.732 1.478-.4 2.095-.4 3.204-1.066 1.11-.666 1.355-.027 1.97-.88.616-.852 2.095-1.52 2.095-1.52s1.478.668 1.971.933c.493.268 1.11 1.2 1.231 1.867.124.666.986 2.667.986 2.667s.493.8 0 1.865c-.493 1.068-1.6 2.667-1.6 2.667s-1.48 1.867-1.603 2.266c-.123.4-.37 1.866-.37 2.665 0 .8 0 3.866.247 4.265.245.402.37 2.134.738 2.534.371.4 1.233 2.533 1.726 2.666.493.134 1.11 1.068 1.602 1.2.493.133 2.34.268 2.71.532.369.267.985 2 .985 2s.37 1.333.615 2.135c.247.799 1.111 3.865 1.111 3.865s3.817 2.8 4.31 3.065c.493.266 4.68 4.8 5.05 4.8.371 0 2.219.266 2.093-1.867-.122-2.132.137-4 .008-6.4-.13-2.398.036-5.33.036-5.33v-3.733l-1.273-3.866-1.726-3.599s-1.97-1.734-2.34-1.734h-1.234l-2.093-.664s-.49-.135-.738-.935c-.247-.8-.37-1.465-.37-2.132 0-.668.246-.8.74-1.6.492-.8 1.478-1.333 2.216-2.132.738-.8.986-.935 2.219-1.867 1.23-.933 2.955-1.734 2.955-1.734l1.644.402s.29 1.865 0 4.132c-.29 2.265-.166 3.732 1.682.932 1.847-2.8 3.51-4.066 3.819-4.532.309-.467.924-.934 1.293-1.467.37-.533.554-.933 1.109-1.732.555-.8.924-1.066 1.295-1.4.367-.332 1.17-.734 1.17-.734s1.045.134 1.785 0c.74-.133 2.402 0 2.402 0s2.462.134 1.848-1.199c-.617-1.332-1.048-1.533-1.048-1.533l-1.54-.6-2.217-.933-2.586-1.066-2.095-1-4.188-2.066s-.492-.267-.307-.933c.184-.666.922-1.2.922-1.2s.618.268 1.047 0c.433-.267.8-.132 1.172-.667.369-.533.307-.8.8-1.332.493-.533.247-.6 1.047-.933.8-.334 2.033-.467 2.71-.266.678.198 3.757.865 3.757.865l2.624.934 2.12.666 1.23.6 1.664.466h2.157l2.462.066 1.355-.265-.862-.666-2.155-1.334-2.033-2-2.155-1.333s-1.54-.732-2.465-1.066c-.923-.334-3.511-.867-3.511-.867l-3.757-.266h-5.789s-1.233-.133-1.97-.4c-.741-.266-1.356-.467-3.018-.867-1.666-.4-2.158-.4-3.266-.8-1.107-.399-3.326-1.065-3.326-1.065l-2.155-.801s-1.788-.599-3.512-.933c-1.723-.334-3.447-.666-4.433-.865-.986-.2-4.743-.867-5.114-1-.369-.134-.429-.134-1.784-.402-1.356-.266-4.559-.531-4.559-.531l-2.402-.135s-2.279.035-4.126 4.232c-1.848 4.2-5.267-1.098-5.636-1.199-.369-.1-1.94-.299-1.94-.299l-4.898-1.201-4.526-.998-2.864-.535-4.803-.566s-5.359.433-5.82.566c-.463.135-2.681 0-2.681 0l-2.403-.566-2.307-2.3-4.252-1.199s-6.836-.2-7.112-.2h-18.94l-9.517-1.999s-.924-2.3-1.478-2.6c-.555-.3-2.864-1-3.326-1-.46 0-2.126.8-2.126 1.1 0 .299.185 1.6 0 2.199-.186.6-.553 1.4-1.015 1.8-.462.401-2.126 1.6-2.126 1.6s-4.064.6-4.528.4c-.46-.201-2.677-.6-3.231-.8-.555-.2-2.312-.799-2.312-.799l-3.233-.2-4.617.399h-3.328l-4.248-.8-3.143-1.1-2.586-1.3-4.435-1.598-5.45-.4-4.621.3-2.126 1.098-3.695.902h-4.341l-3.235-.5-2.77-1.202h-4.62l-3.696-.198h-4.62l-4.063-.9s-1.108.4-1.108-.9.553-2.601.553-2.601l2.402-2.398 1.479-2.3s-.648-1.4-1.293-1.7c-.648-.298-10.902 0-10.902 0s-1.724.768-2.588-.132c-.862-.9-.74-1.7-1.108-2.1-.369-.4.246-.667-1.48-.667-1.722 0-4.557.668-4.557.668h-2.833l-3.817 1.199-3.205.666h-2.217l-.985-.933-3.448-.4-1.85 1.333-1.352 2.267-1.848 1.865-3.08 1.466-4.436.668-5.421.8-8.253 1.465-3.695.533-2.217 1.068.37 2.933 1.109 1.598 1.23 2.534.74 2.398s-.74 2.8-1.232 3.066c-.493.267-1.6 2.267-2.957.8-1.355-1.466-1.355-2.132-2.217-3.067-.862-.932-2.093-.53-3.202-2.398-1.11-1.867-1.355-1.334-1.726-2.666a42.827 42.827 0 0 0-.738-2.4s-.617 1.2-.493 1.867c.124.666 1.971 3.332 1.971 3.332l.493 1.333 1.231 2.666.617 2.4.369 1.066.493 1.6-1.355 1.333s-2.217.533-2.833.134c-.617-.4-1.724.666-2.588-1.734-.862-2.399-.862-1.999-1.108-3.733-.247-1.732-.121-2.531-.121-3.6 0-1.065-.619-2.133-.619-2.133l-4.188-4.665-3.08-1.599-3.448-.266-3.203.266-.369 3.6 2.71 2.533 1.726 1.998s.614.4 1.107.935c.493.531 1.11 1.466 1.233 1.865.122.4.862 0 .122 1.333-.74 1.334-1.972 2.4-2.834 2.533-.861.133-1.476 1.066-2.71.666-1.232-.4-3.325-.666-3.325-.666l-3.572-1.734-2.34-1.865-3.452-1.732h-.86s-4.743.998-7.516 3.997c-2.77 3-3.51 3.4-4.064 3.4-.553 0-2.4-1.2-2.4-1.2h-2.774c-.555 0-2.588-.798-3.326-1.198-.738-.402-1.477-.801-2.217-.402-.74.402-3.695 1.6-4.988 2.2-1.295.6-6.098 3.199-6.098 3.199l-3.14 1.8s-4.067 2.4-5.545 3.4c-1.478.998-3.326 2.398-3.326 2.398l-3.326 2.201-.922.4s-.371.8-3.328-1.2c-2.955-2-3.695-2.8-4.62-3.6-.923-.8-2.77-.8-3.142-2.398-.367-1.601-.183-2.8-.183-2.8s1.293-1 2.031-1.4c.74-.4-.738-.4.74-.4 1.479 0 2.955 1.2 3.881 1.4.922.199 2.402.998 2.402.998s-.554.6.924 0c1.477-.598 2.031-.4 2.588-1.199.555-.8 1.662-2.599 1.662-2.599s.37-.6-.74-2.4c-1.108-1.8.74-1.8-2.215-2.2-2.959-.399-3.143-.399-6.283-.399h-6.469l-9.669-1.599s-4.188-1.067-5.173-1.6c-.988-.533-5.174-1.866-6.9-2.132-1.724-.268-4.434-.268-7.39-.268-2.957 0-12.072 1.867-12.072 1.867l-6.652 4.265-4.683 5.067s-1.722 1.865-3.94 4.798c-2.217 2.933-3.203 5.065-3.203 5.065v6.133s-.74 2.4-1.726 2.666c-.984.267-4.188 1.066-4.926.267-.738-.802.985-.802-.738-.802-1.726 0-5.422 3.202-5.422 3.202l-.985 6.13 1.233 3.466c1.971-.8 2.955-2.4 2.955-2.4l5.666.267 4.188 2.133 4.19 4.266v1.598l1.972 3.202 1.97 2.132s.247 1.865 2.463 0c2.217-1.868 3.696-2.132 4.681-3.466.986-1.333 3.205-3.2 3.205-3.2l2.71-2.4.985-2.931-.74-3.466-2.465-4.532 1.232-3.466s0-1.6 1.973-2.933c1.97-1.332.983-1.332 3.202-2.4l4.434-2.132 5.175-1.6s1.477 0-.494 2.933c-1.972 2.933-4.681 7.73-4.681 7.73l-.246 3.2s1.479-.266 2.462 0c.986.267 2.465 1.669 3.696 1.37 1.233-.304 1.97 1.366 3.451 0 1.477-1.37 2.955-1.636 3.696-1.636.736 0 3.447.533 3.447.533l1.477 2.666-1.97 4-4.187.266-2.71-1.066-1.233 3.2.247 2.93c-1.971.802-2.464 1.335-4.435.802-1.971-.535-4.681 3.73-4.681 3.73s.493 1.335.493 2.134c0 .8-1.231 4.8-1.231 4.8s-2.71 1.333-3.45 1.333c-.74 0-3.943-1.068-4.928-1.068-.986 0-3.941 2.134-3.941 2.134s.986 1.598-1.971 0c-2.957-1.6-4.681-1.866-4.681-1.866l-3.448-1.867-3.204.8-2.71 1.867-3.45-1.601s-.493-1.332-1.724.268c-1.23 1.6-2.216 3.198-2.216 3.198l-2.465 1.334h-3.45l-1.23 2.4.49 1.6s-2.338 3.598-5.05 2.664c-2.71-.933-3.078 5.6-3.078 5.6s-1.724 1.731-2.586 1.731c-.864 0-.74.269-1.971.4-1.234.135-2.957.535-3.943.535-.986 0-2.833.4-3.819.266-.984-.133-6.405 1.333-6.405 1.333l1.848 1.734s1.107 1.199 1.6 1.066c.493-.134 2.34.133 2.34.133s.862.533.248.8c-.615.266-4.557.8-4.557.8l-1.479-.135-1.11 1.734 2.218 2.399s5.05 1.467 5.79 4.8c.74 3.333.123 2.666-.122 4.132-.247 1.465-1.11 5.065-1.11 5.065s-.985 0-2.833.133c-1.847.135-11.702-3.733-11.702-3.733s-.74-.266-1.847.134c-1.11.4-1.848 1.067-1.848 1.067l-1.48 1.2-.615.932-.493 1.201-.779 2.398-.73 8.865-.37 1.9v1.999c0 .8-.09 3-.09 3s.367 1.499.46 1.8c.093.3 1.11 2.398 1.11 2.398l1.661 1.1s.371.1.74.1c.37 0 .46-.2 1.572-.3 1.107-.1 4.433 0 4.433 0l1.386.801 2.771.8 3.42.4 1.847-1.2 2.402-2.1 2.217-1.4 3.326-2.1-.37-1.998s-1.57 1.798-.461-2.1c1.11-3.9 2.31-6.8 3.233-7.498.924-.7 3.048-1.8 3.326-1.9.277-.1 1.662-.1 1.662-.1s.462.6 1.019-.7c.553-1.3.46-.9 1.384-2 .923-1.099 1.756-1.2 2.404-2.2.643-.998 1.662-1.299 1.662-1.299l1.293-1.2 3.14.8 2.217.6 1.664-.2 1.295-1.5-.185-1.7 1.662-1.398 2.311.499 1.477.2 1.57 1.9.925 1.6 1.94 1.9 1.94 1.1 1.848.998 2.955 1.099 2.033 1.301 1.108 1.2 1.94 1.598 1.755 1.201s1.204.6 1.573 1.3c.367.699.646 1.4.646 1.4l.276 1.898-.276 1.6-1.108 1.2-1.847.9s-1.479.7-2.312 1.6c-.83.9-1.015 1.999-1.015 1.999l.739.8 1.016.101s1.662 1.2 2.126.2c.46-1.001 1.2-2.4 1.755-3.1.553-.7 2.4-1.201 2.772-1.8.369-.6 1.109-1.2 1.109-1.8v-.6c0-1.4-.093-1.5-.186-2.3-.092-.799.093-1.299.093-1.299l2.215.801h1.295s.83-.401.462-1.2c-.37-.8.276.1-.37-.8-.647-.9-.461-.699-1.478-1.6-1.017-.9-2.124-1.6-2.124-1.6l-2.31-1.998-5.266-4.7s-1.202-.699-1.757-1.6c-.552-.9-1.94-2.1-1.94-2.1s-2.493.601-2.864-1.299c-.37-1.9-.37-2.599-.37-3.099s.093-2.898.093-2.898l2.403 1.199s.738-.1 1.847.9c1.108 1 2.033 1.699 2.033 1.699l2.955 2.099 5.729 3.898s.185.402.462.701c.278.3 1.664 1.498 1.664 1.498l2.124.503 1.385 1.199.462 1.8.279 1.4.647 2.397.738 2.7 1.202 2.9.922 1.7 1.293 2 1.202 2.3 2.4 2.098.465.1s.83 1.2 1.94.2c1.11-1 1.017-.7 1.662-2.1.647-1.4 1.202-1.799 1.202-1.799l.924-.5 1.293-.9-1.11-1.7-1.569-1.6-2.218-1.898-.277-2.8.831-1.2s.464.3.831.4c.371.1 1.94 1.3 1.94 1.3l1.388 1.099 2.032-.3 1.57-1.498 1.201-.801 1.2-.699 1.202 1.099 1.11 1.9.183 3.999-.183 3.7.369 2.598 2.126 4.1.736.699 2.959.5h6.283l3.417-.1 3.695-.7 3.419-.2 1.755.3 1.755.8s1.664-1.199 1.847.8c.186 2 .186 2.4.093 3-.093.599.833 6.098.833 6.598s-.926 2.398-.926 2.398-.922 1.5-1.2 2.2c-.276.7-1.11 2.1-1.295 2.5-.181.4-.922 1.3-1.293 1.599-.369.301-1.784 2.433-6.25 1.367"/>
<path d="M841.815 367.034v3.735s-1.48 2.131-2.464 2.662c-.986.535-.246 1.068-2.464 1.603-2.217.531-5.912 0-5.912 0s-6.407 1.863-5.914 6.13c.493 4.266.985 4.801 1.233 6.131.245 1.335.493 4.534.493 4.534s.247 3.2 0 4c-.248.798-1.753 3.465-1.753 3.465l-1.7 1.599-2.707 2.4v2.134s-.74 3.466 0 4.265c.739.8 1.479 5.065 1.479 5.065l1.724 1.6s3.204 2.132 5.173 0c1.972-2.135.657-1.867 2.055-2.934 1.393-1.064 2.379-1.864 2.872-2.665.494-.801.494-.533.987-2.933.493-2.398.246-2.667.984-4.532.738-1.865.738-.533 1.726-4.532.986-4 .738-5.45 1.478-6.59.737-1.141 2.463-1.676 2.71-3.808.245-2.133-.247-1.599.986-4.265 1.23-2.667.738-.269 1.23-2.667.493-2.4.246-17.063-2.216-14.397M1017.475 307.048s0 1.867-1.233 0c-1.23-1.865-2.71-2.398-3.448-3.198-.74-.8.738 1.6-.74-.8-1.477-2.4.493 1.065-1.477-2.4-1.971-3.465-1.726-3.2-2.959-4.265-1.229-1.067-1.229-1.6-2.214-1.867-.986-.266-4.681 0-4.681 0s1.724 4.177 3.2 6.62c1.48 2.444 3.204 4.844 3.45 5.644.245.799 1.971 2.933 3.45 5.333 1.478 2.398 4.19 5.064 5.173 5.864.986.8 1.724 1.334 2.465 3.466.74 2.133 2.462 3.2 2.957 4.798.492 1.6 2.955 6.932 2.955 6.932l2.464 4.534s2.216 5.065 3.695 3.197l1.478-1.865c1.479-1.865 2.217-1.865 2.465-3.466.245-1.6.245-.266 0-4.267-.248-3.997.74-2.663-.986-5.33-1.724-2.666-1.479-1.867-2.957-4.8-1.479-2.933 0-.799-2.955-5.33l-2.959-4.535s-.984-7.463-7.143-4.265M1073.154 288.92c-1.2.61-1.726 5.48-1.726 5.48s-1.23.916-2.71 1.185c-1.478.266-3.202 1.334-3.94 1.334h-2.957s-1.972 1.064-2.464 1.863c-.493.8.985 3.202 0 4.001-.984.8-1.724 4-1.724 4h-3.94v2.666s0 2.131-1.234 1.332l-1.233-.8s-.984-.175-1.722.98c-.74 1.154-1.233 3.552-1.233 3.552s-.74 1.362 0 3.347c.74 1.987 1.478 5.453 1.478 5.453s2.957 3.999 3.943 4.265c.984.265 2.955.265 4.188 0 1.23-.266.903-1.6 2.67-1.6 1.764 0 3.735 1.799 3.735 1.799s1.726 1 2.71 0c.985-1 1.97.066 2.464-2.333.492-2.4 0-2.4.985-3.732.984-1.332 1.477-1.066 2.71-2.134 1.233-1.066 1.726 1.628 1.971-1.718.246-3.347 0-4.945 0-4.945s1.231 0 1.971-.535c.739-.533.246 2.4.739-.533s0-4.532 0-4.532-.547-4.532.218-6.932c.767-2.4-.027-6.104 0-5.984.03.118-.711-7.611-4.9-5.48M1141.029 322.045l1.293 2.8v1.198s-.738 3.356-4.803 2.179c-4.066-1.178-5.914-2.15-6.654-2.964-.738-.813-1.293-.014-1.293-1.814v-3.199c0-.998.738-1.2 0-1.798-.74-.602-.37.8-1.662 0-1.295-.801-3.142-.51-4.066-.154-.924.351-2.217 1.753-2.217 1.753s.555 2.715 1.11 3.157l.552.442 1.479 2.6s-.553 1.254.185 2.228c.738.97 1.477 2.17 2.031 2.37.557.2.926-.2 1.848 0 .926.2 3.512-.484 4.066.059.555.54 2.957 1.74 3.695 2.14.74.4 3.327 2.4 3.327 2.4l2.402 1.4 2.402 3.4s1.662 3.197 1.662 3.8v2.597h3.326s.371-1.398 1.11 0c.738 1.4 2.957 3.8 3.88 4 .924.2 3.326 1.398 3.88 1.398.554 0 1.48 2.202 2.401 0 .926-2.197 1.295-2.798 1.848-3.999.555-1.199 1.848-2.599 2.588-1.998.74.599 2.093 2.798 2.526 3.4.429.599 2.277 1.6 2.462 2.198.186.6 2.402 2.2 3.143 2.6.738.4 3.695 2 4.248 2.2.554.199 2.773 1.398 3.695 1.599.926.199 2.588-.4 3.697 0 1.11.4 1.848.4 1.848-.8 0-1.2 3.878-.4-1.11-4-4.988-3.598-5.726-3.598-8.13-5-2.4-1.398-1.848-.199-2.4-1.398-.555-1.199-.925-.799-.186-2.398.738-1.6.185 0 .738-1.6.555-1.601-.922-2.2-2.215-2.8-1.295-.599-.555 1.998-1.295-.599-.738-2.6-.369-2.8-1.293-3.8-.925-1-1.602-.6-3.202-1.8-1.602-1.2-3.635-1.6-4.56-2.4-.923-.8-1.476-.8-2.216-1.398-.74-.6-2.402-1.444-3.512-1.822-1.107-.379-2.585-.98-3.51-1.38-.923-.399-1.292-.598-2.587-1.397-1.293-.8-2.033-1-2.77-1.4-.74-.4.553.2-.74-.4-1.293-.6-5.36-3.8-7.021-1.6M1131.79 363.834h1.479l1.969 4v2.934l-1.724 3.73s1.479 2.4 1.724 3.202c.247.8.986 2.931 1.726 3.466.74.531 3.943 3.73 3.943 3.73s-2.712 4 2.707 0c5.421-3.998 6.161-3.998 7.145-4.798.986-.8 0 2.931.986-.8.985-3.733 1.233-2.133 1.478-5.865.248-3.733 2.178-4.266 1.829-5.331-.35-1.068.635-2.134 1.621-2.134s11.95 1.334 11.271 2.933c-.678 1.599-.433 5.598-1.662 7.998-1.233 2.4-1.726 4.798-2.711 6.665-.984 1.867-1.477 4.799-1.477 4.799l2.215 3.2 4.928 2.932s1.479-1.867 1.726 0c.246 1.867.491 5.598 1.231 6.133.739.53 2.464 3.999 2.464 3.999h1.97s.985 1.066 1.48 2.664c.493 1.601.986 3.733 1.477 5.6.493 1.865-.984 3.732 0 5.864.985 2.134.104 8.8.104 8.8s1.322 3.998.363 5.863c-.958 1.868-1.206 4.534-1.698 5.334-.493.799-1.972 3.73-2.957 5.333-.986 1.599-1.479 3.73-3.203 5.33-1.724 1.6-6.405 5.6-6.405 5.6s-1.725 1.866-2.711 2.665c-.984.802-3.45 2.933-4.188 3.464-.738.535-1.894 1.335-2.795 1.868-.9.534-3.365 1.067-4.103 1.598-.74.535-3.695 1.603-4.435 1.335-.74-.267-5.912-1.335-6.65-2.134-.74-.8-6.655 4.8-6.655 4.8s-4.435.533-5.171 0c-.74-.535-1.479 1.865-2.96-1.334-1.476-3.198-1.969-1.599-2.461-4.53-.493-2.933 1.478-2.134 0-4.8-1.479-2.667-2.588-4.532-2.034-5.866.555-1.333.679-2.931 0-2.931-.676 0-3.88 1.332-5.604 2.131-1.724.8-1.724 6.266-4.434 2.202-2.71-4.069-2.71-5.133-3.695-8.599-.986-3.466-.493-4.265-2.712-5.067-2.216-.799-3.695-.799-7.39-.266s-6.405.8-8.376 1.599c-1.971.801-6.16 3.999-7.145 4.267-.986.267-2.588.531-3.881 1.332-1.293.8-5.236 2.134-8.19 2.665-2.957.535-6.162 1.334-9.364 2.134-3.203.801-6.898 9.732-8.376 1.935-1.479-7.8.247-7.8 0-8.867-.246-1.066-1.458-3.733-.605-5.065.852-1.334-.711-.8-.3-4.532.412-3.732.431-5.067-.071-6.932-.503-1.865 2.209-7.998 2.454-9.065.247-1.066 0 .533.247-4.266.246-4.798-.247-3.999.739-6.932.985-2.93.245-1.867 2.71-4.265 2.463-2.4 4.659-2.4 5.533-3.2.871-.8 2.597-1.332 4.566-2.398 1.974-1.068 2.712-1.068 6.162-2.4 3.448-1.332 5.419-1.332 6.405-1.865.985-.535-1.724 1.332.985-.535 2.712-1.865.738 1.334 2.712-1.865 1.969-3.2 1.969-3.733 3.448-5.6 1.476-1.867.492-2.667 2.464-2.398 1.971.266 2.464 1.066 2.955 0 .493-1.068 1.478-2.132 2.218-4 .739-1.866 2.463-2.666 2.71-3.465.245-.8 3.202-3.466 3.202-3.466 2.464 0 4.927 3.732 4.927 3.732s.247.533 1.726.8c1.476.266 2.957.801 3.695.533.74-.267.247.268 1.233-1.6.984-1.866-.74-.534 1.97-3.732 2.71-3.199 2.956-3.467 4.187-4.531 1.233-1.068 2.219-3.202 4.436-3.735 2.218-.53 8.623 0 8.623 0"/>
</g>
</g>
</svg>
