<svg 
 xmlns="http://www.w3.org/2000/svg"
 xmlns:xlink="http://www.w3.org/1999/xlink"
 width="0.635cm" height="0.6cm">
<path fill-rule="evenodd"  fill="rgb(135, 31, 255)"
 d="M16.579,13.420 L16.106,13.420 C15.929,13.434 15.758,13.352 15.664,13.208 C15.570,13.064 15.570,12.882 15.664,12.738 C15.758,12.594 15.929,12.512 16.106,12.526 L16.579,12.526 C16.842,12.526 17.052,12.324 17.052,12.078 L17.052,1.342 C17.051,1.095 16.840,0.895 16.579,0.895 L5.211,0.895 C5.085,0.895 4.965,0.941 4.876,1.025 C4.787,1.109 4.737,1.223 4.736,1.342 L4.736,1.781 C4.736,2.029 4.524,2.230 4.263,2.230 C4.001,2.230 3.789,2.029 3.789,1.781 L3.789,1.342 C3.789,0.604 4.429,-0.000 5.211,-0.000 L16.579,-0.000 C17.362,-0.000 18.000,0.604 18.000,1.342 L18.000,12.078 C17.997,12.820 17.362,13.420 16.579,13.420 ZM15.159,4.474 L15.159,15.210 C15.159,16.195 14.308,17.000 13.263,17.000 L1.895,17.000 C0.851,17.000 -0.000,16.195 -0.000,15.210 L-0.000,4.474 C-0.000,3.487 0.851,2.683 1.895,2.683 L13.263,2.683 C14.308,2.683 15.159,3.487 15.159,4.474 ZM0.948,4.474 L0.948,15.210 C0.948,15.448 1.048,15.675 1.226,15.843 C1.403,16.011 1.644,16.105 1.895,16.105 L13.263,16.105 C13.514,16.105 13.755,16.011 13.933,15.843 C14.111,15.675 14.211,15.448 14.211,15.210 L14.211,4.474 C14.211,3.979 13.787,3.580 13.263,3.580 L13.263,3.579 L1.895,3.579 C1.371,3.579 0.948,3.979 0.948,4.474 ZM10.893,10.289 L8.052,10.289 L8.052,12.973 C8.052,13.221 7.840,13.422 7.579,13.422 C7.317,13.422 7.105,13.221 7.105,12.973 L7.105,10.289 L4.263,10.289 C4.088,10.299 3.922,10.216 3.831,10.073 C3.740,9.931 3.740,9.752 3.831,9.610 C3.922,9.467 4.088,9.384 4.263,9.394 L7.105,9.394 L7.105,6.711 C7.105,6.463 7.317,6.261 7.579,6.261 C7.840,6.261 8.052,6.463 8.052,6.711 L8.052,9.394 L10.893,9.394 C11.069,9.384 11.235,9.467 11.326,9.610 C11.417,9.752 11.417,9.931 11.326,10.073 C11.235,10.216 11.069,10.299 10.893,10.289 Z"/>
</svg>