<?xml version="1.0" standalone="no"?><!DOCTYPE svg PUBLIC "-//W3C//DTD SVG 1.1//EN" "http://www.w3.org/Graphics/SVG/1.1/DTD/svg11.dtd"><svg t="1591027829261" class="icon" viewBox="0 0 1024 1024" version="1.1" xmlns="http://www.w3.org/2000/svg" p-id="3049" xmlns:xlink="http://www.w3.org/1999/xlink" width="16" height="16"><defs><style type="text/css"></style></defs><path d="M954.88 918.016H69.12a43.52 43.52 0 0 1-43.52-43.52V149.504c0-24.064 19.456-43.52 43.52-43.52h885.248c24.064 0 43.52 19.456 43.52 43.52v724.992c0.512 24.064-18.944 43.52-43.008 43.52zM113.152 830.464H911.36V193.536H113.152v636.928z" fill="" p-id="3050"></path><path d="M512 555.52a44.544 44.544 0 0 1-27.136-9.216L53.248 205.824a43.8272 43.8272 0 0 1-7.168-61.44c14.848-18.944 42.496-22.016 61.44-7.168l403.968 318.976 415.232-339.968c18.944-15.36 46.08-12.288 61.44 6.144 15.36 18.944 12.8 46.08-6.144 61.44l-442.88 362.496a43.52 43.52 0 0 1-27.136 9.216z" fill="" p-id="3051"></path></svg>