<svg width="300" height="300" xmlns="http://www.w3.org/2000/svg">
    <!-- Created with Method Draw - http://github.com/duopixel/Method-Draw/ -->
    <g>
        <title>FAB Coin Logo</title>
        <g id="fabcoin-logo">
            <path fill="#32A4BE" stroke="#ffffff" stroke-width="0" stroke-linejoin="null" stroke-linecap="null"
                  stroke-opacity="0"
                  d="m23.000003,150.000003c0,-70.16575 56.83426,-127 127,-127c70.16575,0 127,56.83425 127,127c0,70.16574 -56.83425,127 -127,127c-70.16574,0 -127,-56.83426 -127,-127z"
                  id="svg_2"></path>
            <path fill="#103535" fill-opacity="0" stroke="#ffffff" stroke-width="8" stroke-linejoin="null"
                  stroke-linecap="null" stroke-opacity="null"
                  d="m35.500003,150.000003c0,-63.25966 51.24033,-114.49999 114.49999,-114.49999c63.25967,0 114.49999,51.24033 114.49999,114.49999c0,63.25967 -51.24032,114.49999 -114.49999,114.49999c-63.25966,0 -114.49999,-51.24032 -114.49999,-114.49999z"
                  id="svg_1"/>
            <path stroke="null" id="svg_6"
                  d="m220.666613,74.750043c0,0 -79.55033,0 -79.85211,0c-21.50399,1.18992 -25.79838,21.4186 -25.79838,21.4186c0,0 -6.14247,27.96316 -6.14247,27.96316c0,0 -29.48386,1.18993 -29.48386,1.18993c0,0 -5.2211,20.22867 -5.52822,20.22866c0.30712,0.00001 30.71855,0.00001 30.71235,0c0.00614,0 -0.92137,5.05718 -0.92137,5.05718c0,0 -30.41144,0 -30.71235,-0.00001c0.30091,0.00001 -4.29973,19.9312 -4.60685,19.93119c0.30712,0.00001 29.48385,0.59497 29.48385,0.59497c0,0 -12.59206,56.5213 -12.89918,56.52128c0.30712,0.00002 55.89647,0.59498 55.89647,0.59498c0,0 12.89919,-57.11626 12.89919,-57.11626c0,0 31.01948,0.29748 31.01948,0.29748c0,0 2.76411,-19.63371 2.76411,-19.63371c0,0 -29.79098,-1.18992 -29.79098,-1.18992c0,0 1.22849,-5.05717 0.92137,-5.05718c0.30712,0.00001 30.40523,0.29749 30.40523,0.29749c0,0 3.9926,-19.93119 3.68548,-19.9312c0.30712,0.00001 -29.17674,0.89245 -29.17674,0.89245c0,0 6.75672,-33.91278 6.4496,-33.91279c0.30712,0.00001 47.60414,2.67734 47.60414,2.67734c0,0 3.07124,-20.82364 3.07124,-20.82364l0,0z"
                  stroke-opacity="null" stroke-width="null" fill="white"></path>
        </g>
    </g>
</svg>
